MerriweatherSans-Regular.ufo
<glyph name="numbersign" format="2">
  <advance width="770.1111111111111"/>
  <unicode hex="0023"/>
  <outline>
    <contour>
      <point x="181.86666666666667" y="0.0" type="line"/>
      <point x="279.0888888888889" y="0.0" type="line"/>
      <point x="342.26666666666665" y="670.0" type="line"/>
      <point x="243.22222222222223" y="670.0" type="line"/>
    </contour>
    <contour>
      <point x="429.24444444444447" y="0.0" type="line"/>
      <point x="525.2888888888889" y="0.0" type="line"/>
      <point x="587.6444444444444" y="670.0" type="line"/>
      <point x="488.6" y="670.0" type="line"/>
    </contour>
    <contour>
      <point x="679.2222222222222" y="427.8666666666667" type="line"/>
      <point x="679.2222222222222" y="506.31111111111113" type="line"/>
      <point x="117.28888888888889" y="506.31111111111113" type="line"/>
      <point x="117.28888888888889" y="427.8666666666667" type="line"/>
    </contour>
    <contour>
      <point x="657.2222222222222" y="170.51111111111112" type="line"/>
      <point x="657.2222222222222" y="252.13333333333333" type="line"/>
      <point x="100.11111111111111" y="252.13333333333333" type="line"/>
      <point x="100.11111111111111" y="170.51111111111112" type="line"/>
    </contour>
  </outline>
</glyph>
<glyph name="dollar" format="2">
  <advance width="673.2"/>
  <unicode hex="0024"/>
  <anchor x="330.24444444444447" y="0.0" name="bottom"/>
  <anchor x="326.9555555555556" y="-83.0" name="btm"/>
  <anchor x="348.1333333333333" y="830.0" name="top"/>
  <outline>
    <contour>
      <point x="307.4" y="731.5111111111111" type="line"/>
      <point x="389.1777777777778" y="731.5111111111111" type="line"/>
      <point x="390.7111111111111" y="860.1777777777778" type="line"/>
      <point x="308.93333333333334" y="860.1777777777778" type="line"/>
    </contour>
    <contour>
      <point x="286.68888888888887" y="-114.93333333333334" type="line"/>
      <point x="368.4666666666667" y="-114.93333333333334" type="line"/>
      <point x="369.8222222222222" y="10.9111111111111" type="line"/>
      <point x="288.22222222222223" y="10.9111111111111" type="line"/>
    </contour>
    <component base="S" xOffset="50.04444444444445"/>
  </outline>
</glyph>
<glyph name="percent" format="2">
  <advance width="977.5555555555555"/>
  <unicode hex="0025"/>
  <outline>
    <contour>
      <point x="215.04444444444442" y="321.6222222222222" type="curve" smooth="yes"/>
      <point x="315.0" y="323.44444444444446"/>
      <point x="405.9555555555555" y="395.68888888888887"/>
      <point x="405.9555555555555" y="528.4666666666667" type="curve" smooth="yes"/>
      <point x="405.9555555555555" y="642.8888888888889"/>
      <point x="352.88888888888886" y="735.1333333333333"/>
      <point x="230.2222222222222" y="732.4888888888889" type="curve" smooth="yes"/>
      <point x="130.26666666666665" y="730.6666666666666"/>
      <point x="39.3111111111111" y="657.4222222222222"/>
      <point x="39.3111111111111" y="524.6444444444444" type="curve" smooth="yes"/>
      <point x="39.3111111111111" y="414.5111111111111"/>
      <point x="102.48888888888888" y="319.8"/>
    </contour>
    <contour>
      <point x="282.3111111111111" y="0.0" type="line"/>
      <point x="380.1111111111111" y="0.0" type="line"/>
      <point x="692.1333333333333" y="747.0" type="line"/>
      <point x="594.3333333333334" y="747.0" type="line"/>
    </contour>
    <contour>
      <point x="222.04444444444442" y="397.06666666666666" type="curve" smooth="yes"/>
      <point x="169.57777777777775" y="397.06666666666666"/>
      <point x="139.1111111111111" y="453.1777777777778"/>
      <point x="139.1111111111111" y="528.6444444444444" type="curve" smooth="yes"/>
      <point x="139.1111111111111" y="607.7555555555556"/>
      <point x="169.57777777777775" y="657.0444444444445"/>
      <point x="224.04444444444442" y="657.0444444444445" type="curve" smooth="yes"/>
      <point x="276.5111111111111" y="657.0444444444445"/>
      <point x="306.3333333333333" y="604.5777777777778"/>
      <point x="306.3333333333333" y="524.4666666666667" type="curve" smooth="yes"/>
      <point x="306.3333333333333" y="445.5333333333333"/>
      <point x="276.5111111111111" y="397.06666666666666"/>
    </contour>
    <contour>
      <point x="747.3333333333333" y="21.62222222222223" type="curve" smooth="yes"/>
      <point x="847.2888888888889" y="23.444444444444454"/>
      <point x="938.2444444444444" y="95.6888888888889"/>
      <point x="938.2444444444444" y="228.64444444444445" type="curve" smooth="yes"/>
      <point x="938.2444444444444" y="342.2444444444444"/>
      <point x="885.0" y="435.1333333333333"/>
      <point x="762.5111111111111" y="432.4888888888889" type="curve" smooth="yes"/>
      <point x="662.5555555555555" y="429.84444444444443"/>
      <point x="571.6" y="356.6"/>
      <point x="571.6" y="224.64444444444445" type="curve" smooth="yes"/>
      <point x="571.6" y="113.86666666666667"/>
      <point x="634.6" y="18.977777777777785"/>
    </contour>
    <contour>
      <point x="754.3333333333333" y="97.24444444444444" type="curve" smooth="yes"/>
      <point x="701.8666666666667" y="97.24444444444444"/>
      <point x="671.2222222222222" y="153.17777777777778"/>
      <point x="671.2222222222222" y="228.82222222222222" type="curve" smooth="yes"/>
      <point x="671.2222222222222" y="307.75555555555553"/>
      <point x="701.8666666666667" y="357.0444444444444"/>
      <point x="756.3333333333333" y="357.0444444444444" type="curve" smooth="yes"/>
      <point x="808.8" y="357.0444444444444"/>
      <point x="838.4444444444445" y="304.5777777777778"/>
      <point x="838.4444444444445" y="224.64444444444445" type="curve" smooth="yes"/>
      <point x="838.4444444444445" y="145.53333333333333"/>
      <point x="808.8" y="97.24444444444444"/>
    </contour>
  </outline>
</glyph>
<glyph name="ampersand" format="2">
  <advance width="748.8888888888889"/>
  <unicode hex="0026"/>
  <outline>
    <contour>
      <point x="471.5333333333333" y="103.57777777777775" type="curve"/>
      <point x="437.0" y="89.57777777777775"/>
      <point x="406.46666666666664" y="76.39999999999998"/>
      <point x="356.55555555555554" y="76.39999999999998" type="curve" smooth="yes"/>
      <point x="221.88888888888889" y="76.39999999999998"/>
      <point x="175.48888888888888" y="134.13333333333333"/>
      <point x="175.48888888888888" y="196.42222222222222" type="curve" smooth="yes"/>
      <point x="175.48888888888888" y="255.0"/>
      <point x="225.06666666666666" y="299.8666666666667"/>
      <point x="296.7111111111111" y="329.97777777777776" type="curve"/>
      <point x="305.8222222222222" y="333.6222222222222"/>
      <point x="335.77777777777777" y="342.15555555555557"/>
      <point x="345.7111111111111" y="345.8" type="curve"/>
      <point x="459.2444444444444" y="395.5111111111111"/>
      <point x="529.0222222222222" y="456.26666666666665"/>
      <point x="529.0222222222222" y="585.2222222222222" type="curve" smooth="yes"/>
      <point x="529.0222222222222" y="674.0"/>
      <point x="459.4222222222222" y="755.0"/>
      <point x="342.64444444444445" y="755.0" type="curve" smooth="yes"/>
      <point x="218.22222222222223" y="755.0"/>
      <point x="138.15555555555557" y="687.8222222222222"/>
      <point x="138.15555555555557" y="578.2222222222222" type="curve" smooth="yes"/>
      <point x="138.15555555555557" y="483.55555555555554"/>
      <point x="196.9777777777778" y="413.8666666666667"/>
      <point x="241.44444444444446" y="353.8666666666667" type="curve"/>
      <point x="255.20000000000002" y="335.93333333333334" type="line"/>
      <point x="305.2" y="266.93333333333334"/>
      <point x="408.9111111111111" y="129.24444444444444"/>
      <point x="470.9111111111111" y="66.24444444444444" type="curve" smooth="yes"/>
      <point x="528.6666666666666" y="16.955555555555552"/>
      <point x="570.2666666666667" y="-8.0"/>
      <point x="641.8888888888889" y="-8.0" type="curve" smooth="yes"/>
      <point x="667.7777777777778" y="-8.0"/>
      <point x="687.6666666666666" y="-4.0"/>
      <point x="701.2" y="0.0" type="curve"/>
      <point x="701.2" y="59.622222222222206" type="line"/>
      <point x="638.7777777777778" y="64.9111111111111"/>
      <point x="601.5555555555555" y="79.08888888888887"/>
      <point x="546.0888888888888" y="131.2" type="curve" smooth="yes"/>
      <point x="494.3777777777778" y="183.48888888888888"/>
      <point x="389.73333333333335" y="319.1777777777778"/>
      <point x="355.55555555555554" y="369.0" type="curve"/>
      <point x="339.55555555555554" y="389.0" type="line"/>
      <point x="274.3777777777778" y="485.0"/>
      <point x="244.55555555555554" y="502.8888888888889"/>
      <point x="244.55555555555554" y="581.2222222222222" type="curve" smooth="yes"/>
      <point x="244.55555555555554" y="646.6666666666666"/>
      <point x="288.8888888888889" y="674.3777777777777"/>
      <point x="341.1777777777778" y="674.3777777777777" type="curve" smooth="yes"/>
      <point x="402.7555555555556" y="674.3777777777777"/>
      <point x="431.8" y="621.8"/>
      <point x="431.8" y="583.4" type="curve" smooth="yes"/>
      <point x="431.8" y="485.8888888888889"/>
      <point x="372.8666666666667" y="439.77777777777777"/>
      <point x="280.0" y="407.77777777777777" type="curve"/>
      <point x="274.7111111111111" y="405.9555555555556"/>
      <point x="253.2888888888889" y="399.77777777777777"/>
      <point x="248.82222222222222" y="397.9555555555556" type="curve"/>
      <point x="150.15555555555557" y="358.9555555555556"/>
      <point x="66.84444444444446" y="294.24444444444447"/>
      <point x="66.84444444444446" y="192.53333333333333" type="curve" smooth="yes"/>
      <point x="66.84444444444446" y="60.06666666666666"/>
      <point x="185.1777777777778" y="-8.0"/>
      <point x="365.5777777777778" y="-8.0" type="curve" smooth="yes"/>
      <point x="430.8888888888889" y="-8.0"/>
      <point x="504.4888888888889" y="18.77777777777777"/>
      <point x="546.7333333333333" y="46.77777777777777" type="curve"/>
      <point x="554.0222222222222" y="51.24444444444444"/>
      <point x="560.2666666666667" y="62.3111111111111"/>
      <point x="566.5555555555555" y="67.77777777777777" type="curve"/>
      <point x="628.5555555555555" y="106.95555555555555"/>
      <point x="664.6222222222223" y="170.13333333333333"/>
      <point x="664.6222222222223" y="259.6222222222222" type="curve" smooth="yes"/>
      <point x="664.6222222222223" y="305.8"/>
      <point x="655.1555555555556" y="341.02222222222224"/>
      <point x="651.3333333333334" y="357.6666666666667" type="curve"/>
      <point x="551.6444444444444" y="357.6666666666667" type="line"/>
      <point x="555.2888888888889" y="344.4888888888889"/>
      <point x="566.9333333333334" y="305.6222222222222"/>
      <point x="566.9333333333334" y="259.8" type="curve" smooth="yes"/>
      <point x="566.9333333333334" y="193.64444444444442"/>
      <point x="539.4666666666667" y="152.39999999999998"/>
      <point x="495.8222222222222" y="125.28888888888886" type="curve"/>
      <point x="490.35555555555555" y="119.8222222222222"/>
      <point x="484.2888888888889" y="111.68888888888887"/>
    </contour>
  </outline>
</glyph>
<glyph name="quotesingle" format="2">
  <advance width="373.97778"/>
  <unicode hex="0027"/>
  <outline>
    <contour>
      <point x="142.089" y="462.0" type="line"/>
      <point x="232.889" y="462.0" type="line"/>
      <point x="249.067" y="823.0" type="line"/>
      <point x="124.733" y="823.0" type="line"/>
    </contour>
  </outline>
</glyph>
<glyph name="parenleft" format="2">
  <advance width="412.1111111111111"/>
  <unicode hex="0028"/>
  <outline>
    <contour>
      <point x="279.6666666666667" y="-163.66666666666666" type="curve"/>
      <point x="356.3333333333333" y="-123.93333333333334" type="line"/>
      <point x="308.15555555555557" y="-88.11111111111111"/>
      <point x="162.8222222222222" y="62.46666666666667"/>
      <point x="169.39999999999998" y="351.5777777777778" type="curve" smooth="yes"/>
      <point x="175.97777777777776" y="631.1555555555556"/>
      <point x="320.15555555555557" y="780.6444444444444"/>
      <point x="356.3333333333333" y="808.4666666666667" type="curve"/>
      <point x="279.6666666666667" y="848.2" type="line"/>
      <point x="232.7111111111111" y="821.7777777777778"/>
      <point x="59.71111111111111" y="635.8444444444444"/>
      <point x="59.71111111111111" y="352.46666666666664" type="curve" smooth="yes"/>
      <point x="59.71111111111111" y="19.977777777777785"/>
      <point x="237.3111111111111" y="-136.66666666666666"/>
    </contour>
  </outline>
</glyph>
<glyph name="asterisk" format="2">
  <advance width="602.0888888888888"/>
  <unicode hex="002A"/>
  <outline>
    <contour>
      <point x="255.26666666666665" y="312.0888888888889" type="line"/>
      <point x="353.0" y="312.0888888888889" type="line"/>
      <point x="341.64444444444445" y="442.93333333333334" type="line"/>
      <point x="340.46666666666664" y="448.8888888888889"/>
      <point x="323.1111111111111" y="521.7555555555556"/>
      <point x="321.93333333333334" y="526.0" type="curve"/>
      <point x="386.8222222222222" y="469.5777777777778" type="line"/>
      <point x="494.2444444444444" y="397.97777777777776" type="line"/>
      <point x="544.0222222222222" y="484.7111111111111" type="line"/>
      <point x="426.2444444444444" y="541.4222222222222" type="line"/>
      <point x="344.46666666666664" y="565.4222222222222" type="line"/>
      <point x="426.06666666666666" y="592.4222222222222" type="line"/>
      <point x="540.8444444444444" y="652.3111111111111" type="line"/>
      <point x="493.4222222222222" y="735.2222222222222" type="line"/>
      <point x="383.46666666666664" y="662.4444444444445" type="line"/>
      <point x="379.0444444444444" y="659.0222222222222"/>
      <point x="324.8222222222222" y="606.7333333333333"/>
      <point x="321.93333333333334" y="603.8444444444444" type="curve"/>
      <point x="339.64444444444445" y="687.2666666666667" type="line"/>
      <point x="346.0" y="817.5777777777778" type="line"/>
      <point x="249.08888888888887" y="817.5777777777778" type="line"/>
      <point x="258.6222222222222" y="685.2666666666667" type="line"/>
      <point x="259.8" y="679.1333333333333"/>
      <point x="277.97777777777776" y="606.2666666666667"/>
      <point x="278.3333333333333" y="602.8444444444444" type="curve"/>
      <point x="214.6222222222222" y="659.2666666666667" type="line"/>
      <point x="105.48888888888888" y="731.8666666666667" type="line"/>
      <point x="58.06666666666666" y="647.3111111111111" type="line"/>
      <point x="174.2" y="588.4222222222222" type="line"/>
      <point x="179.97777777777776" y="586.7111111111111"/>
      <point x="253.2" y="566.9555555555555"/>
      <point x="256.6222222222222" y="564.6" type="curve"/>
      <point x="175.0222222222222" y="539.4222222222222" type="line"/>
      <point x="60.24444444444444" y="477.5333333333333" type="line"/>
      <point x="109.19999999999999" y="393.8" type="line"/>
      <point x="216.6222222222222" y="466.5777777777778" type="line"/>
      <point x="279.3333333333333" y="527.0" type="line"/>
      <point x="261.6222222222222" y="442.7555555555556" type="line"/>
    </contour>
  </outline>
</glyph>
<glyph name="plus" format="2">
  <advance width="680.8888888888889"/>
  <unicode hex="002B"/>
  <outline>
    <contour>
      <point x="293.5111111111111" y="136.86666666666667" type="line"/>
      <point x="386.3777777777778" y="136.86666666666667" type="line"/>
      <point x="386.3777777777778" y="249.91111111111113" type="line"/>
      <point x="382.55555555555554" y="335.3333333333333" type="line"/>
      <point x="452.44444444444446" y="331.5111111111111" type="line"/>
      <point x="570.3111111111111" y="331.5111111111111" type="line"/>
      <point x="570.3111111111111" y="423.6666666666667" type="line"/>
      <point x="452.44444444444446" y="423.6666666666667" type="line"/>
      <point x="382.55555555555554" y="419.02222222222224" type="line"/>
      <point x="386.3777777777778" y="504.26666666666665" type="line"/>
      <point x="386.3777777777778" y="614.3777777777777" type="line"/>
      <point x="293.5111111111111" y="614.3777777777777" type="line"/>
      <point x="293.5111111111111" y="504.26666666666665" type="line"/>
      <point x="297.3333333333333" y="419.02222222222224" type="line"/>
      <point x="216.6888888888889" y="423.6666666666667" type="line"/>
      <point x="110.57777777777778" y="423.6666666666667" type="line"/>
      <point x="110.57777777777778" y="331.5111111111111" type="line"/>
      <point x="216.6888888888889" y="331.5111111111111" type="line"/>
      <point x="297.3333333333333" y="335.3333333333333" type="line"/>
      <point x="293.5111111111111" y="249.91111111111113" type="line"/>
    </contour>
  </outline>
</glyph>
<glyph name="comma" format="2">
  <advance width="301.8222222222222"/>
  <unicode hex="002C"/>
  <outline>
    <contour>
      <point x="76.13333333333333" y="-199.0" type="line"/>
      <point x="114.97777777777776" y="-244.53333333333333" type="line"/>
      <point x="185.39999999999998" y="-218.35555555555555"/>
      <point x="245.9333333333333" y="-131.04444444444445"/>
      <point x="245.9333333333333" y="-23.33333333333334" type="curve" smooth="yes"/>
      <point x="245.9333333333333" y="32.844444444444434"/>
      <point x="220.2222222222222" y="109.66666666666666"/>
      <point x="153.46666666666664" y="134.3111111111111" type="curve"/>
      <point x="78.35555555555555" y="69.77777777777777" type="line"/>
      <point x="78.35555555555555" y="37.644444444444446" type="line"/>
      <point x="108.11111111111111" y="34.0"/>
      <point x="137.82222222222222" y="-20.177777777777777"/>
      <point x="137.82222222222222" y="-61.888888888888886" type="curve" smooth="yes"/>
      <point x="137.82222222222222" y="-116.53333333333333"/>
      <point x="110.35555555555555" y="-168.53333333333333"/>
      <point x="76.13333333333333" y="-187.0" type="curve"/>
    </contour>
  </outline>
</glyph>
<glyph name="hyphen" format="2">
  <advance width="595.0"/>
  <unicode hex="002D"/>
  <outline>
    <contour>
      <point x="90.0" y="280.15555555555557" type="line"/>
      <point x="505.0" y="280.15555555555557" type="line"/>
      <point x="505.0" y="373.02222222222224" type="line"/>
      <point x="90.0" y="373.02222222222224" type="line"/>
    </contour>
  </outline>
</glyph>
<glyph name="period" format="2">
  <advance width="297.3777777777778"/>
  <unicode hex="002E"/>
  <outline>
    <contour>
      <point x="144.77777777777777" y="-11.0" type="curve" smooth="yes"/>
      <point x="189.08888888888887" y="-11.0"/>
      <point x="228.97777777777776" y="27.95555555555555"/>
      <point x="227.15555555555554" y="78.19999999999999" type="curve" smooth="yes"/>
      <point x="226.33333333333331" y="119.68888888888887"/>
      <point x="200.73333333333332" y="154.9333333333333"/>
      <point x="151.95555555555555" y="154.9333333333333" type="curve" smooth="yes"/>
      <point x="109.28888888888889" y="154.9333333333333"/>
      <point x="69.22222222222223" y="115.15555555555554"/>
      <point x="70.22222222222223" y="66.55555555555554" type="curve" smooth="yes"/>
      <point x="71.04444444444445" y="22.599999999999994"/>
      <point x="105.11111111111111" y="-11.0"/>
    </contour>
  </outline>
</glyph>
<glyph name="three" format="2">
  <advance width="561.9555555555555"/>
  <unicode hex="0033"/>
  <outline>
    <contour>
      <point x="72.33333333333334" y="2.133333333333328" type="line"/>
      <point x="104.48888888888891" y="-3.866666666666672"/>
      <point x="140.0888888888889" y="-10.177777777777777"/>
      <point x="178.9111111111111" y="-10.177777777777777" type="curve" smooth="yes"/>
      <point x="384.4888888888889" y="-10.177777777777777"/>
      <point x="510.9111111111111" y="98.46666666666667"/>
      <point x="510.9111111111111" y="218.88888888888889" type="curve" smooth="yes"/>
      <point x="510.9111111111111" y="311.4"/>
      <point x="439.2888888888889" y="400.2888888888889"/>
      <point x="304.3333333333333" y="398.93333333333334" type="curve"/>
      <point x="304.3333333333333" y="384.2888888888889" type="line"/>
      <point x="393.6222222222222" y="414.2888888888889"/>
      <point x="471.0888888888889" y="484.5777777777778"/>
      <point x="471.0888888888889" y="580.1111111111111" type="curve" smooth="yes"/>
      <point x="471.0888888888889" y="691.8666666666667"/>
      <point x="376.64444444444445" y="752.1777777777778"/>
      <point x="254.64444444444445" y="752.1777777777778" type="curve" smooth="yes"/>
      <point x="168.22222222222223" y="752.1777777777778"/>
      <point x="84.91111111111113" y="707.5333333333333"/>
      <point x="48.6888888888889" y="676.5333333333333" type="curve"/>
      <point x="91.22222222222223" y="609.4888888888889" type="line"/>
      <point x="125.51111111111112" y="633.9555555555555"/>
      <point x="172.9777777777778" y="660.9555555555555"/>
      <point x="243.51111111111112" y="660.9555555555555" type="curve" smooth="yes"/>
      <point x="307.26666666666665" y="660.9555555555555"/>
      <point x="357.02222222222224" y="634.0222222222222"/>
      <point x="356.02222222222224" y="564.8666666666667" type="curve" smooth="yes"/>
      <point x="355.02222222222224" y="512.4666666666667"/>
      <point x="315.22222222222223" y="467.02222222222224"/>
      <point x="247.3111111111111" y="439.02222222222224" type="curve" smooth="yes"/>
      <point x="219.3111111111111" y="427.1333333333333"/>
      <point x="187.11111111111111" y="416.6"/>
      <point x="152.9777777777778" y="409.8888888888889" type="curve"/>
      <point x="175.62222222222223" y="331.97777777777776" type="line"/>
      <point x="223.88888888888889" y="344.0444444444444" type="line"/>
      <point x="344.15555555555557" y="352.15555555555557"/>
      <point x="391.6666666666667" y="294.75555555555553"/>
      <point x="391.6666666666667" y="212.13333333333333" type="curve" smooth="yes"/>
      <point x="391.6666666666667" y="129.55555555555554"/>
      <point x="294.55555555555554" y="72.04444444444442"/>
      <point x="153.46666666666667" y="72.04444444444442" type="curve" smooth="yes"/>
      <point x="127.75555555555556" y="72.04444444444442"/>
      <point x="99.22222222222223" y="75.39999999999998"/>
      <point x="71.51111111111112" y="80.57777777777775" type="curve"/>
    </contour>
  </outline>
</glyph>
<glyph name="four" format="2">
  <advance width="664.3333333333334"/>
  <unicode hex="0034"/>
  <outline>
    <contour>
      <point x="81.75555555555556" y="146.17777777777778" type="line"/>
      <point x="631.1555555555556" y="146.17777777777778" type="line"/>
      <point x="631.1555555555556" y="234.68888888888887" type="line"/>
      <point x="181.15555555555554" y="234.68888888888887" type="line"/>
      <point x="223.08888888888887" y="306.55555555555554" type="line"/>
      <point x="298.9111111111111" y="450.3111111111111"/>
      <point x="340.8666666666667" y="566.8"/>
      <point x="416.68888888888887" y="710.5555555555555" type="curve"/>
      <point x="340.44444444444446" y="754.9333333333333" type="line"/>
      <point x="302.8" y="754.9333333333333" type="line"/>
      <point x="209.57777777777778" y="560.7555555555556"/>
      <point x="149.15555555555557" y="393.84444444444443"/>
      <point x="53.80000000000001" y="199.66666666666666" type="curve"/>
    </contour>
    <contour>
      <point x="403.0444444444444" y="0.0" type="line"/>
      <point x="517.9777777777778" y="0.0" type="line"/>
      <point x="517.9777777777778" y="481.55555555555554" type="line"/>
      <point x="413.8222222222222" y="481.55555555555554" type="line"/>
      <point x="403.0444444444444" y="241.26666666666662" type="line"/>
    </contour>
  </outline>
</glyph>
<glyph name="five" format="2">
  <advance width="604.6888888888889"/>
  <unicode hex="0035"/>
  <outline>
    <contour>
      <point x="160.0" y="-10.822222222222223" type="curve" smooth="yes"/>
      <point x="401.06666666666666" y="-10.822222222222223"/>
      <point x="533.2222222222222" y="129.7777777777778"/>
      <point x="533.2222222222222" y="260.7111111111111" type="curve" smooth="yes"/>
      <point x="533.2222222222222" y="394.8222222222222"/>
      <point x="456.68888888888887" y="470.6"/>
      <point x="313.2888888888889" y="470.6" type="curve" smooth="yes"/>
      <point x="278.5777777777778" y="470.6"/>
      <point x="240.57777777777775" y="465.4222222222222"/>
      <point x="199.33333333333331" y="456.06666666666666" type="curve"/>
      <point x="217.79999999999998" y="644.2444444444444" type="line"/>
      <point x="501.8666666666667" y="644.2444444444444" type="line"/>
      <point x="512.5777777777778" y="743.0" type="line"/>
      <point x="129.82222222222222" y="743.0" type="line"/>
      <point x="101.93333333333334" y="374.9555555555556" type="line"/>
      <point x="126.11111111111111" y="359.9555555555556" type="line"/>
      <point x="174.82222222222222" y="375.31111111111113"/>
      <point x="220.88888888888889" y="384.55555555555554"/>
      <point x="260.4222222222222" y="384.55555555555554" type="curve" smooth="yes"/>
      <point x="369.82222222222225" y="384.55555555555554"/>
      <point x="415.8666666666667" y="347.0888888888889"/>
      <point x="415.8666666666667" y="253.88888888888889" type="curve" smooth="yes"/>
      <point x="415.8666666666667" y="151.53333333333333"/>
      <point x="296.4666666666667" y="72.39999999999998"/>
      <point x="131.35555555555555" y="72.39999999999998" type="curve" smooth="yes"/>
      <point x="120.82222222222222" y="72.39999999999998"/>
      <point x="109.46666666666667" y="73.2222222222222"/>
      <point x="98.93333333333334" y="73.39999999999998" type="curve"/>
      <point x="98.93333333333334" y="-4.822222222222223" type="line"/>
      <point x="116.11111111111111" y="-9.822222222222223"/>
      <point x="143.64444444444445" y="-10.822222222222223"/>
    </contour>
  </outline>
</glyph>
<glyph name="nine" format="2">
  <advance width="685.4888888888889"/>
  <unicode hex="0039"/>
  <outline>
    <contour>
      <point x="82.44444444444446" y="484.8666666666667" type="curve" smooth="yes"/>
      <point x="82.44444444444446" y="364.97777777777776"/>
      <point x="155.15555555555557" y="255.33333333333334"/>
      <point x="284.5777777777778" y="255.33333333333334" type="curve" smooth="yes"/>
      <point x="360.93333333333334" y="255.33333333333334"/>
      <point x="406.46666666666664" y="279.8666666666667"/>
      <point x="422.64444444444445" y="298.0444444444444" type="curve"/>
      <point x="396.93333333333334" y="363.66666666666663" type="line"/>
      <point x="378.4666666666667" y="355.02222222222224"/>
      <point x="360.64444444444445" y="344.3777777777778"/>
      <point x="314.5333333333333" y="344.3777777777778" type="curve" smooth="yes"/>
      <point x="247.84444444444443" y="344.3777777777778"/>
      <point x="198.44444444444443" y="403.35555555555555"/>
      <point x="198.44444444444443" y="521.5777777777778" type="curve" smooth="yes"/>
      <point x="198.44444444444443" y="597.5777777777778"/>
      <point x="250.66666666666666" y="670.9555555555555"/>
      <point x="331.9555555555556" y="670.9555555555555" type="curve" smooth="yes"/>
      <point x="445.5111111111111" y="670.9555555555555"/>
      <point x="480.5111111111111" y="561.6222222222223"/>
      <point x="476.8666666666667" y="416.93333333333334" type="curve" smooth="yes"/>
      <point x="473.22222222222223" y="269.7111111111111"/>
      <point x="343.4222222222222" y="61.844444444444434"/>
      <point x="142.84444444444443" y="12.022222222222213" type="curve"/>
      <point x="179.73333333333332" y="-58.06666666666666" type="line"/>
      <point x="365.31111111111113" y="-21.66666666666666"/>
      <point x="600.2222222222222" y="181.55555555555557"/>
      <point x="600.2222222222222" y="465.0444444444444" type="curve"/>
      <point x="600.2222222222222" y="620.9333333333333"/>
      <point x="513.7333333333333" y="753.2888888888889"/>
      <point x="347.77777777777777" y="753.2888888888889" type="curve" smooth="yes"/>
      <point x="178.44444444444446" y="753.2888888888889"/>
      <point x="82.44444444444446" y="642.9777777777778"/>
    </contour>
  </outline>
</glyph>
<glyph name="less" format="2">
  <advance width="668.8888888888889"/>
  <unicode hex="003C"/>
  <outline>
    <contour>
      <point x="84.48888888888888" y="340.1777777777778" type="line"/>
      <point x="555.2444444444444" y="121.04444444444445" type="line"/>
      <point x="555.2444444444444" y="229.44444444444443" type="line"/>
      <point x="196.9111111111111" y="383.35555555555555" type="line"/>
      <point x="196.9111111111111" y="371.64444444444445" type="line"/>
      <point x="555.2444444444444" y="529.9777777777778" type="line"/>
      <point x="555.2444444444444" y="636.0222222222222" type="line"/>
      <point x="84.48888888888888" y="415.1777777777778" type="line"/>
    </contour>
  </outline>
</glyph>
<glyph name="equal" format="2">
  <advance width="685.1333333333333"/>
  <unicode hex="003D"/>
  <outline>
    <contour>
      <point x="118.88888888888889" y="460.8666666666667" type="line"/>
      <point x="566.2444444444444" y="460.8666666666667" type="line"/>
      <point x="566.2444444444444" y="546.9555555555555" type="line"/>
      <point x="118.88888888888889" y="546.9555555555555" type="line"/>
    </contour>
    <contour>
      <point x="118.88888888888889" y="209.22222222222223" type="line"/>
      <point x="566.2444444444444" y="209.22222222222223" type="line"/>
      <point x="566.2444444444444" y="294.4888888888889" type="line"/>
      <point x="118.88888888888889" y="294.4888888888889" type="line"/>
    </contour>
  </outline>
</glyph>
<glyph name="question" format="2">
  <advance width="511.8888888888889"/>
  <unicode hex="003F"/>
  <outline>
    <contour>
      <point x="175.6888888888889" y="242.06666666666666" type="curve"/>
      <point x="262.9111111111111" y="242.06666666666666" type="line"/>
      <point x="249.26666666666665" y="290.0"/>
      <point x="237.79999999999998" y="319.22222222222223"/>
      <point x="242.44444444444443" y="362.6222222222222" type="curve" smooth="yes"/>
      <point x="249.97777777777776" y="456.44444444444446"/>
      <point x="434.9555555555555" y="473.68888888888887"/>
      <point x="455.5111111111111" y="624.2666666666667" type="curve" smooth="yes"/>
      <point x="479.8888888888889" y="761.7555555555556"/>
      <point x="402.1333333333333" y="898.5333333333333"/>
      <point x="169.97777777777776" y="898.5333333333333" type="curve" smooth="yes"/>
      <point x="118.66666666666666" y="898.5333333333333"/>
      <point x="71.95555555555555" y="885.7111111111111"/>
      <point x="59.53333333333333" y="877.0" type="curve"/>
      <point x="59.53333333333333" y="792.7777777777778" type="line"/>
      <point x="72.06666666666666" y="795.9555555555555"/>
      <point x="99.53333333333333" y="802.4888888888889"/>
      <point x="149.66666666666666" y="802.4888888888889" type="curve" smooth="yes"/>
      <point x="289.0888888888889" y="802.4888888888889"/>
      <point x="365.40000000000003" y="736.4222222222222"/>
      <point x="339.0888888888889" y="618.911111111111" type="curve" smooth="yes"/>
      <point x="325.93333333333334" y="524.4444444444445"/>
      <point x="129.11111111111111" y="490.5333333333333"/>
      <point x="132.57777777777778" y="376.35555555555555" type="curve" smooth="yes"/>
      <point x="134.4" y="318.1111111111111"/>
      <point x="154.22222222222223" y="269.06666666666666"/>
    </contour>
    <contour>
      <point x="232.53333333333333" y="-11.0" type="curve" smooth="yes"/>
      <point x="275.31111111111113" y="-11.0"/>
      <point x="315.02222222222224" y="26.422222222222217"/>
      <point x="313.3777777777778" y="74.95555555555555" type="curve" smooth="yes"/>
      <point x="312.3777777777778" y="114.73333333333332"/>
      <point x="286.77777777777777" y="148.44444444444443"/>
      <point x="240.53333333333333" y="148.44444444444443" type="curve" smooth="yes"/>
      <point x="199.57777777777778" y="148.44444444444443"/>
      <point x="159.51111111111112" y="109.55555555555554"/>
      <point x="160.51111111111112" y="64.3111111111111" type="curve" smooth="yes"/>
      <point x="161.51111111111112" y="21.066666666666663"/>
      <point x="195.4" y="-11.0"/>
    </contour>
  </outline>
</glyph>
<glyph name="at" format="2">
  <advance width="1083.888888888889"/>
  <unicode hex="0040"/>
  <outline>
    <contour>
      <point x="522.2222222222222" y="-232.2888888888889" type="curve" smooth="yes"/>
      <point x="621.2" y="-232.2888888888889"/>
      <point x="711.7111111111111" y="-206.6888888888889"/>
      <point x="754.9555555555555" y="-180.15555555555557" type="curve"/>
      <point x="735.6" y="-114.48888888888891" type="line"/>
      <point x="700.7111111111111" y="-132.20000000000002"/>
      <point x="634.2" y="-157.62222222222223"/>
      <point x="532.2222222222222" y="-157.62222222222223" type="curve" smooth="yes"/>
      <point x="356.8888888888889" y="-157.62222222222223"/>
      <point x="189.46666666666667" y="-61.400000000000006"/>
      <point x="189.46666666666667" y="217.35555555555555" type="curve" smooth="yes"/>
      <point x="189.46666666666667" y="492.8888888888889"/>
      <point x="373.9555555555556" y="679.3333333333334"/>
      <point x="594.1333333333333" y="679.3333333333334" type="curve" smooth="yes"/>
      <point x="759.2888888888889" y="679.3333333333334"/>
      <point x="895.4222222222222" y="622.6888888888889"/>
      <point x="895.4222222222222" y="387.0444444444444" type="curve" smooth="yes"/>
      <point x="895.4222222222222" y="212.75555555555556"/>
      <point x="803.2" y="78.73333333333332"/>
      <point x="731.3777777777777" y="78.73333333333332" type="curve" smooth="yes"/>
      <point x="708.0222222222222" y="78.73333333333332"/>
      <point x="707.7777777777778" y="124.28888888888889"/>
      <point x="721.1333333333333" y="212.2888888888889" type="curve" smooth="yes"/>
      <point x="735.6666666666666" y="305.1111111111111"/>
      <point x="764.6666666666666" y="437.6"/>
      <point x="783.3111111111111" y="508.6" type="curve"/>
      <point x="698.2444444444444" y="493.4222222222222" type="line"/>
      <point x="670.2444444444444" y="512.6"/>
      <point x="626.2444444444444" y="520.4222222222222"/>
      <point x="584.2444444444444" y="520.4222222222222" type="curve" smooth="yes"/>
      <point x="394.93333333333334" y="520.4222222222222"/>
      <point x="312.4" y="348.1777777777778"/>
      <point x="309.22222222222223" y="212.53333333333333" type="curve" smooth="yes"/>
      <point x="306.22222222222223" y="66.35555555555555"/>
      <point x="381.7555555555556" y="-2.0"/>
      <point x="447.5777777777778" y="-2.0" type="curve" smooth="yes"/>
      <point x="556.4222222222222" y="-2.0"/>
      <point x="636.3555555555556" y="139.17777777777778"/>
      <point x="676.5333333333333" y="260.0" type="curve"/>
      <point x="674.5333333333333" y="260.0"/>
      <point x="653.8666666666667" y="260.0"/>
      <point x="651.8666666666667" y="260.0" type="curve"/>
      <point x="626.2222222222222" y="169.0"/>
      <point x="624.4" y="120.0"/>
      <point x="627.2222222222222" y="89.0" type="curve" smooth="yes"/>
      <point x="631.4" y="30.0"/>
      <point x="654.2888888888889" y="-1.9999999999999996"/>
      <point x="703.6" y="-1.9999999999999996" type="curve" smooth="yes"/>
      <point x="843.4888888888889" y="-1.9999999999999996"/>
      <point x="984.2666666666667" y="144.9777777777778"/>
      <point x="984.2666666666667" y="403.68888888888887" type="curve" smooth="yes"/>
      <point x="984.2666666666667" y="629.0"/>
      <point x="830.7777777777778" y="753.0"/>
      <point x="611.1777777777778" y="753.0" type="curve" smooth="yes"/>
      <point x="324.2888888888889" y="753.0"/>
      <point x="100.26666666666668" y="537.3555555555556"/>
      <point x="100.26666666666668" y="208.42222222222222" type="curve" smooth="yes"/>
      <point x="100.26666666666668" y="-91.0"/>
      <point x="287.22222222222223" y="-232.2888888888889"/>
    </contour>
    <contour>
      <point x="471.8888888888889" y="88.26666666666665" type="curve" smooth="yes"/>
      <point x="422.55555555555554" y="88.26666666666665"/>
      <point x="403.37777777777774" y="145.82222222222222"/>
      <point x="406.02222222222224" y="231.2888888888889" type="curve" smooth="yes"/>
      <point x="408.66666666666663" y="330.4"/>
      <point x="469.2" y="443.3333333333333"/>
      <point x="574.1777777777778" y="443.3333333333333" type="curve" smooth="yes"/>
      <point x="604.4222222222222" y="443.3333333333333"/>
      <point x="643.2888888888889" y="434.15555555555557"/>
      <point x="658.5777777777778" y="409.1111111111111" type="curve"/>
      <point x="643.5777777777778" y="297.4666666666667"/>
      <point x="539.7111111111111" y="88.26666666666665"/>
    </contour>
  </outline>
</glyph>
<glyph name="A" format="2">
  <advance width="688.2444444444444"/>
  <unicode hex="0041"/>
  <anchor x="344.5333333333333" y="0.0" name="bottom"/>
  <anchor x="332.0" y="-83.0" name="btm"/>
  <anchor x="619.2444444444444" y="10.0" name="ogonek"/>
  <anchor x="343.7111111111111" y="830.0" name="top"/>
  <outline>
    <contour>
      <point x="131.2222222222222" y="0.0" type="line"/>
      <point x="325.46666666666664" y="558.5333333333333" type="line"/>
      <point x="347.46666666666664" y="629.7777777777778" type="line"/>
      <point x="368.46666666666664" y="558.5333333333333" type="line"/>
      <point x="554.2" y="0.0" type="line"/>
      <point x="681.2666666666667" y="0.0" type="line"/>
      <point x="403.44444444444446" y="751.0" type="line"/>
      <point x="289.2" y="751.0" type="line"/>
      <point x="6.977777777777787" y="0.0" type="line"/>
    </contour>
    <contour>
      <point x="146.82222222222222" y="182.4888888888889" type="line"/>
      <point x="528.8222222222222" y="182.4888888888889" type="line"/>
      <point x="508.0" y="269.0" type="line"/>
      <point x="167.0" y="269.0" type="line"/>
    </contour>
  </outline>
</glyph>
<glyph name="B" format="2">
  <advance width="661.1111111111111"/>
  <unicode hex="0042"/>
  <anchor x="330.55555555555554" y="0.0" name="bottom"/>
  <anchor x="355.0" y="-83.0" name="btm"/>
  <anchor x="326.0888888888889" y="830.1777777777778" name="top"/>
  <outline>
    <contour>
      <point x="94.46666666666667" y="0.0" type="line"/>
      <point x="152.73333333333332" y="0.0" type="line"/>
      <point x="188.44444444444443" y="-2.0"/>
      <point x="257.8666666666667" y="-7.0"/>
      <point x="316.1111111111111" y="-7.0" type="curve" smooth="yes"/>
      <point x="547.6444444444444" y="-7.0"/>
      <point x="616.8222222222222" y="88.53333333333333"/>
      <point x="616.8222222222222" y="223.35555555555555" type="curve" smooth="yes"/>
      <point x="616.8222222222222" y="315.24444444444447"/>
      <point x="546.4222222222222" y="395.68888888888887"/>
      <point x="455.9555555555555" y="400.75555555555553" type="curve"/>
      <point x="535.1777777777778" y="421.4"/>
      <point x="568.7777777777777" y="502.55555555555554"/>
      <point x="568.7777777777777" y="572.8666666666667" type="curve" smooth="yes"/>
      <point x="568.7777777777777" y="679.5777777777778"/>
      <point x="491.35555555555555" y="750.0"/>
      <point x="320.6222222222222" y="750.0" type="curve" smooth="yes"/>
      <point x="247.26666666666665" y="750.0"/>
      <point x="198.08888888888887" y="743.0"/>
      <point x="149.73333333333332" y="743.0" type="curve"/>
      <point x="94.46666666666667" y="744.0" type="line"/>
    </contour>
    <contour>
      <point x="210.64444444444442" y="425.31111111111113" type="curve"/>
      <point x="210.64444444444442" y="660.4222222222222" type="line"/>
      <point x="224.1111111111111" y="665.4222222222222"/>
      <point x="282.5111111111111" y="667.4222222222222"/>
      <point x="301.15555555555557" y="667.4222222222222" type="curve" smooth="yes"/>
      <point x="400.2" y="667.4222222222222"/>
      <point x="455.31111111111113" y="632.3777777777777"/>
      <point x="455.31111111111113" y="557.2222222222222" type="curve" smooth="yes"/>
      <point x="455.31111111111113" y="466.64444444444445"/>
      <point x="405.97777777777776" y="422.9555555555556"/>
      <point x="338.1777777777778" y="422.9555555555556" type="curve" smooth="yes"/>
      <point x="302.55555555555554" y="422.9555555555556"/>
      <point x="246.26666666666665" y="419.84444444444443"/>
    </contour>
    <contour>
      <point x="210.64444444444442" y="88.33333333333331" type="curve"/>
      <point x="210.64444444444442" y="337.97777777777776" type="line"/>
      <point x="237.79999999999998" y="341.8"/>
      <point x="293.0444444444444" y="340.3333333333333"/>
      <point x="330.8" y="340.3333333333333" type="curve" smooth="yes"/>
      <point x="445.4222222222222" y="340.3333333333333"/>
      <point x="498.4666666666667" y="301.4"/>
      <point x="498.4666666666667" y="211.42222222222222" type="curve" smooth="yes"/>
      <point x="498.4666666666667" y="110.26666666666665"/>
      <point x="434.6666666666667" y="77.15555555555554"/>
      <point x="326.8666666666667" y="77.15555555555554" type="curve" smooth="yes"/>
      <point x="291.5777777777778" y="77.15555555555554"/>
      <point x="227.1111111111111" y="78.15555555555554"/>
    </contour>
  </outline>
</glyph>
<glyph name="C" format="2">
  <advance width="639.75556"/>
  <unicode hex="0043"/>
  <anchor x="320.289" y="0.0" name="bottom"/>
  <anchor x="385.378" y="-83.0" name="btm"/>
  <anchor x="391.2" y="830.0" name="top"/>
  <outline>
    <contour>
      <point x="46.533" y="368.356" type="curve" smooth="yes"/>
      <point x="46.533" y="143.356"/>
      <point x="184.422" y="-8.0"/>
      <point x="397.8" y="-8.0" type="curve" smooth="yes"/>
      <point x="489.444" y="-8.0"/>
      <point x="541.8" y="14.0"/>
      <point x="584.8" y="31.0" type="curve"/>
      <point x="584.8" y="130.222" type="line"/>
      <point x="558.8" y="107.933"/>
      <point x="478.156" y="84.044"/>
      <point x="403.756" y="84.044" type="curve" smooth="yes"/>
      <point x="254.356" y="84.044"/>
      <point x="163.778" y="205.267"/>
      <point x="163.778" y="375.711" type="curve" smooth="yes"/>
      <point x="163.778" y="548.333"/>
      <point x="256.778" y="656.778"/>
      <point x="401.622" y="656.778" type="curve" smooth="yes"/>
      <point x="511.489" y="656.778"/>
      <point x="556.956" y="627.956"/>
      <point x="573.267" y="618.711" type="curve"/>
      <point x="590.333" y="722.822" type="line"/>
      <point x="560.6" y="729.356"/>
      <point x="506.2" y="751.0"/>
      <point x="394.089" y="751.0" type="curve" smooth="yes"/>
      <point x="208.356" y="751.0"/>
      <point x="46.533" y="614.356"/>
    </contour>
  </outline>
</glyph>
<glyph name="D" format="2">
  <advance width="726.1111111111111"/>
  <unicode hex="0044"/>
  <anchor x="363.55555555555554" y="0.0" name="bottom"/>
  <anchor x="323.73333333333335" y="-83.0" name="btm"/>
  <anchor x="363.55555555555554" y="372.0" name="center"/>
  <anchor x="359.2" y="830.0" name="top"/>
  <outline>
    <contour>
      <point x="94.46666666666667" y="0.0" type="line"/>
      <point x="110.42222222222222" y="0.0"/>
      <point x="125.55555555555554" y="0.0"/>
      <point x="141.5111111111111" y="0.0" type="curve" smooth="yes"/>
      <point x="193.08888888888887" y="0.0"/>
      <point x="264.1777777777778" y="-7.0"/>
      <point x="316.73333333333335" y="-8.0" type="curve" smooth="yes"/>
      <point x="542.4444444444445" y="-11.644444444444446"/>
      <point x="683.6888888888889" y="138.82222222222222"/>
      <point x="683.6888888888889" y="392.64444444444445" type="curve" smooth="yes"/>
      <point x="683.6888888888889" y="619.0"/>
      <point x="569.5111111111111" y="751.0"/>
      <point x="328.73333333333335" y="751.0" type="curve" smooth="yes"/>
      <point x="263.35555555555555" y="751.0"/>
      <point x="199.13333333333333" y="743.0"/>
      <point x="152.0222222222222" y="743.0" type="curve" smooth="yes"/>
      <point x="132.77777777777777" y="743.0"/>
      <point x="113.71111111111111" y="743.0"/>
      <point x="94.46666666666667" y="743.0" type="curve"/>
    </contour>
    <contour>
      <point x="211.99999999999997" y="88.75555555555553" type="curve"/>
      <point x="211.99999999999997" y="658.2444444444444" type="line"/>
      <point x="233.28888888888886" y="661.7111111111111"/>
      <point x="267.2888888888889" y="665.2444444444444"/>
      <point x="305.5111111111111" y="665.2444444444444" type="curve" smooth="yes"/>
      <point x="475.1777777777778" y="665.2444444444444"/>
      <point x="560.8" y="591.0222222222222"/>
      <point x="560.8" y="375.8222222222222" type="curve" smooth="yes"/>
      <point x="560.8" y="167.6222222222222"/>
      <point x="466.8222222222222" y="82.39999999999998"/>
      <point x="334.02222222222224" y="79.75555555555553" type="curve" smooth="yes"/>
      <point x="293.26666666666665" y="78.93333333333331"/>
      <point x="243.57777777777775" y="81.75555555555553"/>
    </contour>
  </outline>
</glyph>
<glyph name="E" format="2">
  <advance width="597.2"/>
  <unicode hex="0045"/>
  <anchor x="298.6" y="0.0" name="bottom"/>
  <anchor x="328.422" y="-83.0" name="btm"/>
  <anchor x="544.0" y="10.0" name="ogonek"/>
  <anchor x="321.178" y="830.0" name="top"/>
  <anchor x="20.0" y="743.0" name="topleft"/>
  <outline>
    <contour>
      <point x="94.467" y="0.0" type="line"/>
      <point x="561.378" y="0.0" type="line"/>
      <point x="561.378" y="91.756" type="line"/>
      <point x="211.644" y="91.756" type="line"/>
      <point x="211.644" y="337.622" type="line"/>
      <point x="444.756" y="337.622" type="line"/>
      <point x="444.756" y="427.489" type="line"/>
      <point x="211.644" y="427.489" type="line"/>
      <point x="211.644" y="652.778" type="line"/>
      <point x="526.089" y="652.778" type="line"/>
      <point x="526.089" y="743.0" type="line"/>
      <point x="94.467" y="743.0" type="line"/>
    </contour>
  </outline>
</glyph>
<glyph name="F" format="2">
  <advance width="534.33333"/>
  <unicode hex="0046"/>
  <anchor x="267.667" y="0.0" name="bottom"/>
  <anchor x="333.644" y="-83.0" name="btm"/>
  <anchor x="330.356" y="830.178" name="top"/>
  <outline>
    <contour>
      <point x="94.467" y="0.0" type="line"/>
      <point x="212.0" y="0.0" type="line"/>
      <point x="212.0" y="328.089" type="line"/>
      <point x="446.089" y="328.089" type="line"/>
      <point x="446.089" y="418.311" type="line"/>
      <point x="212.0" y="418.311" type="line"/>
      <point x="212.0" y="652.778" type="line"/>
      <point x="524.733" y="652.778" type="line"/>
      <point x="524.733" y="743.0" type="line"/>
      <point x="94.467" y="743.0" type="line"/>
    </contour>
  </outline>
</glyph>
<glyph name="G" format="2">
  <advance width="705.15556"/>
  <unicode hex="0047"/>
  <anchor x="352.667" y="0.0" name="bottom"/>
  <anchor x="394.067" y="-83.0" name="btm"/>
  <anchor x="397.022" y="830.178" name="top"/>
  <outline>
    <contour>
      <point x="48.178" y="368.0" type="curve" smooth="yes"/>
      <point x="48.178" y="150.689"/>
      <point x="173.889" y="-8.0"/>
      <point x="394.956" y="-8.0" type="curve" smooth="yes"/>
      <point x="546.556" y="-8.0"/>
      <point x="604.444" y="42.822"/>
      <point x="647.8" y="45.644" type="curve"/>
      <point x="647.8" y="376.978" type="line"/>
      <point x="404.067" y="376.978" type="line"/>
      <point x="404.067" y="291.578" type="line"/>
      <point x="564.267" y="284.578" type="line"/>
      <point x="535.156" y="304.756" type="line"/>
      <point x="535.156" y="107.8" type="line"/>
      <point x="507.156" y="90.222"/>
      <point x="446.133" y="81.4"/>
      <point x="392.244" y="81.4" type="curve" smooth="yes"/>
      <point x="240.222" y="81.4"/>
      <point x="169.711" y="212.911"/>
      <point x="169.711" y="381.0" type="curve" smooth="yes"/>
      <point x="169.711" y="556.556"/>
      <point x="262.222" y="659.244"/>
      <point x="392.044" y="659.244" type="curve" smooth="yes"/>
      <point x="500.867" y="659.244"/>
      <point x="553.333" y="641.422"/>
      <point x="601.156" y="617.6" type="curve"/>
      <point x="605.978" y="722.0" type="line"/>
      <point x="540.978" y="734.0"/>
      <point x="508.978" y="751.0"/>
      <point x="397.622" y="751.0" type="curve" smooth="yes"/>
      <point x="202.778" y="751.0"/>
      <point x="48.178" y="624.956"/>
    </contour>
  </outline>
</glyph>
<glyph name="H" format="2">
  <advance width="762.2666666666667"/>
  <unicode hex="0048"/>
  <anchor x="381.1333333333333" y="0.0" name="bottom"/>
  <anchor x="376.7111111111111" y="-83.0" name="btm"/>
  <anchor x="381.1333333333333" y="372.0" name="center"/>
  <anchor x="381.1333333333333" y="830.0" name="top"/>
  <anchor x="20.0" y="743.0" name="topleft"/>
  <outline>
    <contour>
      <point x="94.46666666666667" y="0.0" type="line"/>
      <point x="211.64444444444442" y="0.0" type="line"/>
      <point x="211.64444444444442" y="330.33333333333337" type="line"/>
      <point x="550.9777777777778" y="330.33333333333337" type="line"/>
      <point x="550.9777777777778" y="0.0" type="line"/>
      <point x="667.8" y="0.0" type="line"/>
      <point x="667.8" y="743.0" type="line"/>
      <point x="550.9777777777778" y="743.0" type="line"/>
      <point x="550.9777777777778" y="420.2" type="line"/>
      <point x="211.64444444444442" y="420.2" type="line"/>
      <point x="211.64444444444442" y="743.0" type="line"/>
      <point x="94.46666666666667" y="743.0" type="line"/>
    </contour>
  </outline>
</glyph>
<glyph name="J" format="2">
  <advance width="355.46667"/>
  <unicode hex="004A"/>
  <anchor x="177.733" y="0.0" name="bottom"/>
  <anchor x="131.711" y="-83.0" name="btm"/>
  <anchor x="188.8" y="830.178" name="top"/>
  <outline>
    <contour>
      <point x="16.556" y="-162.0" type="line"/>
      <point x="98.733" y="-150.778"/>
      <point x="217.533" y="-86.422"/>
      <point x="241.067" y="42.356" type="curve" smooth="yes"/>
      <point x="254.244" y="113.356"/>
      <point x="250.067" y="202.0"/>
      <point x="250.067" y="299.0" type="curve" smooth="yes"/>
      <point x="250.067" y="743.0" type="line"/>
      <point x="131.889" y="743.0" type="line"/>
      <point x="131.889" y="297.0" type="line" smooth="yes"/>
      <point x="131.889" y="193.533"/>
      <point x="131.533" y="94.911"/>
      <point x="116.067" y="36.444" type="curve" smooth="yes"/>
      <point x="95.422" y="-40.089"/>
      <point x="33.667" y="-81.556"/>
      <point x="-18.156" y="-100.556" type="curve"/>
    </contour>
  </outline>
</glyph>
<glyph name="K" format="2">
  <advance width="675.4"/>
  <unicode hex="004B"/>
  <anchor x="338.2" y="0.0" name="bottom"/>
  <anchor x="342.6222222222222" y="-83.0" name="btm"/>
  <anchor x="342.6222222222222" y="830.1777777777778" name="top"/>
  <outline>
    <contour>
      <point x="94.46666666666667" y="0.0" type="line"/>
      <point x="211.64444444444442" y="0.0" type="line"/>
      <point x="211.64444444444442" y="301.26666666666665" type="line"/>
      <point x="185.5333333333333" y="204.0" type="line"/>
      <point x="319.46666666666664" y="358.0444444444445" type="line"/>
      <point x="333.9555555555555" y="373.7555555555556" type="line"/>
      <point x="635.4222222222222" y="743.0" type="line"/>
      <point x="499.77777777777777" y="743.0" type="line"/>
      <point x="211.64444444444442" y="377.8222222222222" type="line"/>
      <point x="211.64444444444442" y="743.0" type="line"/>
      <point x="94.46666666666667" y="743.0" type="line"/>
    </contour>
    <contour>
      <point x="480.8888888888889" y="55.0" type="curve" smooth="yes"/>
      <point x="498.7111111111111" y="25.0"/>
      <point x="502.06666666666666" y="13.0"/>
      <point x="511.06666666666666" y="0.0" type="curve"/>
      <point x="645.4222222222222" y="0.0" type="line"/>
      <point x="634.4222222222222" y="18.0"/>
      <point x="624.4222222222222" y="36.0"/>
      <point x="613.4222222222222" y="54.0" type="curve"/>
      <point x="548.2444444444444" y="168.82222222222222"/>
      <point x="395.55555555555554" y="385.55555555555554"/>
      <point x="363.55555555555554" y="443.1777777777778" type="curve"/>
      <point x="322.06666666666666" y="395.5777777777778" type="line"/>
      <point x="281.75555555555553" y="369.0" type="line"/>
      <point x="332.5777777777778" y="285.4888888888889"/>
      <point x="426.8888888888889" y="154.0"/>
    </contour>
  </outline>
</glyph>
<glyph name="L" format="2">
  <advance width="530.5555555555555"/>
  <unicode hex="004C"/>
  <anchor x="265.77777777777777" y="0.0" name="bottom"/>
  <anchor x="294.7111111111111" y="-83.0" name="btm"/>
  <anchor x="265.77777777777777" y="372.0" name="center"/>
  <anchor x="152.73333333333332" y="830.0" name="top"/>
  <anchor x="510.55555555555554" y="743.0" name="topright"/>
  <outline>
    <contour>
      <point x="94.46666666666667" y="0.0" type="line"/>
      <point x="503.4888888888889" y="0.0" type="line"/>
      <point x="503.4888888888889" y="90.86666666666665" type="line"/>
      <point x="213.28888888888886" y="90.86666666666665" type="line"/>
      <point x="213.28888888888886" y="743.0" type="line"/>
      <point x="94.46666666666667" y="743.0" type="line"/>
    </contour>
  </outline>
</glyph>
<glyph name="M" format="2">
  <advance width="935.8"/>
  <unicode hex="004D"/>
  <anchor x="468.4" y="0.0" name="bottom"/>
  <anchor x="470.46666666666664" y="-83.0" name="btm"/>
  <anchor x="469.75555555555553" y="800.0" name="top"/>
  <outline>
    <contour>
      <point x="59.48888888888891" y="0.0" type="line"/>
      <point x="172.24444444444444" y="0.0" type="line"/>
      <point x="210.82222222222222" y="450.62222222222226" type="line"/>
      <point x="225.53333333333333" y="655.6" type="line"/>
      <point x="279.7111111111111" y="450.62222222222226" type="line"/>
      <point x="433.7111111111111" y="-7.0" type="line"/>
      <point x="504.0888888888889" y="-7.0" type="line"/>
      <point x="650.5555555555555" y="450.62222222222226" type="line"/>
      <point x="701.4444444444445" y="655.6" type="line"/>
      <point x="715.2666666666667" y="450.62222222222226" type="line"/>
      <point x="759.4888888888889" y="0.0" type="line"/>
      <point x="876.3111111111111" y="0.0" type="line"/>
      <point x="787.3111111111111" y="743.0" type="line"/>
      <point x="629.5777777777778" y="743.0" type="line"/>
      <point x="505.22222222222223" y="325.0444444444444" type="line"/>
      <point x="470.46666666666664" y="165.79999999999998" type="line"/>
      <point x="431.8222222222222" y="325.0444444444444" type="line"/>
      <point x="300.75555555555553" y="743.0" type="line"/>
      <point x="136.02222222222224" y="743.0" type="line"/>
    </contour>
  </outline>
</glyph>
<glyph name="N" format="2">
  <advance width="765.5111111111111"/>
  <unicode hex="004E"/>
  <anchor x="382.84444444444443" y="0.0" name="bottom"/>
  <anchor x="365.84444444444443" y="-83.0" name="btm"/>
  <anchor x="388.6" y="830.0" name="top"/>
  <outline>
    <contour>
      <point x="93.64444444444445" y="0.0" type="line"/>
      <point x="201.46666666666664" y="0.0" type="line"/>
      <point x="201.46666666666664" y="446.6888888888889" type="line"/>
      <point x="189.44444444444443" y="672.0666666666667" type="line"/>
      <point x="145.97777777777776" y="672.0666666666667" type="line"/>
      <point x="260.73333333333335" y="462.7555555555556" type="line"/>
      <point x="560.2666666666667" y="0.0" type="line"/>
      <point x="671.8666666666667" y="0.0" type="line"/>
      <point x="671.8666666666667" y="743.0" type="line"/>
      <point x="563.2222222222222" y="743.0" type="line"/>
      <point x="563.2222222222222" y="285.19999999999993" type="line"/>
      <point x="575.6444444444444" y="77.44444444444441" type="line"/>
      <point x="611.3333333333334" y="77.44444444444441" type="line"/>
      <point x="512.1777777777778" y="261.59999999999997" type="line"/>
      <point x="201.46666666666664" y="743.0" type="line"/>
      <point x="93.64444444444445" y="743.0" type="line"/>
    </contour>
  </outline>
</glyph>
<glyph name="O" format="2">
  <advance width="768.3111111111111"/>
  <unicode hex="004F"/>
  <anchor x="384.24444444444447" y="0.0" name="bottom"/>
  <anchor x="383.06666666666666" y="-83.0" name="btm"/>
  <anchor x="384.24444444444447" y="372.0" name="center"/>
  <anchor x="691.1333333333333" y="10.0" name="ogonek"/>
  <anchor x="396.24444444444447" y="830.0" name="top"/>
  <anchor x="20.0" y="743.0" name="topleft"/>
  <anchor x="748.3111111111111" y="743.0" name="topright"/>
  <outline>
    <contour>
      <point x="381.06666666666666" y="-8.0" type="curve" smooth="yes"/>
      <point x="572.4888888888889" y="-4.0"/>
      <point x="714.4888888888889" y="122.57777777777778"/>
      <point x="719.4888888888889" y="372.1777777777778" type="curve" smooth="yes"/>
      <point x="724.3111111111111" y="602.0"/>
      <point x="594.4888888888889" y="752.0666666666667"/>
      <point x="396.06666666666666" y="751.0" type="curve" smooth="yes"/>
      <point x="204.93333333333334" y="749.9333333333333"/>
      <point x="53.82222222222222" y="626.4222222222222"/>
      <point x="48.82222222222222" y="376.64444444444445" type="curve" smooth="yes"/>
      <point x="43.82222222222222" y="151.11111111111111"/>
      <point x="173.64444444444445" y="-12.0"/>
    </contour>
    <contour>
      <point x="384.24444444444447" y="81.68888888888887" type="curve" smooth="yes"/>
      <point x="240.86666666666665" y="81.68888888888887"/>
      <point x="167.71111111111108" y="217.42222222222222"/>
      <point x="167.71111111111108" y="370.0" type="curve" smooth="yes"/>
      <point x="167.71111111111108" y="571.6888888888889"/>
      <point x="270.97777777777776" y="661.7777777777778"/>
      <point x="392.06666666666666" y="661.7777777777778" type="curve" smooth="yes"/>
      <point x="530.4444444444445" y="661.7777777777778"/>
      <point x="600.4222222222222" y="531.2222222222222"/>
      <point x="600.4222222222222" y="377.0" type="curve" smooth="yes"/>
      <point x="600.4222222222222" y="182.77777777777777"/>
      <point x="515.6222222222223" y="81.68888888888887"/>
    </contour>
  </outline>
</glyph>
<glyph name="P" format="2">
  <advance width="627.82222"/>
  <unicode hex="0050"/>
  <anchor x="313.911" y="0.0" name="bottom"/>
  <anchor x="339.244" y="-83.0" name="btm"/>
  <anchor x="342.8" y="830.178" name="top"/>
  <outline>
    <contour>
      <point x="94.467" y="0.0" type="line"/>
      <point x="211.644" y="0.0" type="line"/>
      <point x="211.644" y="251.489" type="line"/>
      <point x="230.289" y="251.489"/>
      <point x="258.756" y="249.667"/>
      <point x="305.689" y="249.667" type="curve" smooth="yes"/>
      <point x="491.933" y="249.667"/>
      <point x="592.0" y="344.733"/>
      <point x="592.0" y="507.333" type="curve" smooth="yes"/>
      <point x="592.0" y="678.822"/>
      <point x="492.644" y="751.0"/>
      <point x="330.867" y="751.0" type="curve" smooth="yes"/>
      <point x="263.978" y="751.0"/>
      <point x="206.2" y="743.0"/>
      <point x="144.756" y="743.0" type="curve" smooth="yes"/>
      <point x="94.467" y="743.0" type="line"/>
    </contour>
    <contour>
      <point x="211.644" y="341.244" type="curve"/>
      <point x="211.644" y="658.133" type="line"/>
      <point x="238.111" y="663.956"/>
      <point x="268.933" y="665.778"/>
      <point x="298.222" y="666.778" type="curve" smooth="yes"/>
      <point x="413.133" y="670.778"/>
      <point x="475.822" y="621.422"/>
      <point x="475.822" y="506.867" type="curve" smooth="yes"/>
      <point x="475.822" y="364.956"/>
      <point x="391.667" y="336.422"/>
      <point x="299.222" y="336.422" type="curve" smooth="yes"/>
      <point x="271.933" y="336.422"/>
      <point x="242.222" y="336.6"/>
    </contour>
  </outline>
</glyph>
<glyph name="Q" format="2">
  <advance width="768.3111111111111"/>
  <unicode hex="0051"/>
  <anchor x="384.24444444444447" y="0.0" name="bottom"/>
  <anchor x="384.06666666666666" y="-83.0" name="btm"/>
  <anchor x="384.06666666666666" y="830.0" name="top"/>
  <anchor x="384.24444444444447" y="372.0" name="center"/>
  <anchor x="691.1333333333333" y="10.0" name="ogonek"/>
  <anchor x="20.0" y="743.0" name="topleft"/>
  <anchor x="748.3111111111111" y="743.0" name="topright"/>
  <outline>
    <contour>
      <point x="598.3555555555556" y="-146.66666666666666" type="curve" smooth="yes"/>
      <point x="637.7777777777778" y="-146.66666666666666"/>
      <point x="658.3333333333334" y="-135.95555555555555"/>
      <point x="673.1555555555556" y="-125.77777777777777" type="curve"/>
      <point x="673.1555555555556" y="-42.622222222222234" type="line"/>
      <point x="650.1555555555556" y="-50.622222222222234"/>
      <point x="626.9111111111112" y="-52.33333333333334"/>
      <point x="601.5555555555555" y="-52.33333333333334" type="curve" smooth="yes"/>
      <point x="522.6444444444444" y="-52.33333333333334"/>
      <point x="495.22222222222223" y="-30.888888888888886"/>
      <point x="459.77777777777777" y="33.0" type="curve"/>
      <point x="408.31111111111113" y="33.0" type="line"/>
      <point x="355.68888888888887" y="14.222222222222227" type="line"/>
      <point x="432.44444444444446" y="-115.42222222222222"/>
      <point x="482.06666666666666" y="-146.66666666666666"/>
    </contour>
    <component base="O"/>
  </outline>
</glyph>
<glyph name="R" format="2">
  <advance width="673.0444444444445"/>
  <unicode hex="0052"/>
  <anchor x="337.02222222222224" y="0.0" name="bottom"/>
  <anchor x="339.9111111111111" y="-83.0" name="btm"/>
  <anchor x="320.9111111111111" y="830.0" name="top"/>
  <outline>
    <contour>
      <point x="211.64444444444442" y="0.0" type="line"/>
      <point x="211.64444444444442" y="309.77777777777777" type="line"/>
      <point x="332.1111111111111" y="309.77777777777777"/>
      <point x="365.2888888888889" y="311.6666666666667"/>
      <point x="406.1111111111111" y="317.6666666666667" type="curve" smooth="yes"/>
      <point x="520.6444444444444" y="335.84444444444443"/>
      <point x="591.8222222222222" y="405.4222222222222"/>
      <point x="591.8222222222222" y="539.1555555555556" type="curve" smooth="yes"/>
      <point x="591.8222222222222" y="692.1333333333333"/>
      <point x="486.02222222222224" y="751.0"/>
      <point x="337.15555555555557" y="751.0" type="curve" smooth="yes"/>
      <point x="258.93333333333334" y="751.0"/>
      <point x="193.37777777777777" y="743.0"/>
      <point x="145.9111111111111" y="743.0" type="curve" smooth="yes"/>
      <point x="128.48888888888888" y="743.0"/>
      <point x="111.88888888888889" y="743.0"/>
      <point x="94.46666666666667" y="743.0" type="curve"/>
      <point x="94.46666666666667" y="0.0" type="line"/>
    </contour>
    <contour>
      <point x="211.64444444444442" y="393.8222222222222" type="curve"/>
      <point x="211.64444444444442" y="655.6" type="line"/>
      <point x="241.9333333333333" y="661.7777777777778"/>
      <point x="281.0444444444444" y="664.6"/>
      <point x="319.8" y="664.6" type="curve" smooth="yes"/>
      <point x="434.97777777777776" y="664.6"/>
      <point x="473.8888888888889" y="620.2888888888889"/>
      <point x="473.8888888888889" y="534.3333333333334" type="curve" smooth="yes"/>
      <point x="473.8888888888889" y="437.3777777777778"/>
      <point x="419.97777777777776" y="390.8222222222222"/>
      <point x="323.5111111111111" y="390.8222222222222" type="curve" smooth="yes"/>
      <point x="297.68888888888887" y="390.8222222222222"/>
      <point x="232.64444444444442" y="390.8222222222222"/>
    </contour>
    <contour>
      <point x="511.68888888888887" y="0.0" type="curve"/>
      <point x="644.4" y="0.0" type="line"/>
      <point x="633.5777777777778" y="18.0"/>
      <point x="624.4" y="36.0"/>
      <point x="614.4" y="54.82222222222222" type="curve" smooth="yes"/>
      <point x="560.8666666666667" y="150.82222222222222"/>
      <point x="521.0" y="307.8"/>
      <point x="441.8222222222222" y="341.8" type="curve"/>
      <point x="371.6666666666667" y="347.6" type="line"/>
      <point x="326.9111111111111" y="313.4222222222222" type="line"/>
      <point x="409.6" y="300.9111111111111"/>
      <point x="443.5111111111111" y="144.2888888888889"/>
      <point x="484.68888888888887" y="54.82222222222222" type="curve" smooth="yes"/>
      <point x="499.68888888888887" y="22.822222222222223"/>
      <point x="502.8666666666667" y="13.0"/>
    </contour>
  </outline>
</glyph>
<glyph name="S" format="2">
  <advance width="559.4"/>
  <unicode hex="0053"/>
  <anchor x="280.2" y="0.0" name="bottom"/>
  <anchor x="276.9111111111111" y="-83.0" name="btm"/>
  <anchor x="298.0888888888889" y="830.0" name="top"/>
  <outline>
    <contour>
      <point x="275.6222222222222" y="-8.0" type="curve" smooth="yes"/>
      <point x="422.68888888888887" y="-8.0"/>
      <point x="525.0444444444445" y="58.42222222222222"/>
      <point x="525.0444444444445" y="194.88888888888889" type="curve" smooth="yes"/>
      <point x="525.0444444444445" y="312.6"/>
      <point x="418.9555555555555" y="372.1777777777778"/>
      <point x="319.4" y="423.4888888888889" type="curve" smooth="yes"/>
      <point x="215.2444444444444" y="477.06666666666666"/>
      <point x="174.77777777777774" y="502.5333333333333"/>
      <point x="174.77777777777774" y="572.1555555555556" type="curve" smooth="yes"/>
      <point x="174.77777777777774" y="632.7777777777778"/>
      <point x="238.3111111111111" y="660.4888888888889"/>
      <point x="311.44444444444446" y="660.4888888888889" type="curve" smooth="yes"/>
      <point x="390.3777777777778" y="660.4888888888889"/>
      <point x="430.8666666666667" y="640.4222222222222"/>
      <point x="465.22222222222223" y="619.0666666666667" type="curve"/>
      <point x="487.75555555555553" y="711.2888888888889" type="line"/>
      <point x="461.75555555555553" y="728.2888888888889"/>
      <point x="402.0888888888889" y="751.0"/>
      <point x="311.3777777777778" y="751.0" type="curve" smooth="yes"/>
      <point x="188.0" y="751.0"/>
      <point x="62.24444444444444" y="701.9333333333333"/>
      <point x="62.24444444444444" y="558.4" type="curve" smooth="yes"/>
      <point x="62.24444444444444" y="448.73333333333335"/>
      <point x="156.77777777777777" y="377.8"/>
      <point x="247.88888888888889" y="333.15555555555557" type="curve" smooth="yes"/>
      <point x="354.6666666666667" y="281.9111111111111"/>
      <point x="409.15555555555557" y="252.6888888888889"/>
      <point x="409.15555555555557" y="183.24444444444444" type="curve" smooth="yes"/>
      <point x="409.15555555555557" y="113.68888888888887"/>
      <point x="359.31111111111113" y="85.2222222222222"/>
      <point x="268.26666666666665" y="85.2222222222222" type="curve" smooth="yes"/>
      <point x="198.13333333333333" y="85.2222222222222"/>
      <point x="127.3111111111111" y="108.39999999999998"/>
      <point x="89.42222222222222" y="130.57777777777775" type="curve"/>
      <point x="64.95555555555555" y="35.17777777777778" type="line"/>
      <point x="91.3111111111111" y="18.177777777777777"/>
      <point x="177.79999999999998" y="-8.0"/>
    </contour>
  </outline>
</glyph>
<glyph name="T" format="2">
  <advance width="631.3777777777777"/>
  <unicode hex="0054"/>
  <anchor x="315.68888888888887" y="0.0" name="bottom"/>
  <anchor x="312.0444444444444" y="-83.0" name="btm"/>
  <anchor x="315.68888888888887" y="372.0" name="center"/>
  <anchor x="312.0444444444444" y="830.0" name="top"/>
  <outline>
    <contour>
      <point x="256.77777777777777" y="0.0" type="line"/>
      <point x="374.9555555555555" y="0.0" type="line"/>
      <point x="374.9555555555555" y="652.7777777777778" type="line"/>
      <point x="603.4" y="652.7777777777778" type="line"/>
      <point x="603.4" y="743.0" type="line"/>
      <point x="28.155555555555562" y="743.0" type="line"/>
      <point x="28.155555555555562" y="652.7777777777778" type="line"/>
      <point x="256.77777777777777" y="652.7777777777778" type="line"/>
    </contour>
  </outline>
</glyph>
<glyph name="U" format="2">
  <advance width="719.5111111111111"/>
  <unicode hex="0055"/>
  <anchor x="359.84444444444443" y="0.0" name="bottom"/>
  <anchor x="364.9555555555556" y="-83.0" name="btm"/>
  <anchor x="647.9777777777778" y="10.0" name="ogonek"/>
  <anchor x="365.9555555555556" y="830.0" name="top"/>
  <anchor x="699.5111111111111" y="743.0" name="topright"/>
  <outline>
    <contour>
      <point x="363.4222222222222" y="-8.0" type="curve" smooth="yes"/>
      <point x="551.9111111111112" y="-8.0"/>
      <point x="643.2222222222222" y="104.82222222222222"/>
      <point x="643.2222222222222" y="308.8888888888889" type="curve" smooth="yes"/>
      <point x="643.2222222222222" y="743.0" type="line"/>
      <point x="527.2222222222222" y="743.0" type="line"/>
      <point x="527.2222222222222" y="333.5777777777778" type="line" smooth="yes"/>
      <point x="527.2222222222222" y="135.68888888888887"/>
      <point x="466.35555555555555" y="83.93333333333331"/>
      <point x="366.77777777777777" y="83.93333333333331" type="curve" smooth="yes"/>
      <point x="255.97777777777776" y="83.93333333333331"/>
      <point x="193.28888888888886" y="134.26666666666665"/>
      <point x="193.28888888888886" y="333.5777777777778" type="curve" smooth="yes"/>
      <point x="194.28888888888886" y="743.0" type="line"/>
      <point x="77.28888888888889" y="743.0" type="line"/>
      <point x="77.11111111111111" y="310.77777777777777" type="line" smooth="yes"/>
      <point x="76.28888888888889" y="110.48888888888888"/>
      <point x="156.04444444444445" y="-8.0"/>
    </contour>
  </outline>
</glyph>
<glyph name="V" format="2">
  <advance width="664.66667"/>
  <unicode hex="0056"/>
  <anchor x="332.422" y="0.0" name="bottom"/>
  <anchor x="333.244" y="-83.0" name="btm"/>
  <anchor x="333.244" y="830.178" name="top"/>
  <outline>
    <contour>
      <point x="286.333" y="-5.467" type="line"/>
      <point x="384.622" y="-5.467" type="line"/>
      <point x="655.978" y="743.0" type="line"/>
      <point x="532.911" y="743.0" type="line"/>
      <point x="371.311" y="259.711" type="line"/>
      <point x="336.244" y="140.089" type="line"/>
      <point x="302.178" y="259.711" type="line"/>
      <point x="132.756" y="743.0" type="line"/>
      <point x="8.689" y="743.0" type="line"/>
    </contour>
  </outline>
</glyph>
<glyph name="W" format="2">
  <advance width="941.6222222222223"/>
  <unicode hex="0057"/>
  <anchor x="471.31111111111113" y="0.0" name="bottom"/>
  <anchor x="469.53333333333336" y="-83.0" name="btm"/>
  <anchor x="469.5333333333333" y="830.0" name="top"/>
  <outline>
    <contour>
      <point x="212.6888888888889" y="-8.0" type="line"/>
      <point x="316.2888888888889" y="-8.0" type="line"/>
      <point x="452.8888888888889" y="466.20000000000005" type="line"/>
      <point x="488.4888888888889" y="668.7333333333333" type="line"/>
      <point x="452.7111111111111" y="669.5555555555555" type="line"/>
      <point x="489.02222222222224" y="466.20000000000005" type="line"/>
      <point x="623.4444444444445" y="-8.0" type="line"/>
      <point x="739.8666666666667" y="-8.0" type="line"/>
      <point x="932.2222222222222" y="743.0" type="line"/>
      <point x="814.2222222222222" y="743.0" type="line"/>
      <point x="708.6666666666666" y="268.35555555555555" type="line"/>
      <point x="677.1333333333333" y="77.33333333333334" type="line"/>
      <point x="696.4888888888889" y="77.33333333333334" type="line"/>
      <point x="653.6666666666666" y="269.17777777777775" type="line"/>
      <point x="516.6444444444444" y="743.0" type="line"/>
      <point x="426.97777777777776" y="743.0" type="line"/>
      <point x="292.84444444444443" y="269.17777777777775" type="line"/>
      <point x="258.6" y="77.51111111111112" type="line"/>
      <point x="275.9555555555555" y="77.51111111111112" type="line"/>
      <point x="242.6" y="269.17777777777775" type="line"/>
      <point x="129.2222222222222" y="743.0" type="line"/>
      <point x="9.400000000000004" y="743.0" type="line"/>
    </contour>
  </outline>
</glyph>
<glyph name="X" format="2">
  <advance width="647.3333333333334"/>
  <unicode hex="0058"/>
  <anchor x="323.6666666666667" y="0.0" name="bottom"/>
  <anchor x="315.84444444444443" y="-83.0" name="btm"/>
  <anchor x="315.84444444444443" y="830.0" name="top"/>
  <outline>
    <contour>
      <point x="20.111111111111114" y="0.0" type="line"/>
      <point x="145.1111111111111" y="0.0" type="line"/>
      <point x="270.8" y="217.04444444444445" type="line"/>
      <point x="333.31111111111113" y="323.84444444444443" type="line"/>
      <point x="301.4888888888889" y="322.84444444444443" type="line"/>
      <point x="365.8222222222222" y="217.04444444444445" type="line"/>
      <point x="494.68888888888887" y="0.0" type="line"/>
      <point x="627.2222222222222" y="0.0" type="line"/>
      <point x="370.2444444444444" y="400.75555555555553" type="line"/>
      <point x="383.64444444444445" y="354.75555555555553" type="line"/>
      <point x="622.2222222222222" y="743.0" type="line"/>
      <point x="497.68888888888887" y="743.0" type="line"/>
      <point x="383.2888888888889" y="547.0" type="line"/>
      <point x="316.3777777777778" y="432.5111111111111" type="line"/>
      <point x="341.2" y="432.5111111111111" type="line"/>
      <point x="272.93333333333334" y="547.0" type="line"/>
      <point x="153.17777777777775" y="744.0" type="line"/>
      <point x="21.822222222222223" y="743.0" type="line"/>
      <point x="269.97777777777776" y="356.0" type="line"/>
      <point x="263.5111111111111" y="400.8888888888889" type="line"/>
    </contour>
  </outline>
</glyph>
<glyph name="Y" format="2">
  <advance width="615.0444444444445"/>
  <unicode hex="0059"/>
  <anchor x="307.93333333333334" y="0.0" name="bottom"/>
  <anchor x="312.22222222222223" y="-83.0" name="btm"/>
  <anchor x="312.22222222222223" y="830.0" name="top"/>
  <anchor x="20.0" y="743.0" name="topleft"/>
  <outline>
    <contour>
      <point x="249.66666666666669" y="0.0" type="line"/>
      <point x="368.66666666666663" y="0.0" type="line"/>
      <point x="368.66666666666663" y="314.5111111111111" type="line"/>
      <point x="351.2" y="251.55555555555557" type="line"/>
      <point x="610.2666666666667" y="743.0" type="line"/>
      <point x="487.02222222222224" y="743.0" type="line"/>
      <point x="329.5777777777778" y="427.0444444444444" type="line"/>
      <point x="303.4" y="351.15555555555557" type="line"/>
      <point x="321.4" y="351.15555555555557" type="line"/>
      <point x="290.4" y="427.0444444444444" type="line"/>
      <point x="130.37777777777777" y="743.0" type="line"/>
      <point x="4.7777777777777946" y="743.0" type="line"/>
      <point x="267.1333333333333" y="251.73333333333335" type="line"/>
      <point x="249.66666666666669" y="315.8666666666667" type="line"/>
    </contour>
  </outline>
</glyph>
<glyph name="Z" format="2">
  <advance width="633.0666666666667"/>
  <unicode hex="005A"/>
  <anchor x="316.53333333333336" y="0.0" name="bottom"/>
  <anchor x="313.64444444444445" y="-83.0" name="btm"/>
  <anchor x="316.53333333333336" y="372.0" name="center"/>
  <anchor x="331.64444444444445" y="830.0" name="top"/>
  <outline>
    <contour>
      <point x="61.622222222222234" y="0.0" type="line"/>
      <point x="568.3777777777777" y="0.0" type="line"/>
      <point x="568.3777777777777" y="90.86666666666665" type="line"/>
      <point x="196.2444444444444" y="90.86666666666665" type="line"/>
      <point x="232.2444444444444" y="133.57777777777775" type="line"/>
      <point x="595.6" y="704.0" type="line"/>
      <point x="573.3111111111111" y="743.0" type="line"/>
      <point x="81.0888888888889" y="743.0" type="line"/>
      <point x="81.0888888888889" y="651.3777777777777" type="line"/>
      <point x="440.15555555555557" y="651.3777777777777" type="line"/>
      <point x="411.9777777777778" y="616.4888888888889" type="line"/>
      <point x="39.97777777777779" y="41.0" type="line"/>
    </contour>
  </outline>
</glyph>
<glyph name="bracketleft" format="2">
  <advance width="405.6222222222222"/>
  <unicode hex="005B"/>
  <outline>
    <contour>
      <point x="86.62222222222223" y="28.999999999999996" type="line"/>
      <point x="86.62222222222223" y="-67.0"/>
      <point x="104.44444444444446" y="-93.0"/>
      <point x="179.62222222222223" y="-93.0" type="curve" smooth="yes"/>
      <point x="243.17777777777778" y="-93.0"/>
      <point x="277.0" y="-88.0"/>
      <point x="327.6666666666667" y="-82.0" type="curve"/>
      <point x="327.6666666666667" y="-22.51111111111112" type="line"/>
      <point x="196.66666666666666" y="-21.51111111111112" type="line"/>
      <point x="196.66666666666666" y="774.2666666666667" type="line"/>
      <point x="327.6666666666667" y="774.2666666666667" type="line"/>
      <point x="327.6666666666667" y="836.0" type="line"/>
      <point x="277.0" y="842.0"/>
      <point x="243.17777777777778" y="848.0"/>
      <point x="179.62222222222223" y="848.0" type="curve" smooth="yes"/>
      <point x="104.62222222222223" y="848.0"/>
      <point x="86.62222222222223" y="822.0"/>
      <point x="86.62222222222223" y="726.0" type="curve" smooth="yes"/>
    </contour>
  </outline>
</glyph>
<glyph name="asciicircum" format="2">
  <advance width="666.7111111111111"/>
  <unicode hex="005E"/>
  <outline>
    <contour>
      <point x="111.68888888888884" y="239.0" type="line"/>
      <point x="293.1333333333333" y="718.3111111111111" type="line"/>
      <point x="373.7555555555556" y="718.3111111111111" type="line"/>
      <point x="554.2" y="239.0" type="line"/>
      <point x="494.04444444444437" y="239.0" type="line"/>
      <point x="339.2" y="660.8444444444444" type="line"/>
      <point x="326.8666666666667" y="660.8444444444444" type="line"/>
      <point x="172.02222222222227" y="239.0" type="line"/>
    </contour>
  </outline>
</glyph>
<glyph name="underscore" format="2">
  <advance width="826.8888888888889"/>
  <unicode hex="005F"/>
  <outline>
    <contour>
      <point x="-19.46666666666667" y="-202.46666666666667" type="line"/>
      <point x="846.3555555555556" y="-202.46666666666667" type="line"/>
      <point x="846.3555555555556" y="-132.8" type="line"/>
      <point x="-19.46666666666667" y="-132.8" type="line"/>
    </contour>
  </outline>
</glyph>
<glyph name="grave" format="2">
  <advance width="297.0444444444444"/>
  <unicode hex="0060"/>
  <anchor x="216.79999999999998" y="830.1777777777778" name="_top"/>
  <outline>
    <contour>
      <point x="271.68888888888887" y="676.3555555555556" type="line"/>
      <point x="216.33333333333331" y="736.7555555555556"/>
      <point x="151.44444444444443" y="811.3555555555556"/>
      <point x="106.51111111111109" y="873.1333333333333" type="curve"/>
      <point x="24.53333333333333" y="803.7555555555556" type="line"/>
      <point x="57.53333333333333" y="750.0222222222222"/>
      <point x="174.3111111111111" y="646.4444444444445"/>
      <point x="214.48888888888888" y="628.2666666666667" type="curve"/>
    </contour>
  </outline>
</glyph>
<glyph name="a" format="2">
  <advance width="559.1111111111111"/>
  <unicode hex="0061"/>
  <anchor x="279.55555555555554" y="0.0" name="bottom"/>
  <anchor x="279.31111111111113" y="-100.0" name="btm"/>
  <anchor x="493.84444444444443" y="25.0" name="ogonek"/>
  <anchor x="272.73333333333335" y="830.0" name="top"/>
  <outline>
    <contour>
      <point x="217.77777777777777" y="-8.0" type="curve" smooth="yes"/>
      <point x="283.77777777777777" y="-8.0"/>
      <point x="342.82222222222225" y="20.0"/>
      <point x="372.64444444444445" y="47.0" type="curve"/>
      <point x="388.8222222222222" y="90.0" type="line"/>
      <point x="365.82222222222225" y="114.48888888888888" type="line"/>
      <point x="355.0" y="101.48888888888888"/>
      <point x="300.6666666666667" y="76.08888888888887"/>
      <point x="253.5111111111111" y="76.08888888888887" type="curve" smooth="yes"/>
      <point x="192.2444444444444" y="76.08888888888887"/>
      <point x="160.88888888888886" y="105.19999999999999"/>
      <point x="160.88888888888886" y="160.84444444444443" type="curve" smooth="yes"/>
      <point x="160.88888888888886" y="203.66666666666666"/>
      <point x="186.71111111111108" y="225.06666666666666"/>
      <point x="220.39999999999998" y="240.64444444444445" type="curve" smooth="yes"/>
      <point x="257.3777777777778" y="258.22222222222223"/>
      <point x="326.35555555555555" y="266.4"/>
      <point x="365.82222222222225" y="266.4" type="curve"/>
      <point x="390.1777777777778" y="307.06666666666666" type="line"/>
      <point x="365.82222222222225" y="337.6" type="line"/>
      <point x="301.5777777777778" y="337.6"/>
      <point x="216.15555555555557" y="328.4888888888889"/>
      <point x="151.86666666666667" y="302.31111111111113" type="curve" smooth="yes"/>
      <point x="86.93333333333334" y="274.4888888888889"/>
      <point x="45.82222222222222" y="224.55555555555554"/>
      <point x="45.82222222222222" y="153.26666666666665" type="curve" smooth="yes"/>
      <point x="45.82222222222222" y="54.02222222222221"/>
      <point x="117.82222222222222" y="-8.0"/>
    </contour>
    <contour>
      <point x="481.64444444444445" y="0.0" type="line"/>
      <point x="481.64444444444445" y="383.73333333333335" type="line" smooth="yes"/>
      <point x="481.64444444444445" y="532.4"/>
      <point x="403.2444444444444" y="565.3555555555556"/>
      <point x="277.84444444444443" y="565.3555555555556" type="curve" smooth="yes"/>
      <point x="191.48888888888888" y="565.3555555555556"/>
      <point x="93.13333333333333" y="526.8888888888889"/>
      <point x="70.46666666666667" y="513.1111111111111" type="curve"/>
      <point x="97.71111111111111" y="430.0888888888889" type="line"/>
      <point x="127.6222222222222" y="448.6222222222222"/>
      <point x="203.6222222222222" y="470.73333333333335"/>
      <point x="266.9111111111111" y="470.73333333333335" type="curve" smooth="yes"/>
      <point x="330.4888888888889" y="470.73333333333335"/>
      <point x="365.82222222222225" y="455.44444444444446"/>
      <point x="365.82222222222225" y="389.8666666666667" type="curve" smooth="yes"/>
      <point x="365.82222222222225" y="83.0" type="line"/>
      <point x="372.64444444444445" y="83.0" type="line"/>
      <point x="372.64444444444445" y="0.0" type="line"/>
    </contour>
  </outline>
</glyph>
<glyph name="b" format="2">
  <advance width="612.1777777777778"/>
  <unicode hex="0062"/>
  <anchor x="306.0888888888889" y="0.0" name="bottom"/>
  <anchor x="321.7111111111111" y="-83.0" name="btm"/>
  <anchor x="371.17777777777775" y="830.1777777777778" name="top"/>
  <outline>
    <contour>
      <point x="81.17777777777778" y="811.0" type="line"/>
      <point x="81.17777777777778" y="31.0" type="line"/>
      <point x="196.17777777777775" y="81.71111111111111" type="line"/>
      <point x="196.17777777777775" y="483.0" type="line"/>
      <point x="191.99999999999997" y="486.0" type="line"/>
      <point x="196.17777777777775" y="584.0222222222222" type="line"/>
      <point x="196.17777777777775" y="811.0" type="line"/>
    </contour>
    <contour>
      <point x="283.2888888888889" y="-9.355555555555554" type="curve" smooth="yes"/>
      <point x="453.0" y="-9.355555555555554"/>
      <point x="566.0666666666666" y="118.11111111111111"/>
      <point x="566.0666666666666" y="299.0" type="curve" smooth="yes"/>
      <point x="566.0666666666666" y="479.0"/>
      <point x="463.7111111111111" y="564.0"/>
      <point x="345.7111111111111" y="564.0" type="curve" smooth="yes"/>
      <point x="244.88888888888886" y="564.0"/>
      <point x="201.17777777777775" y="512.7111111111111"/>
      <point x="178.17777777777775" y="488.5333333333333" type="curve"/>
      <point x="196.17777777777775" y="431.6222222222222" type="line"/>
      <point x="219.99999999999997" y="449.8"/>
      <point x="261.64444444444445" y="474.84444444444443"/>
      <point x="313.5111111111111" y="474.84444444444443" type="curve" smooth="yes"/>
      <point x="399.2444444444444" y="474.84444444444443"/>
      <point x="449.0" y="417.2888888888889"/>
      <point x="448.0" y="284.53333333333336" type="curve" smooth="yes"/>
      <point x="446.1777777777778" y="148.37777777777777"/>
      <point x="380.6666666666667" y="74.26666666666665"/>
      <point x="294.5111111111111" y="74.26666666666665" type="curve" smooth="yes"/>
      <point x="247.39999999999998" y="74.26666666666665"/>
      <point x="214.1111111111111" y="81.08888888888887"/>
      <point x="196.17777777777775" y="94.08888888888887" type="curve"/>
      <point x="81.17777777777778" y="31.0" type="line"/>
      <point x="101.46666666666667" y="18.177777777777777"/>
      <point x="201.84444444444443" y="-9.355555555555554"/>
    </contour>
  </outline>
</glyph>
<glyph name="c" format="2">
  <advance width="492.55555555555554"/>
  <unicode hex="0063"/>
  <anchor x="246.77777777777777" y="0.0" name="bottom"/>
  <anchor x="280.4888888888889" y="-83.0" name="btm"/>
  <anchor x="301.1333333333333" y="830.1777777777778" name="top"/>
  <outline>
    <contour>
      <point x="46.82222222222222" y="271.8222222222222" type="curve" smooth="yes"/>
      <point x="46.82222222222222" y="112.82222222222222"/>
      <point x="134.64444444444445" y="-8.0"/>
      <point x="294.4888888888889" y="-8.0" type="curve" smooth="yes"/>
      <point x="364.4888888888889" y="-8.0"/>
      <point x="431.4888888888889" y="13.177777777777777"/>
      <point x="465.4888888888889" y="45.355555555555554" type="curve"/>
      <point x="443.4888888888889" y="111.68888888888887" type="line"/>
      <point x="419.02222222222224" y="97.04444444444442"/>
      <point x="367.73333333333335" y="80.46666666666664"/>
      <point x="312.6222222222222" y="80.46666666666664" type="curve" smooth="yes"/>
      <point x="224.57777777777775" y="80.46666666666664"/>
      <point x="154.5333333333333" y="153.55555555555554"/>
      <point x="159.35555555555553" y="291.8222222222222" type="curve" smooth="yes"/>
      <point x="163.99999999999997" y="422.55555555555554"/>
      <point x="241.46666666666664" y="473.7111111111111"/>
      <point x="316.15555555555557" y="473.7111111111111" type="curve" smooth="yes"/>
      <point x="372.26666666666665" y="473.7111111111111"/>
      <point x="409.84444444444443" y="464.24444444444447"/>
      <point x="438.4888888888889" y="445.1333333333333" type="curve"/>
      <point x="455.84444444444443" y="536.0" type="line"/>
      <point x="438.4888888888889" y="547.5333333333333"/>
      <point x="387.4222222222222" y="564.0"/>
      <point x="317.4222222222222" y="564.0" type="curve" smooth="yes"/>
      <point x="136.64444444444445" y="564.0"/>
      <point x="46.82222222222222" y="436.8222222222222"/>
    </contour>
  </outline>
</glyph>
<glyph name="d" format="2">
  <advance width="612.1777777777778"/>
  <unicode hex="0064"/>
  <anchor x="306.0888888888889" y="0.0" name="bottom"/>
  <anchor x="299.3777777777778" y="-83.0" name="btm"/>
  <anchor x="306.0888888888889" y="279.0" name="center"/>
  <anchor x="180.6222222222222" y="830.1777777777778" name="top"/>
  <anchor x="592.1777777777778" y="557.0" name="topright"/>
  <outline>
    <contour>
      <point x="422.2444444444444" y="0.0" type="line"/>
      <point x="531.0" y="0.0" type="line"/>
      <point x="531.0" y="812.8222222222222" type="line"/>
      <point x="415.8222222222222" y="812.8222222222222" type="line"/>
      <point x="415.8222222222222" y="584.0222222222222" type="line"/>
      <point x="420.0" y="473.9111111111111" type="line"/>
      <point x="415.8222222222222" y="470.9111111111111" type="line"/>
      <point x="415.8222222222222" y="77.0" type="line"/>
      <point x="422.2444444444444" y="74.11111111111111" type="line"/>
    </contour>
    <contour>
      <point x="266.4666666666667" y="-8.0" type="curve" smooth="yes"/>
      <point x="367.2888888888889" y="-8.0"/>
      <point x="411.1777777777778" y="43.46666666666667"/>
      <point x="434.8222222222222" y="68.28888888888889" type="curve"/>
      <point x="416.0" y="125.37777777777777" type="line"/>
      <point x="393.0" y="107.73333333333332"/>
      <point x="350.53333333333336" y="83.04444444444442"/>
      <point x="298.6666666666667" y="83.04444444444442" type="curve" smooth="yes"/>
      <point x="212.9333333333333" y="83.04444444444442"/>
      <point x="163.17777777777775" y="140.77777777777777"/>
      <point x="164.99999999999997" y="272.1777777777778" type="curve" smooth="yes"/>
      <point x="165.99999999999997" y="409.15555555555557"/>
      <point x="232.5111111111111" y="480.6666666666667"/>
      <point x="317.6666666666667" y="480.6666666666667" type="curve" smooth="yes"/>
      <point x="363.1777777777778" y="480.6666666666667"/>
      <point x="396.0" y="474.55555555555554"/>
      <point x="416.0" y="457.26666666666665" type="curve"/>
      <point x="456.7555555555556" y="531.0" type="line"/>
      <point x="443.93333333333334" y="542.0"/>
      <point x="394.64444444444445" y="564.0"/>
      <point x="326.0" y="564.0" type="curve" smooth="yes"/>
      <point x="157.64444444444445" y="564.0"/>
      <point x="46.111111111111114" y="439.24444444444447"/>
      <point x="46.111111111111114" y="258.35555555555555" type="curve" smooth="yes"/>
      <point x="46.111111111111114" y="77.53333333333333"/>
      <point x="149.2888888888889" y="-8.0"/>
    </contour>
  </outline>
</glyph>
<glyph name="e" format="2">
  <advance width="553.8666666666667"/>
  <unicode hex="0065"/>
  <anchor x="277.02222222222224" y="0.0" name="bottom"/>
  <anchor x="297.6666666666667" y="-83.0" name="btm"/>
  <anchor x="402.0" y="25.0" name="ogonek"/>
  <anchor x="295.2" y="830.1777777777778" name="top"/>
  <outline>
    <contour>
      <point x="296.6666666666667" y="-8.0" type="curve" smooth="yes"/>
      <point x="367.22222222222223" y="-8.0"/>
      <point x="451.0444444444444" y="13.066666666666665"/>
      <point x="488.0444444444444" y="43.06666666666666" type="curve"/>
      <point x="466.3333333333333" y="109.33333333333331" type="line"/>
      <point x="438.8" y="92.51111111111109"/>
      <point x="364.8" y="78.68888888888887"/>
      <point x="327.44444444444446" y="78.68888888888887" type="curve" smooth="yes"/>
      <point x="236.79999999999998" y="78.68888888888887"/>
      <point x="166.64444444444442" y="120.39999999999998"/>
      <point x="161.17777777777775" y="246.06666666666666" type="curve" smooth="yes"/>
      <point x="154.88888888888886" y="424.8"/>
      <point x="215.15555555555554" y="482.31111111111113"/>
      <point x="293.2" y="482.31111111111113" type="curve" smooth="yes"/>
      <point x="385.8666666666667" y="482.31111111111113"/>
      <point x="403.5777777777778" y="406.35555555555555"/>
      <point x="398.5777777777778" y="326.0" type="curve"/>
      <point x="124.02222222222221" y="326.0" type="line"/>
      <point x="114.02222222222221" y="252.6888888888889" type="line"/>
      <point x="501.68888888888887" y="252.6888888888889" type="line"/>
      <point x="506.5111111111111" y="277.68888888888887"/>
      <point x="506.8666666666667" y="311.4"/>
      <point x="506.8666666666667" y="352.5777777777778" type="curve" smooth="yes"/>
      <point x="503.22222222222223" y="496.4888888888889"/>
      <point x="410.73333333333335" y="565.8222222222222"/>
      <point x="299.02222222222224" y="564.0" type="curve" smooth="yes"/>
      <point x="134.6" y="562.1777777777778"/>
      <point x="46.82222222222222" y="441.1777777777778"/>
      <point x="46.82222222222222" y="279.1777777777778" type="curve" smooth="yes"/>
      <point x="46.82222222222222" y="99.17777777777778"/>
      <point x="136.53333333333333" y="-8.0"/>
    </contour>
  </outline>
</glyph>
<glyph name="f" format="2">
  <advance width="400.08889"/>
  <unicode hex="0066"/>
  <anchor x="200.133" y="0.0" name="bottom"/>
  <anchor x="189.844" y="-83.0" name="btm"/>
  <anchor x="179.378" y="1002.222" name="top"/>
  <outline>
    <contour>
      <point x="120.111" y="0.0" type="line"/>
      <point x="235.933" y="0.0" type="line"/>
      <point x="235.933" y="471.556" type="line"/>
      <point x="371.689" y="471.556" type="line"/>
      <point x="371.689" y="557.0" type="line"/>
      <point x="235.933" y="557.0" type="line"/>
      <point x="235.933" y="626.156" type="line" smooth="yes"/>
      <point x="235.933" y="696.622"/>
      <point x="268.756" y="731.267"/>
      <point x="314.756" y="731.267" type="curve" smooth="yes"/>
      <point x="357.689" y="731.267"/>
      <point x="378.222" y="728.089"/>
      <point x="397.333" y="721.911" type="curve"/>
      <point x="397.333" y="811.0" type="line"/>
      <point x="386.978" y="814.178"/>
      <point x="355.311" y="821.178"/>
      <point x="323.178" y="821.178" type="curve" smooth="yes"/>
      <point x="232.111" y="821.178"/>
      <point x="120.111" y="771.356"/>
      <point x="120.111" y="605.889" type="curve" smooth="yes"/>
      <point x="120.111" y="557.0" type="line"/>
      <point x="37.533" y="535.889" type="line"/>
      <point x="37.533" y="471.556" type="line"/>
      <point x="120.111" y="471.556" type="line"/>
    </contour>
  </outline>
</glyph>
<glyph name="g" format="2">
  <advance width="601.6444444444444"/>
  <unicode hex="0067"/>
  <anchor x="300.9111111111111" y="-273.0" name="bottom"/>
  <anchor x="282.3333333333333" y="830.1777777777778" name="top"/>
  <outline>
    <contour>
      <point x="290.0888888888889" y="-252.0" type="curve" smooth="yes"/>
      <point x="438.6222222222222" y="-253.17777777777778"/>
      <point x="564.3555555555555" y="-182.82222222222222"/>
      <point x="564.3555555555555" y="-67.26666666666668" type="curve" smooth="yes"/>
      <point x="564.3555555555555" y="10.266666666666655"/>
      <point x="529.7111111111111" y="90.2222222222222"/>
      <point x="357.5777777777778" y="90.2222222222222" type="curve" smooth="yes"/>
      <point x="258.0" y="90.2222222222222" type="line" smooth="yes"/>
      <point x="211.99999999999997" y="90.2222222222222"/>
      <point x="194.46666666666664" y="101.15555555555554"/>
      <point x="194.46666666666664" y="141.55555555555554" type="curve" smooth="yes"/>
      <point x="194.46666666666664" y="167.66666666666666"/>
      <point x="212.39999999999998" y="193.3111111111111"/>
      <point x="236.57777777777775" y="202.95555555555555" type="curve"/>
      <point x="165.2" y="221.06666666666666" type="line"/>
      <point x="115.04444444444445" y="192.24444444444444"/>
      <point x="88.28888888888889" y="147.53333333333333"/>
      <point x="87.46666666666667" y="109.35555555555555" type="curve" smooth="yes"/>
      <point x="87.28888888888889" y="74.82222222222222"/>
      <point x="98.53333333333333" y="35.28888888888889"/>
      <point x="149.82222222222222" y="17.53333333333333" type="curve" smooth="yes"/>
      <point x="157.7111111111111" y="15.355555555555554"/>
      <point x="164.53333333333333" y="9.0"/>
      <point x="173.24444444444444" y="6.822222222222223" type="curve" smooth="yes"/>
      <point x="196.17777777777778" y="1.1777777777777774"/>
      <point x="225.11111111111111" y="0.0"/>
      <point x="262.6222222222222" y="0.0" type="curve" smooth="yes"/>
      <point x="317.77777777777777" y="0.0" type="line" smooth="yes"/>
      <point x="429.77777777777777" y="0.0"/>
      <point x="453.64444444444445" y="-32.93333333333334"/>
      <point x="453.64444444444445" y="-91.51111111111112" type="curve" smooth="yes"/>
      <point x="453.64444444444445" y="-148.04444444444445"/>
      <point x="379.73333333333335" y="-175.9777777777778"/>
      <point x="294.44444444444446" y="-175.9777777777778" type="curve" smooth="yes"/>
      <point x="200.5111111111111" y="-175.9777777777778"/>
      <point x="164.75555555555553" y="-137.95555555555558"/>
      <point x="164.75555555555553" y="-72.44444444444446" type="curve" smooth="yes"/>
      <point x="164.75555555555553" y="-14.33333333333334"/>
      <point x="199.5111111111111" y="2.7111111111111095"/>
      <point x="220.6222222222222" y="21.822222222222223" type="curve"/>
      <point x="146.6" y="32.53333333333333" type="line"/>
      <point x="104.51111111111112" y="16.177777777777777"/>
      <point x="52.22222222222223" y="-25.53333333333333"/>
      <point x="52.22222222222223" y="-88.17777777777778" type="curve" smooth="yes"/>
      <point x="52.22222222222223" y="-198.93333333333334"/>
      <point x="143.46666666666667" y="-251.64444444444445"/>
    </contour>
    <contour>
      <point x="281.73333333333335" y="190.13333333333333" type="curve" smooth="yes"/>
      <point x="413.88888888888886" y="190.13333333333333"/>
      <point x="509.8222222222222" y="256.4222222222222"/>
      <point x="509.8222222222222" y="378.8888888888889" type="curve" smooth="yes"/>
      <point x="509.8222222222222" y="508.7111111111111"/>
      <point x="407.7111111111111" y="566.8222222222222"/>
      <point x="283.73333333333335" y="564.0" type="curve" smooth="yes"/>
      <point x="155.82222222222222" y="562.1777777777778"/>
      <point x="60.82222222222222" y="503.06666666666666"/>
      <point x="60.82222222222222" y="373.06666666666666" type="curve" smooth="yes"/>
      <point x="60.82222222222222" y="264.4888888888889"/>
      <point x="155.88888888888889" y="190.13333333333333"/>
    </contour>
    <contour>
      <point x="284.55555555555554" y="265.0444444444444" type="curve" smooth="yes"/>
      <point x="206.9333333333333" y="265.0444444444444"/>
      <point x="174.1111111111111" y="316.31111111111113"/>
      <point x="174.1111111111111" y="377.5333333333333" type="curve" smooth="yes"/>
      <point x="174.1111111111111" y="466.6222222222222"/>
      <point x="227.97777777777776" y="488.0888888888889"/>
      <point x="289.9111111111111" y="488.0888888888889" type="curve" smooth="yes"/>
      <point x="361.9555555555556" y="488.0888888888889"/>
      <point x="397.06666666666666" y="448.68888888888887"/>
      <point x="397.06666666666666" y="375.53333333333336" type="curve" smooth="yes"/>
      <point x="397.06666666666666" y="290.0888888888889"/>
      <point x="352.8888888888889" y="265.0444444444444"/>
    </contour>
    <contour>
      <point x="448.4" y="469.84444444444443" type="line"/>
      <point x="588.7111111111111" y="469.84444444444443" type="line"/>
      <point x="588.7111111111111" y="560.2888888888889" type="line"/>
      <point x="532.4666666666667" y="560.2888888888889" type="line" smooth="yes"/>
      <point x="480.4" y="560.2888888888889"/>
      <point x="431.4222222222222" y="534.8666666666667"/>
      <point x="416.9555555555555" y="516.4" type="curve"/>
    </contour>
  </outline>
</glyph>
<glyph name="h" format="2">
  <advance width="634.5111111111111"/>
  <unicode hex="0068"/>
  <anchor x="317.6666666666667" y="0.0" name="bottom"/>
  <anchor x="328.35555555555555" y="-83.0" name="btm"/>
  <anchor x="317.6666666666667" y="492.0" name="center"/>
  <anchor x="143.37777777777777" y="869.0" name="top"/>
  <outline>
    <contour>
      <point x="85.28888888888889" y="0.0" type="line"/>
      <point x="200.28888888888886" y="0.0" type="line"/>
      <point x="200.28888888888886" y="418.84444444444443" type="line"/>
      <point x="243.33333333333331" y="451.31111111111113"/>
      <point x="297.9111111111111" y="467.4222222222222"/>
      <point x="333.31111111111113" y="468.24444444444447" type="curve" smooth="yes"/>
      <point x="414.4" y="471.8888888888889"/>
      <point x="437.0444444444445" y="432.4888888888889"/>
      <point x="437.0444444444445" y="341.4888888888889" type="curve" smooth="yes"/>
      <point x="437.0444444444445" y="0.0" type="line"/>
      <point x="552.2222222222222" y="0.0" type="line"/>
      <point x="552.2222222222222" y="340.4222222222222" type="line" smooth="yes"/>
      <point x="552.2222222222222" y="503.24444444444447"/>
      <point x="500.0888888888889" y="568.3555555555556"/>
      <point x="378.73333333333335" y="565.1777777777778" type="curve" smooth="yes"/>
      <point x="307.3333333333333" y="563.1777777777778"/>
      <point x="229.2222222222222" y="528.6444444444444"/>
      <point x="188.9333333333333" y="496.46666666666664" type="curve"/>
      <point x="194.57777777777775" y="483.2888888888889" type="line"/>
      <point x="200.28888888888886" y="584.0222222222222" type="line"/>
      <point x="200.28888888888886" y="812.8222222222222" type="line"/>
      <point x="85.28888888888889" y="812.8222222222222" type="line"/>
    </contour>
  </outline>
</glyph>
<glyph name="k" format="2">
  <advance width="574.4"/>
  <unicode hex="006B"/>
  <anchor x="287.2" y="0.0" name="bottom"/>
  <anchor x="300.73333333333335" y="-83.0" name="btm"/>
  <anchor x="334.4888888888889" y="830.0" name="top"/>
  <outline>
    <contour>
      <point x="545.6" y="557.0" type="line"/>
      <point x="411.2444444444444" y="557.0" type="line"/>
      <point x="165.5333333333333" y="284.3333333333333" type="line"/>
      <point x="193.46666666666664" y="265.3333333333333" type="line"/>
      <point x="196.99999999999997" y="386.5555555555555" type="line"/>
      <point x="196.99999999999997" y="811.0" type="line"/>
      <point x="82.0" y="811.0" type="line"/>
      <point x="82.0" y="331.0" type="line"/>
      <point x="82.0" y="0.0" type="line"/>
      <point x="196.99999999999997" y="0.0" type="line"/>
      <point x="196.99999999999997" y="108.11111111111111" type="line"/>
      <point x="194.8222222222222" y="204.33333333333334" type="line"/>
      <point x="184.88888888888886" y="177.26666666666668" type="line"/>
    </contour>
    <contour>
      <point x="251.86666666666665" y="274.2" type="line"/>
      <point x="439.2888888888889" y="0.0" type="line"/>
      <point x="570.3555555555555" y="0.0" type="line"/>
      <point x="329.84444444444443" y="348.77777777777777" type="line"/>
    </contour>
  </outline>
</glyph>
<glyph name="l" format="2">
  <advance width="301.31111111111113"/>
  <unicode hex="006C"/>
  <anchor x="151.06666666666666" y="0.0" name="bottom"/>
  <anchor x="143.48888888888888" y="-83.0" name="btm"/>
  <anchor x="151.06666666666666" y="492.0" name="center"/>
  <anchor x="151.88888888888889" y="880.3111111111111" name="top"/>
  <anchor x="281.31111111111113" y="983.0" name="topright"/>
  <outline>
    <contour>
      <point x="93.15555555555557" y="0.0" type="line"/>
      <point x="208.97777777777776" y="0.0" type="line"/>
      <point x="208.97777777777776" y="812.8222222222222" type="line"/>
      <point x="93.15555555555557" y="812.8222222222222" type="line"/>
    </contour>
  </outline>
</glyph>
<glyph name="m" format="2">
  <advance width="969.4"/>
  <unicode hex="006D"/>
  <anchor x="485.2" y="0.0" name="bottom"/>
  <anchor x="491.1333333333333" y="-83.0" name="btm"/>
  <anchor x="488.4888888888889" y="830.0" name="top"/>
  <outline>
    <contour>
      <point x="85.82222222222222" y="0.0" type="line"/>
      <point x="200.8222222222222" y="0.0" type="line"/>
      <point x="200.8222222222222" y="418.84444444444443" type="line"/>
      <point x="243.86666666666665" y="451.31111111111113"/>
      <point x="298.6222222222222" y="467.4222222222222"/>
      <point x="333.2" y="468.4222222222222" type="curve" smooth="yes"/>
      <point x="414.2888888888889" y="471.8888888888889"/>
      <point x="431.2888888888889" y="432.4888888888889"/>
      <point x="431.2888888888889" y="341.4888888888889" type="curve" smooth="yes"/>
      <point x="431.2888888888889" y="0.0" type="line"/>
      <point x="546.2888888888889" y="0.0" type="line"/>
      <point x="546.2888888888889" y="348.2888888888889" type="line" smooth="yes"/>
      <point x="546.2888888888889" y="511.2888888888889"/>
      <point x="499.5111111111111" y="568.3555555555556"/>
      <point x="379.8666666666667" y="565.1777777777778" type="curve" smooth="yes"/>
      <point x="307.75555555555553" y="563.1777777777778"/>
      <point x="231.1111111111111" y="525.0"/>
      <point x="189.8222222222222" y="497.0" type="curve"/>
      <point x="189.28888888888886" y="556.1777777777778" type="line"/>
      <point x="85.82222222222222" y="556.1777777777778" type="line"/>
    </contour>
    <contour>
      <point x="540.4666666666667" y="418.6666666666667" type="line"/>
      <point x="580.8" y="448.24444444444447"/>
      <point x="634.8444444444444" y="467.4222222222222"/>
      <point x="673.8444444444444" y="468.4222222222222" type="curve" smooth="yes"/>
      <point x="756.2888888888889" y="471.8888888888889"/>
      <point x="771.2888888888889" y="432.6666666666667"/>
      <point x="771.2888888888889" y="341.6666666666667" type="curve" smooth="yes"/>
      <point x="771.2888888888889" y="0.0" type="line"/>
      <point x="887.1111111111111" y="0.0" type="line"/>
      <point x="887.1111111111111" y="349.17777777777775" type="line" smooth="yes"/>
      <point x="887.1111111111111" y="512.1777777777778"/>
      <point x="835.9111111111112" y="567.0"/>
      <point x="716.8" y="565.1777777777778" type="curve" smooth="yes"/>
      <point x="638.2" y="563.5333333333333"/>
      <point x="554.9111111111112" y="523.9333333333333"/>
      <point x="515.8666666666667" y="491.35555555555555" type="curve"/>
    </contour>
  </outline>
</glyph>
<glyph name="n" format="2">
  <advance width="631.2222222222222"/>
  <unicode hex="006E"/>
  <anchor x="316.02222222222224" y="0.0" name="bottom"/>
  <anchor x="321.1333333333333" y="-83.0" name="btm"/>
  <anchor x="320.73333333333335" y="830.0" name="top"/>
  <outline>
    <contour>
      <point x="85.82222222222222" y="0.0" type="line"/>
      <point x="200.8222222222222" y="0.0" type="line"/>
      <point x="200.8222222222222" y="418.84444444444443" type="line"/>
      <point x="243.86666666666665" y="451.31111111111113"/>
      <point x="297.44444444444446" y="468.24444444444447"/>
      <point x="333.02222222222224" y="469.24444444444447" type="curve" smooth="yes"/>
      <point x="415.93333333333334" y="473.53333333333336"/>
      <point x="433.1111111111111" y="434.31111111111113"/>
      <point x="433.1111111111111" y="341.4888888888889" type="curve" smooth="yes"/>
      <point x="433.1111111111111" y="0.0" type="line"/>
      <point x="548.9333333333333" y="0.0" type="line"/>
      <point x="548.9333333333333" y="347.35555555555555" type="line" smooth="yes"/>
      <point x="548.9333333333333" y="510.35555555555555"/>
      <point x="501.15555555555557" y="568.3555555555556"/>
      <point x="381.5111111111111" y="565.1777777777778" type="curve" smooth="yes"/>
      <point x="309.4" y="563.1777777777778"/>
      <point x="231.1111111111111" y="525.0"/>
      <point x="189.8222222222222" y="497.0" type="curve"/>
      <point x="189.28888888888886" y="556.1777777777778" type="line"/>
      <point x="85.82222222222222" y="556.1777777777778" type="line"/>
    </contour>
  </outline>
</glyph>
<glyph name="o" format="2">
  <advance width="599.1111111111111"/>
  <unicode hex="006F"/>
  <anchor x="299.55555555555554" y="0.0" name="bottom"/>
  <anchor x="296.55555555555554" y="-83.0" name="btm"/>
  <anchor x="299.55555555555554" y="279.0" name="center"/>
  <anchor x="323.2" y="25.0" name="ogonek"/>
  <anchor x="304.3777777777778" y="830.0" name="top"/>
  <anchor x="579.1111111111111" y="557.0" name="topright"/>
  <outline>
    <contour>
      <point x="294.55555555555554" y="-8.0" type="curve" smooth="yes"/>
      <point x="441.0444444444444" y="-8.0"/>
      <point x="549.4666666666667" y="88.0"/>
      <point x="552.4666666666667" y="267.0" type="curve" smooth="yes"/>
      <point x="554.4666666666667" y="425.0"/>
      <point x="485.93333333333334" y="564.0"/>
      <point x="304.55555555555554" y="564.0" type="curve" smooth="yes"/>
      <point x="158.88888888888889" y="564.0"/>
      <point x="48.82222222222222" y="469.0"/>
      <point x="46.644444444444446" y="290.0" type="curve" smooth="yes"/>
      <point x="44.644444444444446" y="131.0"/>
      <point x="113.35555555555555" y="-8.0"/>
    </contour>
    <contour>
      <point x="297.55555555555554" y="73.68888888888887" type="curve" smooth="yes"/>
      <point x="205.39999999999998" y="75.51111111111109"/>
      <point x="164.35555555555553" y="172.55555555555554"/>
      <point x="164.35555555555553" y="288.46666666666664" type="curve" smooth="yes"/>
      <point x="164.35555555555553" y="412.9111111111111"/>
      <point x="210.68888888888887" y="483.31111111111113"/>
      <point x="301.55555555555554" y="481.4888888888889" type="curve" smooth="yes"/>
      <point x="394.7111111111111" y="480.4888888888889"/>
      <point x="435.5777777777778" y="387.0888888888889"/>
      <point x="435.5777777777778" y="271.53333333333336" type="curve" smooth="yes"/>
      <point x="435.5777777777778" y="146.37777777777777"/>
      <point x="389.24444444444447" y="71.86666666666665"/>
    </contour>
  </outline>
</glyph>
<glyph name="p" format="2">
  <advance width="612.1777777777778"/>
  <unicode hex="0070"/>
  <anchor x="306.0888888888889" y="0.0" name="bottom"/>
  <anchor x="317.5333333333333" y="-83.0" name="btm"/>
  <anchor x="349.46666666666664" y="830.0" name="top"/>
  <outline>
    <contour>
      <point x="81.17777777777778" y="-247.0" type="line"/>
      <point x="196.17777777777775" y="-247.0" type="line"/>
      <point x="196.17777777777775" y="-68.0" type="line"/>
      <point x="194.99999999999997" y="22.933333333333337" type="line"/>
      <point x="196.17777777777775" y="45.84444444444442" type="line"/>
      <point x="196.17777777777775" y="477.0" type="line"/>
      <point x="186.17777777777775" y="489.0" type="line"/>
      <point x="186.17777777777775" y="557.0" type="line"/>
      <point x="81.17777777777778" y="557.0" type="line"/>
    </contour>
    <contour>
      <point x="286.35555555555555" y="-8.0" type="curve" smooth="yes"/>
      <point x="455.35555555555555" y="-8.0"/>
      <point x="566.0666666666666" y="118.11111111111111"/>
      <point x="566.0666666666666" y="299.0" type="curve" smooth="yes"/>
      <point x="566.0666666666666" y="479.0"/>
      <point x="463.7111111111111" y="564.0"/>
      <point x="345.7111111111111" y="564.0" type="curve" smooth="yes"/>
      <point x="244.88888888888886" y="564.0"/>
      <point x="201.17777777777775" y="512.7111111111111"/>
      <point x="178.17777777777775" y="488.5333333333333" type="curve"/>
      <point x="196.17777777777775" y="431.6222222222222" type="line"/>
      <point x="219.99999999999997" y="449.8"/>
      <point x="261.64444444444445" y="474.84444444444443"/>
      <point x="313.5111111111111" y="474.84444444444443" type="curve" smooth="yes"/>
      <point x="399.2444444444444" y="474.84444444444443"/>
      <point x="449.0" y="417.2888888888889"/>
      <point x="448.0" y="284.53333333333336" type="curve" smooth="yes"/>
      <point x="446.1777777777778" y="148.9111111111111"/>
      <point x="380.6666666666667" y="75.15555555555554"/>
      <point x="294.5111111111111" y="75.15555555555554" type="curve" smooth="yes"/>
      <point x="249.17777777777775" y="75.15555555555554"/>
      <point x="216.99999999999997" y="81.79999999999998"/>
      <point x="196.17777777777775" y="99.79999999999998" type="curve"/>
      <point x="156.2444444444444" y="26.0" type="line"/>
      <point x="169.06666666666663" y="15.0"/>
      <point x="217.5333333333333" y="-8.0"/>
    </contour>
  </outline>
</glyph>
<glyph name="q" format="2">
  <advance width="612.1777777777778"/>
  <unicode hex="0071"/>
  <anchor x="306.0888888888889" y="0.0" name="bottom"/>
  <anchor x="291.64444444444445" y="-83.0" name="btm"/>
  <anchor x="277.77777777777777" y="830.1777777777778" name="top"/>
  <outline>
    <contour>
      <point x="416.8222222222222" y="-68.0" type="line"/>
      <point x="416.8222222222222" y="-247.0" type="line"/>
      <point x="531.8222222222222" y="-247.0" type="line"/>
      <point x="531.8222222222222" y="557.0" type="line"/>
      <point x="431.06666666666666" y="537.8222222222222" type="line"/>
      <point x="427.8222222222222" y="489.0" type="line"/>
      <point x="416.8222222222222" y="477.0" type="line"/>
      <point x="416.8222222222222" y="98.0" type="line"/>
      <point x="419.0" y="53.0" type="line"/>
    </contour>
    <contour>
      <point x="266.4666666666667" y="-8.0" type="curve" smooth="yes"/>
      <point x="367.2888888888889" y="-8.0"/>
      <point x="412.0" y="43.46666666666667"/>
      <point x="434.8222222222222" y="68.28888888888889" type="curve"/>
      <point x="416.8222222222222" y="125.37777777777777" type="line"/>
      <point x="393.8222222222222" y="107.73333333333332"/>
      <point x="350.53333333333336" y="83.04444444444442"/>
      <point x="298.6666666666667" y="83.04444444444442" type="curve" smooth="yes"/>
      <point x="212.9333333333333" y="83.04444444444442"/>
      <point x="163.17777777777775" y="140.77777777777777"/>
      <point x="164.99999999999997" y="272.1777777777778" type="curve" smooth="yes"/>
      <point x="165.99999999999997" y="409.15555555555557"/>
      <point x="232.5111111111111" y="480.6666666666667"/>
      <point x="317.6666666666667" y="480.6666666666667" type="curve" smooth="yes"/>
      <point x="363.1777777777778" y="480.6666666666667"/>
      <point x="396.0" y="474.55555555555554"/>
      <point x="416.8222222222222" y="457.26666666666665" type="curve"/>
      <point x="467.6" y="531.0" type="line"/>
      <point x="455.6" y="542.0"/>
      <point x="394.64444444444445" y="564.0"/>
      <point x="326.0" y="564.0" type="curve" smooth="yes"/>
      <point x="157.64444444444445" y="564.0"/>
      <point x="46.111111111111114" y="439.24444444444447"/>
      <point x="46.111111111111114" y="258.35555555555555" type="curve" smooth="yes"/>
      <point x="46.111111111111114" y="77.53333333333333"/>
      <point x="149.2888888888889" y="-8.0"/>
    </contour>
  </outline>
</glyph>
<glyph name="r" format="2">
  <advance width="406.5777777777778"/>
  <unicode hex="0072"/>
  <anchor x="203.37777777777777" y="0.0" name="bottom"/>
  <anchor x="136.2" y="-83.0" name="btm"/>
  <anchor x="242.55555555555554" y="830.1777777777778" name="top"/>
  <outline>
    <contour>
      <point x="189.33333333333331" y="409.40000000000003" type="line"/>
      <point x="212.15555555555554" y="432.40000000000003"/>
      <point x="256.44444444444446" y="463.0"/>
      <point x="317.75555555555553" y="463.0" type="curve" smooth="yes"/>
      <point x="362.68888888888887" y="463.0"/>
      <point x="380.3333333333333" y="455.0"/>
      <point x="389.5111111111111" y="449.82222222222225" type="curve"/>
      <point x="389.5111111111111" y="558.1777777777778" type="line"/>
      <point x="380.5111111111111" y="563.1777777777778"/>
      <point x="362.22222222222223" y="565.1777777777778"/>
      <point x="337.46666666666664" y="565.1777777777778" type="curve" smooth="yes"/>
      <point x="269.0444444444444" y="565.1777777777778"/>
      <point x="196.75555555555553" y="515.8222222222222"/>
      <point x="182.04444444444442" y="484.97777777777776" type="curve"/>
    </contour>
    <contour>
      <point x="80.22222222222223" y="0.0" type="line"/>
      <point x="195.2222222222222" y="0.0" type="line"/>
      <point x="195.2222222222222" y="443.0" type="line"/>
      <point x="186.2222222222222" y="484.97777777777776" type="line"/>
      <point x="178.2222222222222" y="556.1777777777778" type="line"/>
      <point x="80.22222222222223" y="556.1777777777778" type="line"/>
    </contour>
  </outline>
</glyph>
<glyph name="s" format="2">
  <advance width="483.22222"/>
  <unicode hex="0073"/>
  <anchor x="242.022" y="0.0" name="bottom"/>
  <anchor x="244.556" y="-83.0" name="btm"/>
  <anchor x="247.556" y="830.0" name="top"/>
  <outline>
    <contour>
      <point x="55.178" y="32.533" type="line"/>
      <point x="81.889" y="13.356"/>
      <point x="158.311" y="-8.0"/>
      <point x="235.2" y="-8.0" type="curve" smooth="yes"/>
      <point x="358.511" y="-8.0"/>
      <point x="435.289" y="47.178"/>
      <point x="435.289" y="150.667" type="curve" smooth="yes"/>
      <point x="435.289" y="243.356"/>
      <point x="355.289" y="292.0"/>
      <point x="273.533" y="323.6" type="curve" smooth="yes"/>
      <point x="203.044" y="351.422"/>
      <point x="164.356" y="374.178"/>
      <point x="165.356" y="422.978" type="curve" smooth="yes"/>
      <point x="166.178" y="458.089"/>
      <point x="200.756" y="479.311"/>
      <point x="269.222" y="479.311" type="curve" smooth="yes"/>
      <point x="319.511" y="479.311"/>
      <point x="372.222" y="462.956"/>
      <point x="390.111" y="448.067" type="curve"/>
      <point x="406.933" y="535.467" type="line"/>
      <point x="390.222" y="544.822"/>
      <point x="333.222" y="564.0"/>
      <point x="263.267" y="564.0" type="curve" smooth="yes"/>
      <point x="149.889" y="564.0"/>
      <point x="59.822" y="515.756"/>
      <point x="58.0" y="417.156" type="curve" smooth="yes"/>
      <point x="57.178" y="326.467"/>
      <point x="119.844" y="274.4"/>
      <point x="210.333" y="237.933" type="curve" smooth="yes"/>
      <point x="277.356" y="211.111"/>
      <point x="326.4" y="185.467"/>
      <point x="326.4" y="141.956" type="curve" smooth="yes"/>
      <point x="326.4" y="100.556"/>
      <point x="291.822" y="76.867"/>
      <point x="227.711" y="77.689" type="curve" smooth="yes"/>
      <point x="156.711" y="78.511"/>
      <point x="86.356" y="107.044"/>
      <point x="71.178" y="118.4" type="curve"/>
    </contour>
  </outline>
</glyph>
<glyph name="t" format="2">
  <advance width="420.5111111111111"/>
  <unicode hex="0074"/>
  <anchor x="210.66666666666666" y="0.0" name="bottom"/>
  <anchor x="242.3111111111111" y="-83.0" name="btm"/>
  <anchor x="210.66666666666666" y="279.0" name="center"/>
  <anchor x="188.79999999999998" y="913.0" name="top"/>
  <anchor x="400.5111111111111" y="557.0" name="topright"/>
  <outline>
    <contour>
      <point x="243.0222222222222" y="-8.0" type="curve" smooth="yes"/>
      <point x="302.5777777777778" y="-8.0"/>
      <point x="369.0444444444444" y="16.066666666666663"/>
      <point x="399.3333333333333" y="39.24444444444444" type="curve"/>
      <point x="380.3333333333333" y="104.51111111111109" type="line"/>
      <point x="361.68888888888887" y="94.15555555555554"/>
      <point x="315.4" y="83.15555555555554"/>
      <point x="286.93333333333334" y="83.15555555555554" type="curve" smooth="yes"/>
      <point x="234.99999999999997" y="83.15555555555554"/>
      <point x="224.57777777777775" y="91.97777777777776"/>
      <point x="224.57777777777775" y="200.04444444444442" type="curve" smooth="yes"/>
      <point x="224.57777777777775" y="471.55555555555554" type="line"/>
      <point x="380.5111111111111" y="471.55555555555554" type="line"/>
      <point x="380.5111111111111" y="557.0" type="line"/>
      <point x="224.57777777777775" y="557.0" type="line"/>
      <point x="224.57777777777775" y="684.0" type="line"/>
      <point x="155.6" y="684.0" type="line"/>
      <point x="141.6" y="640.4222222222222"/>
      <point x="130.88888888888889" y="604.8888888888889"/>
      <point x="122.71111111111111" y="582.7111111111111" type="curve" smooth="yes"/>
      <point x="110.53333333333333" y="550.8888888888889"/>
      <point x="87.46666666666667" y="548.0"/>
      <point x="38.46666666666667" y="534.0" type="curve"/>
      <point x="38.46666666666667" y="471.55555555555554" type="line"/>
      <point x="109.57777777777778" y="471.55555555555554" type="line"/>
      <point x="109.57777777777778" y="138.86666666666665" type="line" smooth="yes"/>
      <point x="109.57777777777778" y="22.088888888888878"/>
      <point x="164.0888888888889" y="-8.0"/>
    </contour>
  </outline>
</glyph>
<glyph name="u" format="2">
  <advance width="616.57778"/>
  <unicode hex="0075"/>
  <anchor x="308.378" y="0.0" name="bottom"/>
  <anchor x="296.911" y="-83.0" name="btm"/>
  <anchor x="554.867" y="10.0" name="ogonek"/>
  <anchor x="313.378" y="830.0" name="top"/>
  <anchor x="596.578" y="557.0" name="topright"/>
  <outline>
    <contour>
      <point x="251.311" y="-8.0" type="curve" smooth="yes"/>
      <point x="311.422" y="-8.0"/>
      <point x="384.533" y="20.467"/>
      <point x="429.644" y="49.644" type="curve"/>
      <point x="428.289" y="72.044" type="line"/>
      <point x="428.289" y="32.511" type="line" smooth="yes"/>
      <point x="428.289" y="-3.822"/>
      <point x="447.044" y="-8.0"/>
      <point x="478.444" y="-8.0" type="curve" smooth="yes"/>
      <point x="530.933" y="-8.0" type="line"/>
      <point x="530.933" y="557.0" type="line"/>
      <point x="415.756" y="557.0" type="line"/>
      <point x="415.756" y="123.733" type="line"/>
      <point x="392.356" y="108.089"/>
      <point x="337.378" y="85.978"/>
      <point x="296.444" y="85.978" type="curve" smooth="yes"/>
      <point x="225.933" y="85.978"/>
      <point x="197.289" y="99.689"/>
      <point x="197.289" y="232.178" type="curve" smooth="yes"/>
      <point x="197.289" y="557.0" type="line"/>
      <point x="82.289" y="557.0" type="line"/>
      <point x="82.289" y="231.0" type="line" smooth="yes"/>
      <point x="82.289" y="88.0"/>
      <point x="106.289" y="-8.0"/>
    </contour>
  </outline>
</glyph>
<glyph name="v" format="2">
  <advance width="549.9333333333333"/>
  <unicode hex="0076"/>
  <anchor x="275.3777777777778" y="0.0" name="bottom"/>
  <anchor x="275.3777777777778" y="557.0" name="top"/>
  <outline>
    <contour>
      <point x="228.22222222222223" y="-8.0" type="line"/>
      <point x="327.2888888888889" y="-8.0" type="line"/>
      <point x="540.9333333333333" y="557.0" type="line"/>
      <point x="418.5777777777778" y="557.0" type="line"/>
      <point x="316.31111111111113" y="247.64444444444442" type="line"/>
      <point x="264.84444444444443" y="60.688888888888876" type="line"/>
      <point x="295.02222222222224" y="60.688888888888876" type="line"/>
      <point x="239.08888888888887" y="247.64444444444442" type="line"/>
      <point x="133.5333333333333" y="557.0" type="line"/>
      <point x="8.822222222222223" y="557.0" type="line"/>
    </contour>
  </outline>
</glyph>
<glyph name="w" format="2">
  <advance width="807.84444"/>
  <unicode hex="0077"/>
  <anchor x="404.333" y="0.0" name="bottom"/>
  <anchor x="406.511" y="-80.356" name="btm"/>
  <anchor x="406.511" y="834.644" name="top"/>
  <outline>
    <contour>
      <point x="179.822" y="-8.0" type="line"/>
      <point x="288.756" y="-8.0" type="line"/>
      <point x="384.8" y="344.089" type="line"/>
      <point x="417.689" y="494.133" type="line"/>
      <point x="393.622" y="494.133" type="line"/>
      <point x="423.867" y="344.089" type="line"/>
      <point x="521.911" y="-8.0" type="line"/>
      <point x="627.311" y="-8.0" type="line"/>
      <point x="798.022" y="557.0" type="line"/>
      <point x="685.556" y="557.0" type="line"/>
      <point x="602.467" y="230.911" type="line"/>
      <point x="563.111" y="56.311" type="line"/>
      <point x="591.822" y="56.311" type="line"/>
      <point x="553.289" y="234.556" type="line"/>
      <point x="463.244" y="557.0" type="line"/>
      <point x="350.022" y="557.0" type="line"/>
      <point x="259.333" y="233.556" type="line"/>
      <point x="221.378" y="54.311" type="line"/>
      <point x="252.267" y="54.311" type="line"/>
      <point x="211.911" y="234.556" type="line"/>
      <point x="125.644" y="557.0" type="line"/>
      <point x="9.822" y="557.0" type="line"/>
    </contour>
  </outline>
</glyph>
<glyph name="x" format="2">
  <advance width="561.4666666666667"/>
  <unicode hex="0078"/>
  <anchor x="280.73333333333335" y="0.0" name="bottom"/>
  <anchor x="287.73333333333335" y="-83.0" name="btm"/>
  <anchor x="287.73333333333335" y="830.0" name="top"/>
  <outline>
    <contour>
      <point x="22.933333333333337" y="0.0" type="line"/>
      <point x="154.99999999999997" y="0.0" type="line"/>
      <point x="263.9111111111111" y="179.02222222222224" type="line"/>
      <point x="296.73333333333335" y="245.84444444444446" type="line"/>
      <point x="253.55555555555554" y="245.84444444444446" type="line"/>
      <point x="294.55555555555554" y="180.02222222222224" type="line"/>
      <point x="412.64444444444445" y="0.0" type="line"/>
      <point x="545.5333333333333" y="0.0" type="line"/>
      <point x="330.5333333333333" y="303.17777777777775" type="line"/>
      <point x="330.5333333333333" y="265.8222222222222" type="line"/>
      <point x="541.7111111111111" y="557.0" type="line"/>
      <point x="411.64444444444445" y="557.0" type="line"/>
      <point x="294.97777777777776" y="379.93333333333334" type="line"/>
      <point x="266.0888888888889" y="321.5111111111111" type="line"/>
      <point x="304.26666666666665" y="321.5111111111111" type="line"/>
      <point x="270.3777777777778" y="379.1111111111111" type="line"/>
      <point x="152.99999999999997" y="557.0" type="line"/>
      <point x="22.111111111111114" y="557.0" type="line"/>
      <point x="231.93333333333334" y="264.64444444444445" type="line"/>
      <point x="230.57777777777778" y="298.46666666666664" type="line"/>
    </contour>
  </outline>
</glyph>
<glyph name="y" format="2">
  <advance width="551.2222222222222"/>
  <unicode hex="0079"/>
  <anchor x="276.02222222222224" y="0.0" name="bottom"/>
  <anchor x="469.77777777777777" y="-103.0" name="btm"/>
  <anchor x="289.9555555555556" y="830.0" name="top"/>
  <outline>
    <contour>
      <point x="63.111111111111114" y="-240.46666666666667" type="line"/>
      <point x="68.93333333333334" y="-244.46666666666667"/>
      <point x="106.48888888888888" y="-248.0"/>
      <point x="121.48888888888888" y="-248.0" type="curve" smooth="yes"/>
      <point x="136.48888888888888" y="-248.0"/>
      <point x="162.68888888888887" y="-243.82222222222222"/>
      <point x="177.39999999999998" y="-239.46666666666667" type="curve" smooth="yes"/>
      <point x="248.9333333333333" y="-219.11111111111111"/>
      <point x="311.06666666666666" y="-151.46666666666667"/>
      <point x="354.5333333333333" y="-17.46666666666667" type="curve" smooth="yes"/>
      <point x="539.8666666666667" y="557.0" type="line"/>
      <point x="415.5111111111111" y="557.0" type="line"/>
      <point x="317.0888888888889" y="195.68888888888887" type="line"/>
      <point x="275.55555555555554" y="40.04444444444443" type="line"/>
      <point x="306.0" y="40.04444444444443" type="line"/>
      <point x="258.8222222222222" y="195.68888888888887" type="line"/>
      <point x="142.57777777777775" y="557.0" type="line"/>
      <point x="18.688888888888897" y="557.0" type="line"/>
      <point x="218.3777777777778" y="0.0" type="line"/>
      <point x="266.4222222222222" y="0.0" type="line"/>
      <point x="259.4222222222222" y="14.0" type="line"/>
      <point x="230.24444444444444" y="-129.93333333333334"/>
      <point x="154.13333333333333" y="-152.95555555555558"/>
      <point x="111.53333333333333" y="-152.95555555555558" type="curve" smooth="yes"/>
      <point x="100.53333333333333" y="-152.95555555555558"/>
      <point x="73.93333333333334" y="-150.0666666666667"/>
      <point x="63.111111111111114" y="-146.24444444444447" type="curve"/>
    </contour>
  </outline>
</glyph>
<glyph name="z" format="2">
  <advance width="522.08889"/>
  <unicode hex="007A"/>
  <anchor x="261.133" y="0.0" name="bottom"/>
  <anchor x="261.133" y="-83.0" name="btm"/>
  <anchor x="261.133" y="279.0" name="center"/>
  <anchor x="264.2" y="830.0" name="top"/>
  <outline>
    <contour>
      <point x="60.467" y="0.0" type="line"/>
      <point x="478.156" y="0.0" type="line"/>
      <point x="478.156" y="82.8" type="line"/>
      <point x="196.311" y="82.8" type="line"/>
      <point x="224.667" y="123.8" type="line"/>
      <point x="487.8" y="510.0" type="line"/>
      <point x="470.8" y="557.0" type="line"/>
      <point x="69.178" y="557.0" type="line"/>
      <point x="69.0" y="470.733" type="line"/>
      <point x="332.667" y="470.733" type="line"/>
      <point x="304.489" y="429.733" type="line"/>
      <point x="39.467" y="40.178" type="line"/>
    </contour>
  </outline>
</glyph>
<glyph name="bar" format="2">
  <advance width="417.8888888888889"/>
  <unicode hex="007C"/>
  <outline>
    <contour>
      <point x="157.22222222222223" y="-91.82222222222222" type="line"/>
      <point x="260.66666666666663" y="-91.82222222222222" type="line"/>
      <point x="260.66666666666663" y="869.0" type="line"/>
      <point x="157.22222222222223" y="869.0" type="line"/>
    </contour>
  </outline>
</glyph>
<glyph name="asciitilde" format="2">
  <advance width="702.8888888888889"/>
  <unicode hex="007E"/>
  <outline>
    <contour>
      <point x="162.53333333333333" y="329.84444444444443" type="line"/>
      <point x="185.35555555555555" y="359.4222222222222"/>
      <point x="210.88888888888889" y="384.31111111111113"/>
      <point x="256.8888888888889" y="384.31111111111113" type="curve" smooth="yes"/>
      <point x="328.1333333333333" y="384.31111111111113"/>
      <point x="346.1111111111111" y="303.02222222222224"/>
      <point x="441.35555555555555" y="303.02222222222224" type="curve" smooth="yes"/>
      <point x="524.3555555555556" y="303.02222222222224"/>
      <point x="579.4888888888889" y="352.8"/>
      <point x="597.6" y="402.73333333333335" type="curve"/>
      <point x="546.3555555555556" y="454.1111111111111" type="line"/>
      <point x="522.8888888888889" y="424.5333333333333"/>
      <point x="493.7111111111111" y="399.8222222222222"/>
      <point x="447.53333333333336" y="399.8222222222222" type="curve" smooth="yes"/>
      <point x="378.8222222222222" y="399.8222222222222"/>
      <point x="355.4222222222222" y="480.93333333333334"/>
      <point x="260.0" y="480.93333333333334" type="curve" smooth="yes"/>
      <point x="179.35555555555555" y="480.93333333333334"/>
      <point x="119.75555555555556" y="416.8666666666667"/>
      <point x="104.46666666666667" y="376.22222222222223" type="curve"/>
    </contour>
  </outline>
</glyph>
<glyph name="cent" format="2">
  <advance width="578.3555555555556"/>
  <unicode hex="00A2"/>
  <anchor x="274.8888888888889" y="0.0" name="bottom"/>
  <anchor x="308.6" y="-83.0" name="btm"/>
  <anchor x="329.24444444444447" y="830.1777777777778" name="top"/>
  <outline>
    <contour>
      <point x="298.4" y="521.0" type="line"/>
      <point x="374.17777777777775" y="521.0" type="line"/>
      <point x="377.17777777777775" y="672.0" type="line"/>
      <point x="302.22222222222223" y="672.0" type="line"/>
    </contour>
    <contour>
      <point x="282.4" y="-105.0" type="line"/>
      <point x="357.35555555555555" y="-105.0" type="line"/>
      <point x="359.5333333333333" y="45.0" type="line"/>
      <point x="285.4" y="45.0" type="line"/>
    </contour>
    <component base="c" xOffset="28.111111111111114"/>
  </outline>
</glyph>
<glyph name="sterling" format="2">
  <advance width="751.9111111111112"/>
  <unicode hex="00A3"/>
  <outline>
    <contour>
      <point x="68.33333333333334" y="42.19999999999999" type="curve" smooth="yes"/>
      <point x="68.33333333333334" y="14.644444444444446"/>
      <point x="100.75555555555556" y="-1.5333333333333323"/>
      <point x="124.17777777777778" y="-1.5333333333333323" type="curve" smooth="yes"/>
      <point x="163.17777777777778" y="-1.5333333333333323"/>
      <point x="202.7111111111111" y="22.644444444444446"/>
      <point x="222.7111111111111" y="44.82222222222222" type="curve"/>
      <point x="270.3777777777778" y="49.111111111111114"/>
      <point x="335.6" y="-9.822222222222223"/>
      <point x="472.6666666666667" y="-9.822222222222223" type="curve" smooth="yes"/>
      <point x="611.3333333333334" y="-9.822222222222223"/>
      <point x="685.1555555555556" y="45.377777777777766"/>
      <point x="685.1555555555556" y="157.66666666666666" type="curve" smooth="yes"/>
      <point x="685.1555555555556" y="221.57777777777775"/>
      <point x="645.2666666666667" y="265.55555555555554"/>
      <point x="622.0888888888888" y="278.73333333333335" type="curve"/>
      <point x="541.2888888888889" y="237.06666666666666" type="line"/>
      <point x="556.2888888888889" y="231.0"/>
      <point x="577.0444444444445" y="200.7111111111111"/>
      <point x="577.0444444444445" y="164.24444444444444" type="curve" smooth="yes"/>
      <point x="577.0444444444445" y="114.3111111111111"/>
      <point x="549.9777777777778" y="71.79999999999998"/>
      <point x="458.0" y="71.79999999999998" type="curve" smooth="yes"/>
      <point x="374.55555555555554" y="71.79999999999998"/>
      <point x="346.31111111111113" y="96.66666666666666"/>
      <point x="287.08888888888885" y="106.84444444444443" type="curve"/>
      <point x="322.2" y="143.7111111111111"/>
      <point x="328.5777777777778" y="214.7777777777778"/>
      <point x="327.75555555555553" y="337.6" type="curve" smooth="yes"/>
      <point x="326.93333333333334" y="491.3777777777778" type="line" smooth="yes"/>
      <point x="326.1111111111111" y="639.4444444444445"/>
      <point x="385.2888888888889" y="663.2444444444444"/>
      <point x="439.5777777777778" y="663.2444444444444" type="curve" smooth="yes"/>
      <point x="497.0888888888889" y="663.2444444444444"/>
      <point x="530.6222222222223" y="641.7111111111111"/>
      <point x="556.7333333333333" y="619.1333333333333" type="curve"/>
      <point x="609.5111111111111" y="703.1777777777778" type="line"/>
      <point x="579.0888888888888" y="728.0"/>
      <point x="527.1333333333333" y="751.0"/>
      <point x="446.1333333333333" y="751.0" type="curve" smooth="yes"/>
      <point x="295.8666666666667" y="751.0"/>
      <point x="211.22222222222223" y="653.4"/>
      <point x="211.22222222222223" y="508.22222222222223" type="curve" smooth="yes"/>
      <point x="211.22222222222223" y="234.68888888888887" type="line" smooth="yes"/>
      <point x="211.22222222222223" y="198.75555555555553"/>
      <point x="209.04444444444445" y="154.95555555555555"/>
      <point x="196.6888888888889" y="129.37777777777777" type="curve"/>
      <point x="112.35555555555555" y="125.73333333333332"/>
      <point x="68.33333333333334" y="88.6222222222222"/>
    </contour>
    <contour>
      <point x="123.57777777777778" y="365.6222222222222" type="line"/>
      <point x="495.3777777777778" y="365.6222222222222" type="line"/>
      <point x="495.3777777777778" y="442.1111111111111" type="line"/>
      <point x="123.57777777777778" y="442.1111111111111" type="line"/>
    </contour>
  </outline>
</glyph>
<glyph name="currency" format="2">
  <advance width="747.42222"/>
  <unicode hex="00A4"/>
  <outline>
    <contour>
      <point x="373.0" y="160.756" type="curve" smooth="yes"/>
      <point x="493.178" y="160.756"/>
      <point x="589.711" y="256.289"/>
      <point x="589.711" y="377.0" type="curve" smooth="yes"/>
      <point x="589.711" y="498.533"/>
      <point x="493.178" y="594.244"/>
      <point x="373.0" y="594.244" type="curve" smooth="yes"/>
      <point x="253.644" y="594.244"/>
      <point x="156.467" y="498.533"/>
      <point x="156.467" y="377.0" type="curve"/>
      <point x="156.467" y="256.289"/>
      <point x="253.644" y="160.756"/>
    </contour>
    <contour>
      <point x="374.0" y="245.556" type="curve" smooth="yes"/>
      <point x="303.956" y="245.556"/>
      <point x="247.378" y="305.311"/>
      <point x="247.378" y="377.0" type="curve" smooth="yes"/>
      <point x="247.378" y="449.689"/>
      <point x="303.956" y="509.444"/>
      <point x="374.0" y="509.444" type="curve" smooth="yes"/>
      <point x="443.222" y="509.444"/>
      <point x="498.8" y="449.689"/>
      <point x="498.8" y="377.0" type="curve" smooth="yes"/>
      <point x="498.8" y="305.311"/>
      <point x="443.222" y="245.556"/>
    </contour>
    <contour>
      <point x="207.467" y="491.644" type="line"/>
      <point x="270.533" y="554.422" type="line"/>
      <point x="160.244" y="666.889" type="line"/>
      <point x="97.178" y="602.289" type="line"/>
    </contour>
    <contour>
      <point x="539.711" y="490.467" type="line"/>
      <point x="652.711" y="603.822" type="line"/>
      <point x="589.467" y="668.244" type="line"/>
      <point x="476.467" y="555.244" type="line"/>
    </contour>
    <contour>
      <point x="160.422" y="87.111" type="line"/>
      <point x="271.356" y="198.578" type="line"/>
      <point x="207.467" y="262.0" type="line"/>
      <point x="97.178" y="150.533" type="line"/>
    </contour>
    <contour>
      <point x="586.933" y="88.756" type="line"/>
      <point x="650.0" y="152.356" type="line"/>
      <point x="539.711" y="263.822" type="line"/>
      <point x="476.467" y="200.222" type="line"/>
    </contour>
  </outline>
</glyph>
<glyph name="yen" format="2">
  <advance width="751.9111111111112"/>
  <unicode hex="00A5"/>
  <outline>
    <contour>
      <point x="320.5777777777778" y="0.0" type="line"/>
      <point x="433.8" y="0.0" type="line"/>
      <point x="433.8" y="402.31111111111113" type="line"/>
      <point x="409.3777777777778" y="323.55555555555554" type="line"/>
      <point x="677.3333333333334" y="743.0" type="line"/>
      <point x="556.1555555555556" y="743.0" type="line"/>
      <point x="408.1333333333333" y="498.7111111111111" type="line"/>
      <point x="365.8888888888889" y="403.1111111111111" type="line"/>
      <point x="374.4222222222222" y="403.1111111111111"/>
      <point x="382.77777777777777" y="403.1111111111111"/>
      <point x="391.31111111111113" y="403.1111111111111" type="curve"/>
      <point x="346.24444444444447" y="496.06666666666666" type="line"/>
      <point x="202.9333333333333" y="743.0" type="line"/>
      <point x="79.46666666666667" y="743.0" type="line"/>
      <point x="347.06666666666666" y="316.15555555555557" type="line"/>
      <point x="320.5777777777778" y="402.31111111111113" type="line"/>
    </contour>
    <contour>
      <point x="135.06666666666666" y="325.2888888888889" type="line"/>
      <point x="608.5555555555555" y="325.2888888888889" type="line"/>
      <point x="608.5555555555555" y="399.55555555555554" type="line"/>
      <point x="135.06666666666666" y="399.55555555555554" type="line"/>
    </contour>
    <contour>
      <point x="135.06666666666666" y="140.86666666666667" type="line"/>
      <point x="608.5555555555555" y="140.86666666666667" type="line"/>
      <point x="608.5555555555555" y="215.13333333333333" type="line"/>
      <point x="135.06666666666666" y="215.13333333333333" type="line"/>
    </contour>
  </outline>
</glyph>
<glyph name="brokenbar" format="2">
  <advance width="417.88889"/>
  <unicode hex="00A6"/>
  <outline>
    <contour>
      <point x="157.222" y="465.244" type="line"/>
      <point x="260.667" y="465.244" type="line"/>
      <point x="260.667" y="869.0" type="line"/>
      <point x="157.222" y="869.0" type="line"/>
    </contour>
    <contour>
      <point x="157.222" y="-91.0" type="line"/>
      <point x="260.667" y="-91.0" type="line"/>
      <point x="260.667" y="311.222" type="line"/>
      <point x="157.222" y="311.222" type="line"/>
    </contour>
  </outline>
</glyph>
<glyph name="section" format="2">
  <advance width="666.9111111111112"/>
  <unicode hex="00A7"/>
  <outline>
    <contour>
      <point x="112.48888888888888" y="649.2888888888889" type="curve" smooth="yes"/>
      <point x="112.48888888888888" y="441.15555555555557"/>
      <point x="461.35555555555555" y="463.7555555555556"/>
      <point x="461.35555555555555" y="301.8888888888889" type="curve" smooth="yes"/>
      <point x="461.35555555555555" y="260.8888888888889"/>
      <point x="433.4" y="198.0"/>
      <point x="414.4" y="172.0" type="curve"/>
      <point x="465.7111111111111" y="142.88888888888889" type="line"/>
      <point x="522.5555555555555" y="186.24444444444444"/>
      <point x="564.6888888888889" y="249.24444444444444"/>
      <point x="564.6888888888889" y="321.1333333333333" type="curve" smooth="yes"/>
      <point x="564.6888888888889" y="525.8444444444444"/>
      <point x="219.02222222222218" y="526.3777777777777"/>
      <point x="219.02222222222218" y="659.1555555555556" type="curve" smooth="yes"/>
      <point x="219.02222222222218" y="711.5555555555555"/>
      <point x="276.2888888888889" y="731.0222222222222"/>
      <point x="340.15555555555557" y="731.8444444444444" type="curve" smooth="yes"/>
      <point x="427.0888888888889" y="731.8444444444444"/>
      <point x="476.3777777777778" y="710.0222222222222"/>
      <point x="499.02222222222224" y="694.8444444444444" type="curve"/>
      <point x="519.2" y="781.0" type="line"/>
      <point x="491.02222222222224" y="798.0"/>
      <point x="432.02222222222224" y="817.0"/>
      <point x="340.2" y="817.0" type="curve" smooth="yes"/>
      <point x="239.84444444444443" y="817.0"/>
      <point x="112.48888888888888" y="779.2222222222222"/>
    </contour>
    <contour>
      <point x="556.3777777777777" y="73.88888888888889" type="curve" smooth="yes"/>
      <point x="556.3777777777777" y="275.93333333333334"/>
      <point x="207.79999999999998" y="239.55555555555554"/>
      <point x="207.79999999999998" y="393.24444444444447" type="curve" smooth="yes"/>
      <point x="207.79999999999998" y="434.24444444444447"/>
      <point x="235.75555555555553" y="492.0"/>
      <point x="255.57777777777775" y="518.0" type="curve"/>
      <point x="200.9111111111111" y="547.0" type="line"/>
      <point x="145.88888888888889" y="506.0"/>
      <point x="103.93333333333334" y="444.0"/>
      <point x="103.93333333333334" y="375.0" type="curve" smooth="yes"/>
      <point x="103.93333333333334" y="174.22222222222223"/>
      <point x="450.6666666666667" y="185.86666666666667"/>
      <point x="450.6666666666667" y="66.19999999999999" type="curve" smooth="yes"/>
      <point x="450.6666666666667" y="10.62222222222221"/>
      <point x="386.93333333333334" y="-8.84444444444446"/>
      <point x="316.6" y="-8.84444444444446" type="curve" smooth="yes"/>
      <point x="228.48888888888888" y="-9.84444444444446"/>
      <point x="161.08888888888887" y="18.15555555555554"/>
      <point x="134.44444444444443" y="37.15555555555554" type="curve"/>
      <point x="114.26666666666665" y="-49.0" type="line"/>
      <point x="144.44444444444443" y="-70.0"/>
      <point x="225.37777777777777" y="-94.0"/>
      <point x="316.55555555555554" y="-94.0" type="curve" smooth="yes"/>
      <point x="423.55555555555554" y="-94.0"/>
      <point x="556.3777777777777" y="-54.22222222222223"/>
    </contour>
  </outline>
</glyph>
<glyph name="dieresis" format="2">
  <advance width="430.77778"/>
  <unicode hex="00A8"/>
  <anchor x="214.978" y="830.178" name="_top"/>
  <outline>
    <contour>
      <point x="96.911" y="661.378" type="curve" smooth="yes"/>
      <point x="138.044" y="661.378"/>
      <point x="174.578" y="692.333"/>
      <point x="174.578" y="736.578" type="curve" smooth="yes"/>
      <point x="174.578" y="773.711"/>
      <point x="154.156" y="803.778"/>
      <point x="108.556" y="803.778" type="curve" smooth="yes"/>
      <point x="69.244" y="803.778"/>
      <point x="29.889" y="770.178"/>
      <point x="29.889" y="727.756" type="curve" smooth="yes"/>
      <point x="29.889" y="687.156"/>
      <point x="59.422" y="661.378"/>
    </contour>
    <contour>
      <point x="323.222" y="661.378" type="curve" smooth="yes"/>
      <point x="364.356" y="661.378"/>
      <point x="400.711" y="692.333"/>
      <point x="400.711" y="736.578" type="curve" smooth="yes"/>
      <point x="400.711" y="773.711"/>
      <point x="380.467" y="803.778"/>
      <point x="334.689" y="803.778" type="curve" smooth="yes"/>
      <point x="294.733" y="803.778"/>
      <point x="256.2" y="770.178"/>
      <point x="256.2" y="727.756" type="curve" smooth="yes"/>
      <point x="256.2" y="687.156"/>
      <point x="285.733" y="661.378"/>
    </contour>
  </outline>
</glyph>
<glyph name="copyright" format="2">
  <advance width="1036.8"/>
  <unicode hex="00A9"/>
  <outline>
    <contour>
      <point x="93.4" y="470.0" type="curve" smooth="yes"/>
      <point x="93.4" y="232.0"/>
      <point x="280.4" y="40.0"/>
      <point x="518.4" y="40.0" type="curve" smooth="yes"/>
      <point x="755.4" y="40.0"/>
      <point x="943.4" y="232.0"/>
      <point x="943.4" y="470.0" type="curve" smooth="yes"/>
      <point x="943.4" y="708.0"/>
      <point x="755.4" y="898.0"/>
      <point x="518.4" y="898.0" type="curve" smooth="yes"/>
      <point x="280.4" y="898.0"/>
      <point x="93.4" y="708.0"/>
    </contour>
    <contour>
      <point x="162.4" y="470.0" type="curve" smooth="yes"/>
      <point x="162.4" y="672.0"/>
      <point x="313.4" y="837.0"/>
      <point x="518.4" y="837.0" type="curve" smooth="yes"/>
      <point x="722.4" y="837.0"/>
      <point x="873.4" y="672.0"/>
      <point x="873.4" y="470.0" type="curve" smooth="yes"/>
      <point x="873.4" y="268.0"/>
      <point x="722.4" y="103.0"/>
      <point x="518.4" y="103.0" type="curve" smooth="yes"/>
      <point x="313.4" y="103.0"/>
      <point x="162.4" y="268.0"/>
    </contour>
    <contour>
      <point x="301.5777777777778" y="466.46666666666664" type="curve" smooth="yes"/>
      <point x="301.5777777777778" y="344.4"/>
      <point x="382.2888888888889" y="233.64444444444445"/>
      <point x="516.9333333333333" y="233.64444444444445" type="curve" smooth="yes"/>
      <point x="581.9333333333333" y="233.64444444444445"/>
      <point x="641.8222222222222" y="253.7111111111111"/>
      <point x="673.6444444444444" y="280.53333333333336" type="curve"/>
      <point x="651.4666666666667" y="343.55555555555554" type="line"/>
      <point x="626.8222222222222" y="330.55555555555554"/>
      <point x="583.7111111111111" y="314.2"/>
      <point x="532.4222222222222" y="314.2" type="curve" smooth="yes"/>
      <point x="454.77777777777777" y="314.2"/>
      <point x="399.9555555555555" y="368.8888888888889"/>
      <point x="399.9555555555555" y="475.9555555555556" type="curve" smooth="yes"/>
      <point x="400.1333333333333" y="562.5333333333333"/>
      <point x="448.6666666666667" y="627.6222222222223"/>
      <point x="535.4666666666667" y="627.6222222222223" type="curve" smooth="yes"/>
      <point x="582.8666666666667" y="627.6222222222223"/>
      <point x="618.4666666666667" y="614.6222222222223"/>
      <point x="644.4" y="597.9777777777778" type="curve"/>
      <point x="661.4666666666667" y="681.7111111111111" type="line"/>
      <point x="643.9333333333333" y="691.0666666666667"/>
      <point x="605.1555555555556" y="708.0"/>
      <point x="543.5777777777778" y="708.0" type="curve" smooth="yes"/>
      <point x="386.4" y="708.0"/>
      <point x="301.4" y="603.8222222222222"/>
    </contour>
  </outline>
</glyph>
<glyph name="ordfeminine" format="2">
  <advance width="507.84444444444443"/>
  <unicode hex="00AA"/>
  <outline>
    <contour>
      <point x="208.57777777777778" y="330.1111111111111" type="curve" smooth="yes"/>
      <point x="265.5777777777778" y="330.1111111111111"/>
      <point x="314.1777777777778" y="354.0"/>
      <point x="335.64444444444445" y="376.46666666666664" type="curve"/>
      <point x="351.64444444444445" y="406.46666666666664" type="line"/>
      <point x="330.64444444444445" y="435.6" type="line"/>
      <point x="320.64444444444445" y="426.1333333333333"/>
      <point x="277.24444444444447" y="405.02222222222224"/>
      <point x="230.66666666666666" y="405.02222222222224" type="curve" smooth="yes"/>
      <point x="192.08888888888887" y="405.02222222222224"/>
      <point x="160.79999999999998" y="422.6666666666667"/>
      <point x="160.79999999999998" y="459.77777777777777" type="curve" smooth="yes"/>
      <point x="160.79999999999998" y="494.0"/>
      <point x="173.73333333333332" y="511.53333333333336"/>
      <point x="202.73333333333332" y="525.8888888888889" type="curve" smooth="yes"/>
      <point x="237.48888888888888" y="543.5333333333333"/>
      <point x="284.5333333333333" y="542.8888888888889"/>
      <point x="330.64444444444445" y="542.8888888888889" type="curve"/>
      <point x="351.64444444444445" y="575.1777777777778" type="line"/>
      <point x="330.64444444444445" y="604.8444444444444" type="line"/>
      <point x="276.2888888888889" y="604.8444444444444"/>
      <point x="207.53333333333333" y="599.0222222222222"/>
      <point x="149.53333333333333" y="577.0222222222222" type="curve" smooth="yes"/>
      <point x="97.35555555555555" y="556.8444444444444"/>
      <point x="61.46666666666667" y="519.6"/>
      <point x="61.46666666666667" y="453.24444444444447" type="curve" smooth="yes"/>
      <point x="61.46666666666667" y="374.8888888888889"/>
      <point x="121.04444444444445" y="330.1111111111111"/>
    </contour>
    <contour>
      <point x="432.97777777777776" y="334.2888888888889" type="line"/>
      <point x="432.97777777777776" y="569.1777777777778" type="line"/>
      <point x="432.97777777777776" y="636.3555555555556" type="line" smooth="yes"/>
      <point x="432.97777777777776" y="746.8888888888889"/>
      <point x="366.97777777777776" y="782.4222222222222"/>
      <point x="259.6" y="782.4222222222222" type="curve" smooth="yes"/>
      <point x="184.06666666666666" y="782.4222222222222"/>
      <point x="91.64444444444445" y="743.7777777777778"/>
      <point x="73.64444444444445" y="726.7777777777778" type="curve"/>
      <point x="101.46666666666667" y="664.7555555555556" type="line"/>
      <point x="122.64444444444445" y="679.7555555555556"/>
      <point x="193.88888888888889" y="703.5777777777778"/>
      <point x="238.06666666666666" y="703.5777777777778" type="curve" smooth="yes"/>
      <point x="298.8888888888889" y="703.5777777777778"/>
      <point x="330.64444444444445" y="697.0444444444445"/>
      <point x="330.64444444444445" y="633.3555555555556" type="curve" smooth="yes"/>
      <point x="330.64444444444445" y="401.46666666666664" type="line"/>
      <point x="335.64444444444445" y="401.46666666666664" type="line"/>
      <point x="335.64444444444445" y="370.2888888888889" type="line" smooth="yes"/>
      <point x="335.64444444444445" y="332.1111111111111"/>
      <point x="356.64444444444445" y="334.2888888888889"/>
      <point x="392.8222222222222" y="334.2888888888889" type="curve" smooth="yes"/>
    </contour>
  </outline>
</glyph>
<glyph name="guillemetleft" format="2">
  <advance width="950.5111111111111"/>
  <unicode hex="00AB"/>
  <outline>
    <contour>
      <point x="119.11111111111111" y="250.6888888888889" type="line"/>
      <point x="424.1777777777778" y="48.51111111111112" type="line"/>
      <point x="452.9555555555556" y="130.48888888888888" type="line"/>
      <point x="202.97777777777776" y="321.2444444444444" type="line"/>
      <point x="202.97777777777776" y="278.7555555555556" type="line"/>
      <point x="452.9555555555556" y="471.33333333333337" type="line"/>
      <point x="424.1777777777778" y="555.1333333333333" type="line"/>
      <point x="119.11111111111111" y="345.84444444444443" type="line"/>
    </contour>
    <contour>
      <point x="480.55555555555554" y="250.6888888888889" type="line"/>
      <point x="795.6222222222223" y="48.51111111111112" type="line"/>
      <point x="824.4" y="130.48888888888888" type="line"/>
      <point x="564.4222222222222" y="321.2444444444444" type="line"/>
      <point x="564.4222222222222" y="278.7555555555556" type="line"/>
      <point x="824.4" y="471.33333333333337" type="line"/>
      <point x="795.6222222222223" y="555.1333333333333" type="line"/>
      <point x="480.55555555555554" y="345.84444444444443" type="line"/>
    </contour>
  </outline>
</glyph>
<glyph name="logicalnot" format="2">
  <advance width="718.88889"/>
  <unicode hex="00AC"/>
  <outline>
    <contour>
      <point x="117.533" y="331.733" type="line"/>
      <point x="499.622" y="331.733" type="line"/>
      <point x="499.622" y="158.0" type="line"/>
      <point x="601.356" y="158.0" type="line"/>
      <point x="601.356" y="416.0" type="line"/>
      <point x="117.533" y="416.0" type="line"/>
    </contour>
  </outline>
</glyph>
<glyph name="registered" format="2">
  <advance width="1036.8"/>
  <unicode hex="00AE"/>
  <outline>
    <contour>
      <point x="93.04444444444445" y="470.0" type="curve" smooth="yes"/>
      <point x="93.04444444444445" y="232.0"/>
      <point x="280.4" y="40.0"/>
      <point x="518.4" y="40.0" type="curve" smooth="yes"/>
      <point x="755.4" y="40.0"/>
      <point x="943.7555555555556" y="232.0"/>
      <point x="943.7555555555556" y="470.0" type="curve" smooth="yes"/>
      <point x="943.7555555555556" y="707.8222222222222"/>
      <point x="755.4" y="898.0"/>
      <point x="518.4" y="898.0" type="curve" smooth="yes"/>
      <point x="280.4" y="898.0"/>
      <point x="93.04444444444445" y="707.8222222222222"/>
    </contour>
    <contour>
      <point x="162.04444444444445" y="470.0" type="curve" smooth="yes"/>
      <point x="162.04444444444445" y="671.8222222222222"/>
      <point x="313.75555555555553" y="836.8222222222222"/>
      <point x="518.4" y="836.8222222222222" type="curve" smooth="yes"/>
      <point x="722.0444444444445" y="836.8222222222222"/>
      <point x="873.7555555555556" y="671.8222222222222"/>
      <point x="873.7555555555556" y="470.0" type="curve" smooth="yes"/>
      <point x="873.7555555555556" y="268.0"/>
      <point x="722.0444444444445" y="103.0"/>
      <point x="518.4" y="103.0" type="curve" smooth="yes"/>
      <point x="313.75555555555553" y="103.0"/>
      <point x="162.04444444444445" y="268.0"/>
    </contour>
    <contour>
      <point x="357.5111111111111" y="234.17777777777778" type="line"/>
      <point x="447.5333333333333" y="234.17777777777778" type="line"/>
      <point x="447.5333333333333" y="412.5777777777778" type="line"/>
      <point x="469.22222222222223" y="412.5777777777778"/>
      <point x="493.5777777777778" y="412.5777777777778"/>
      <point x="504.5111111111111" y="413.4" type="curve"/>
      <point x="549.5777777777778" y="400.3333333333333"/>
      <point x="568.8666666666667" y="341.6666666666667"/>
      <point x="589.6888888888889" y="297.55555555555554" type="curve" smooth="yes"/>
      <point x="601.1555555555556" y="273.15555555555557"/>
      <point x="610.2666666666667" y="253.4"/>
      <point x="625.3777777777777" y="234.17777777777778" type="curve"/>
      <point x="728.9333333333333" y="234.17777777777778" type="line"/>
      <point x="701.8888888888889" y="274.26666666666665"/>
      <point x="691.7777777777778" y="287.9111111111111"/>
      <point x="681.9555555555555" y="307.02222222222224" type="curve" smooth="yes"/>
      <point x="659.2444444444444" y="349.0888888888889"/>
      <point x="640.2444444444444" y="399.75555555555553"/>
      <point x="603.7555555555556" y="425.4" type="curve"/>
      <point x="673.1111111111111" y="446.5777777777778"/>
      <point x="697.4" y="502.1777777777778"/>
      <point x="697.4" y="573.0" type="curve" smooth="yes"/>
      <point x="697.4" y="646.8888888888889"/>
      <point x="644.6888888888889" y="707.1777777777778"/>
      <point x="522.7555555555556" y="707.1777777777778" type="curve" smooth="yes"/>
      <point x="474.3777777777778" y="707.1777777777778"/>
      <point x="431.75555555555553" y="704.1777777777778"/>
      <point x="396.5777777777778" y="704.1777777777778" type="curve" smooth="yes"/>
      <point x="383.22222222222223" y="704.1777777777778"/>
      <point x="370.8666666666667" y="704.1777777777778"/>
      <point x="357.5111111111111" y="704.1777777777778" type="curve"/>
    </contour>
    <contour>
      <point x="447.5333333333333" y="479.5333333333333" type="curve"/>
      <point x="447.5333333333333" y="634.6888888888889" type="line"/>
      <point x="465.35555555555555" y="639.8666666666667"/>
      <point x="479.1777777777778" y="639.6888888888889"/>
      <point x="499.64444444444445" y="640.5111111111112" type="curve" smooth="yes"/>
      <point x="583.3777777777777" y="642.3333333333334"/>
      <point x="604.3777777777777" y="610.5777777777778"/>
      <point x="604.3777777777777" y="561.4666666666667" type="curve" smooth="yes"/>
      <point x="604.3777777777777" y="500.24444444444447"/>
      <point x="572.8" y="477.35555555555555"/>
      <point x="509.4666666666667" y="477.35555555555555" type="curve" smooth="yes"/>
      <point x="493.1111111111111" y="477.35555555555555"/>
      <point x="461.5333333333333" y="477.35555555555555"/>
    </contour>
  </outline>
</glyph>
<glyph name="macron" format="2">
  <advance width="320.6222222222222"/>
  <unicode hex="00AF"/>
  <anchor x="159.48888888888888" y="830.1777777777778" name="_top"/>
  <outline>
    <contour>
      <point x="24.53333333333333" y="695.4666666666667" type="line"/>
      <point x="296.0888888888889" y="695.4666666666667" type="line"/>
      <point x="296.0888888888889" y="778.3777777777777" type="line"/>
      <point x="24.53333333333333" y="778.3777777777777" type="line"/>
    </contour>
  </outline>
</glyph>
<glyph name="degree" format="2">
  <advance width="448.9111111111111"/>
  <unicode hex="00B0"/>
  <outline>
    <contour>
      <point x="57.17777777777778" y="624.0" type="curve" smooth="yes"/>
      <point x="57.17777777777778" y="528.4666666666667"/>
      <point x="131.88888888888889" y="456.5777777777778"/>
      <point x="224.77777777777777" y="456.5777777777778" type="curve" smooth="yes"/>
      <point x="318.3777777777778" y="456.5777777777778"/>
      <point x="392.55555555555554" y="527.1111111111111"/>
      <point x="392.55555555555554" y="624.0" type="curve" smooth="yes"/>
      <point x="392.55555555555554" y="719.5333333333333"/>
      <point x="318.02222222222224" y="791.4222222222222"/>
      <point x="224.77777777777777" y="791.4222222222222" type="curve" smooth="yes"/>
      <point x="130.53333333333333" y="791.4222222222222"/>
      <point x="57.17777777777778" y="720.7111111111111"/>
    </contour>
    <contour>
      <point x="135.84444444444443" y="624.0" type="curve" smooth="yes"/>
      <point x="135.84444444444443" y="678.2888888888889"/>
      <point x="175.3111111111111" y="717.7555555555556"/>
      <point x="224.77777777777777" y="717.7555555555556" type="curve" smooth="yes"/>
      <point x="273.4222222222222" y="717.7555555555556"/>
      <point x="313.8888888888889" y="678.1111111111111"/>
      <point x="313.8888888888889" y="624.0" type="curve" smooth="yes"/>
      <point x="313.8888888888889" y="569.7111111111111"/>
      <point x="273.6" y="530.2444444444444"/>
      <point x="224.77777777777777" y="530.2444444444444" type="curve" smooth="yes"/>
      <point x="175.48888888888888" y="530.2444444444444"/>
      <point x="135.84444444444443" y="569.8888888888889"/>
    </contour>
  </outline>
</glyph>
<glyph name="plusminus" format="2">
  <advance width="680.8888888888889"/>
  <unicode hex="00B1"/>
  <outline>
    <contour>
      <point x="121.46666666666667" y="0.0" type="line"/>
      <point x="558.8888888888889" y="0.0" type="line"/>
      <point x="558.8888888888889" y="83.84444444444443" type="line"/>
      <point x="121.46666666666667" y="83.84444444444443" type="line"/>
    </contour>
    <component base="plus"/>
  </outline>
</glyph>
<glyph name="acute" format="2">
  <advance width="296.22222222222223"/>
  <unicode hex="00B4"/>
  <anchor x="88.71111111111111" y="830.1777777777778" name="_top"/>
  <outline>
    <contour>
      <point x="82.73333333333332" y="628.2666666666667" type="line"/>
      <point x="118.44444444444443" y="642.8"/>
      <point x="246.79999999999998" y="758.1333333333333"/>
      <point x="271.68888888888887" y="803.7555555555556" type="curve"/>
      <point x="189.7111111111111" y="873.1333333333333" type="line"/>
      <point x="142.35555555555555" y="802.8222222222222"/>
      <point x="80.35555555555555" y="735.7555555555556"/>
      <point x="24.53333333333333" y="676.3555555555556" type="curve"/>
    </contour>
  </outline>
</glyph>
<glyph name="micro" format="2">
  <advance width="667.9111111111112"/>
  <unicode hex="00B5"/>
  <outline>
    <contour>
      <point x="100.33333333333334" y="-181.0" type="line"/>
      <point x="207.08888888888887" y="-181.0" type="line"/>
      <point x="189.08888888888887" y="79.0" type="line"/>
      <point x="169.95555555555555" y="74.0" type="line"/>
      <point x="200.06666666666666" y="11.0"/>
      <point x="245.77777777777777" y="-8.0"/>
      <point x="321.06666666666666" y="-8.0" type="curve" smooth="yes"/>
      <point x="392.06666666666666" y="-8.0"/>
      <point x="428.6" y="32.644444444444446"/>
      <point x="451.7111111111111" y="59.0" type="curve"/>
      <point x="449.6" y="8.533333333333333"/>
      <point x="475.9555555555556" y="-9.0"/>
      <point x="512.5555555555555" y="-9.0" type="curve" smooth="yes"/>
      <point x="568.4" y="-9.0"/>
      <point x="613.1111111111111" y="32.0"/>
      <point x="620.1111111111111" y="42.0" type="curve"/>
      <point x="605.1111111111111" y="94.08888888888887" type="line"/>
      <point x="587.1111111111111" y="84.08888888888887"/>
      <point x="572.7555555555556" y="81.08888888888887"/>
      <point x="566.7555555555556" y="81.08888888888887" type="curve" smooth="yes"/>
      <point x="555.7555555555556" y="81.08888888888887"/>
      <point x="549.0444444444445" y="88.08888888888887"/>
      <point x="549.0444444444445" y="118.08888888888887" type="curve" smooth="yes"/>
      <point x="549.0444444444445" y="557.0" type="line"/>
      <point x="433.8666666666667" y="557.0" type="line"/>
      <point x="433.8666666666667" y="124.6222222222222" type="line"/>
      <point x="409.5777777777778" y="105.79999999999998"/>
      <point x="369.0" y="83.39999999999998"/>
      <point x="331.77777777777777" y="83.39999999999998" type="curve" smooth="yes"/>
      <point x="252.37777777777777" y="83.39999999999998"/>
      <point x="214.68888888888887" y="113.28888888888886"/>
      <point x="214.68888888888887" y="202.28888888888886" type="curve" smooth="yes"/>
      <point x="214.68888888888887" y="557.0" type="line"/>
      <point x="100.33333333333334" y="557.0" type="line"/>
    </contour>
  </outline>
</glyph>
<glyph name="paragraph" format="2">
  <advance width="652.6444444444444"/>
  <unicode hex="00B6"/>
  <outline>
    <contour>
      <point x="250.22222222222223" y="0.0" type="line"/>
      <point x="346.0888888888889" y="0.0" type="line"/>
      <point x="346.0888888888889" y="753.6888888888889" type="line"/>
      <point x="460.7111111111111" y="753.6888888888889" type="line"/>
      <point x="460.7111111111111" y="0.0" type="line"/>
      <point x="556.5777777777778" y="0.0" type="line"/>
      <point x="556.5777777777778" y="826.0" type="line"/>
      <point x="498.5111111111111" y="827.0"/>
      <point x="368.06666666666666" y="835.0"/>
      <point x="321.0" y="835.0" type="curve" smooth="yes"/>
      <point x="135.04444444444445" y="835.0"/>
      <point x="39.04444444444445" y="747.6"/>
      <point x="39.04444444444445" y="609.0" type="curve" smooth="yes"/>
      <point x="39.04444444444445" y="447.0"/>
      <point x="113.75555555555556" y="379.0"/>
      <point x="250.22222222222223" y="379.0" type="curve"/>
    </contour>
  </outline>
</glyph>
<glyph name="cedilla" format="2">
  <advance width="239.84444444444443"/>
  <unicode hex="00B8"/>
  <anchor x="159.93333333333334" y="-83.0" name="_btm"/>
  <outline>
    <contour>
      <point x="21.75555555555556" y="-213.0" type="line"/>
      <point x="32.93333333333334" y="-221.0"/>
      <point x="69.42222222222222" y="-227.0"/>
      <point x="96.6" y="-227.0" type="curve" smooth="yes"/>
      <point x="154.2" y="-227.0"/>
      <point x="208.73333333333332" y="-193.46666666666667"/>
      <point x="215.0222222222222" y="-111.28888888888889" type="curve" smooth="yes"/>
      <point x="218.48888888888888" y="-58.355555555555554"/>
      <point x="209.48888888888888" y="-8.466666666666669"/>
      <point x="186.48888888888888" y="15.0" type="curve"/>
      <point x="164.95555555555555" y="17.0" type="line"/>
      <point x="120.15555555555557" y="15.0" type="line"/>
      <point x="129.33333333333334" y="-3.6444444444444457"/>
      <point x="136.51111111111112" y="-28.75555555555556"/>
      <point x="130.4" y="-75.04444444444445" type="curve" smooth="yes"/>
      <point x="127.57777777777778" y="-127.51111111111112"/>
      <point x="100.75555555555556" y="-148.04444444444445"/>
      <point x="68.75555555555556" y="-148.04444444444445" type="curve" smooth="yes"/>
      <point x="53.75555555555556" y="-148.04444444444445"/>
      <point x="38.111111111111114" y="-147.04444444444445"/>
      <point x="29.28888888888889" y="-141.86666666666667" type="curve"/>
    </contour>
  </outline>
</glyph>
<glyph name="ordmasculine" format="2">
  <advance width="506.84444444444443"/>
  <unicode hex="00BA"/>
  <outline>
    <contour>
      <point x="51.6888888888889" y="562.3555555555556" type="curve" smooth="yes"/>
      <point x="50.51111111111112" y="421.8222222222222"/>
      <point x="123.22222222222223" y="330.2888888888889"/>
      <point x="251.42222222222222" y="330.2888888888889" type="curve" smooth="yes"/>
      <point x="352.0888888888889" y="330.2888888888889"/>
      <point x="453.15555555555557" y="391.8222222222222"/>
      <point x="455.15555555555557" y="552.5333333333333" type="curve" smooth="yes"/>
      <point x="457.15555555555557" y="688.8888888888889"/>
      <point x="388.6222222222222" y="782.6"/>
      <point x="261.77777777777777" y="782.6" type="curve" smooth="yes"/>
      <point x="164.93333333333334" y="782.6"/>
      <point x="54.51111111111112" y="723.2444444444444"/>
    </contour>
    <contour>
      <point x="158.66666666666666" y="562.3555555555556" type="curve" smooth="yes"/>
      <point x="158.66666666666666" y="666.5777777777778"/>
      <point x="199.42222222222222" y="705.8666666666667"/>
      <point x="256.6" y="706.8666666666667" type="curve" smooth="yes"/>
      <point x="317.24444444444447" y="707.8666666666667"/>
      <point x="349.0" y="647.9333333333334"/>
      <point x="349.0" y="551.5333333333333" type="curve" smooth="yes"/>
      <point x="349.0" y="447.4888888888889"/>
      <point x="317.24444444444447" y="407.02222222222224"/>
      <point x="256.6" y="406.02222222222224" type="curve" smooth="yes"/>
      <point x="194.42222222222222" y="405.02222222222224"/>
      <point x="158.66666666666666" y="466.31111111111113"/>
    </contour>
  </outline>
</glyph>
<glyph name="guillemetright" format="2">
  <advance width="950.5111111111111"/>
  <unicode hex="00BB"/>
  <outline>
    <contour>
      <point x="762.4222222222224" y="250.6888888888889" type="line"/>
      <point x="762.4222222222224" y="345.84444444444443" type="line"/>
      <point x="455.57777777777795" y="555.1333333333333" type="line"/>
      <point x="426.8000000000002" y="471.33333333333337" type="line"/>
      <point x="678.5555555555558" y="278.7555555555556" type="line"/>
      <point x="678.5555555555558" y="321.2444444444444" type="line"/>
      <point x="426.8000000000002" y="130.48888888888888" type="line"/>
      <point x="455.57777777777795" y="48.51111111111112" type="line"/>
    </contour>
    <contour>
      <point x="536.9777777777776" y="250.6888888888889" type="line"/>
      <point x="536.9777777777776" y="345.84444444444443" type="line"/>
      <point x="223.6888888888887" y="555.1333333333333" type="line"/>
      <point x="194.91111111111093" y="471.33333333333337" type="line"/>
      <point x="453.111111111111" y="278.7555555555556" type="line"/>
      <point x="453.111111111111" y="321.2444444444444" type="line"/>
      <point x="194.91111111111093" y="130.48888888888888" type="line"/>
      <point x="223.6888888888887" y="48.51111111111112" type="line"/>
    </contour>
  </outline>
</glyph>
<glyph name="questiondown" format="2">
  <advance width="511.88889"/>
  <unicode hex="00BF"/>
  <outline>
    <contour>
      <point x="335.311" y="501.933" type="curve"/>
      <point x="248.089" y="501.933" type="line"/>
      <point x="261.733" y="454.0"/>
      <point x="273.2" y="424.778"/>
      <point x="268.556" y="381.378" type="curve" smooth="yes"/>
      <point x="261.022" y="287.556"/>
      <point x="76.044" y="270.311"/>
      <point x="55.489" y="119.733" type="curve" smooth="yes"/>
      <point x="31.111" y="-17.756"/>
      <point x="108.867" y="-154.533"/>
      <point x="341.022" y="-154.533" type="curve" smooth="yes"/>
      <point x="392.333" y="-154.533"/>
      <point x="439.044" y="-141.711"/>
      <point x="451.467" y="-133.0" type="curve"/>
      <point x="451.467" y="-48.778" type="line"/>
      <point x="438.933" y="-51.956"/>
      <point x="411.467" y="-58.489"/>
      <point x="361.333" y="-58.489" type="curve" smooth="yes"/>
      <point x="221.911" y="-58.489"/>
      <point x="145.6" y="7.577999999999999"/>
      <point x="171.911" y="125.089" type="curve" smooth="yes"/>
      <point x="185.067" y="219.556"/>
      <point x="381.889" y="253.467"/>
      <point x="378.422" y="367.644" type="curve" smooth="yes"/>
      <point x="376.6" y="425.889"/>
      <point x="356.778" y="474.933"/>
    </contour>
    <contour>
      <point x="278.467" y="755.0" type="curve" smooth="yes"/>
      <point x="235.689" y="755.0"/>
      <point x="195.978" y="717.578"/>
      <point x="197.622" y="669.044" type="curve" smooth="yes"/>
      <point x="198.622" y="629.267"/>
      <point x="224.222" y="595.556"/>
      <point x="270.467" y="595.556" type="curve" smooth="yes"/>
      <point x="311.422" y="595.556"/>
      <point x="351.489" y="634.444"/>
      <point x="350.489" y="679.689" type="curve" smooth="yes"/>
      <point x="349.489" y="722.933"/>
      <point x="315.6" y="755.0"/>
    </contour>
  </outline>
</glyph>
<glyph name="AE" format="2">
  <advance width="914.93333"/>
  <unicode hex="00C6"/>
  <anchor x="457.556" y="0.0" name="bottom"/>
  <anchor x="676.956" y="-83.0" name="btm"/>
  <anchor x="500.311" y="830.0" name="top"/>
  <outline>
    <contour>
      <point x="-39.2" y="0.0" type="line"/>
      <point x="89.333" y="0.0" type="line"/>
      <point x="416.978" y="689.0" type="line"/>
      <point x="318.356" y="743.0" type="line"/>
    </contour>
    <contour>
      <point x="410.956" y="743.0" type="line"/>
      <point x="318.356" y="743.0" type="line"/>
      <point x="333.356" y="672.0" type="line"/>
      <point x="450.467" y="672.0" type="line"/>
    </contour>
    <contour>
      <point x="114.956" y="187.289" type="line"/>
      <point x="493.222" y="187.289" type="line"/>
      <point x="475.956" y="273.089" type="line"/>
      <point x="135.844" y="273.089" type="line"/>
    </contour>
    <contour>
      <point x="410.956" y="0.0" type="line"/>
      <point x="877.867" y="0.0" type="line"/>
      <point x="877.867" y="91.756" type="line"/>
      <point x="528.133" y="91.756" type="line"/>
      <point x="528.133" y="337.978" type="line"/>
      <point x="760.422" y="337.978" type="line"/>
      <point x="760.422" y="427.844" type="line"/>
      <point x="528.133" y="427.844" type="line"/>
      <point x="528.133" y="652.778" type="line"/>
      <point x="842.578" y="652.778" type="line"/>
      <point x="842.578" y="743.0" type="line"/>
      <point x="410.956" y="743.0" type="line"/>
    </contour>
  </outline>
</glyph>
<glyph name="Eth" format="2">
  <advance width="726.1111111111111"/>
  <unicode hex="00D0"/>
  <anchor x="363.55555555555554" y="0.0" name="bottom"/>
  <anchor x="323.73333333333335" y="-83.0" name="btm"/>
  <anchor x="363.55555555555554" y="372.0" name="center"/>
  <anchor x="359.2" y="830.0" name="top"/>
  <outline>
    <contour>
      <point x="32.355555555555554" y="349.68888888888887" type="line"/>
      <point x="399.02222222222224" y="349.68888888888887" type="line"/>
      <point x="399.02222222222224" y="426.31111111111113" type="line"/>
      <point x="32.355555555555554" y="426.31111111111113" type="line"/>
    </contour>
    <component base="D"/>
  </outline>
</glyph>
<glyph name="multiply" format="2">
  <advance width="669.8888888888889"/>
  <unicode hex="00D7"/>
  <outline>
    <contour>
      <point x="108.31111111111113" y="211.33333333333334" type="line"/>
      <point x="175.86666666666667" y="145.60000000000002" type="line"/>
      <point x="335.35555555555555" y="314.73333333333335" type="line"/>
      <point x="494.84444444444443" y="145.60000000000002" type="line"/>
      <point x="562.4" y="211.33333333333334" type="line"/>
      <point x="395.8" y="379.0" type="line"/>
      <point x="562.5777777777778" y="549.5555555555555" type="line"/>
      <point x="495.2" y="615.4" type="line"/>
      <point x="335.53333333333336" y="440.26666666666665" type="line"/>
      <point x="175.86666666666667" y="615.4" type="line"/>
      <point x="108.31111111111113" y="549.5555555555555" type="line"/>
      <point x="275.0888888888889" y="378.1777777777778" type="line"/>
    </contour>
  </outline>
</glyph>
<glyph name="Oslash" format="2">
  <advance width="768.3111111111111"/>
  <unicode hex="00D8"/>
  <anchor x="384.24444444444447" y="0.0" name="bottom"/>
  <anchor x="376.24444444444447" y="830.0" name="top"/>
  <outline>
    <contour>
      <point x="179.2888888888889" y="-99.6" type="line"/>
      <point x="647.8444444444444" y="835.0888888888888" type="line"/>
      <point x="589.8444444444444" y="852.7333333333333" type="line"/>
      <point x="121.11111111111111" y="-82.13333333333333" type="line"/>
    </contour>
    <contour>
      <point x="381.06666666666666" y="-8.0" type="curve" smooth="yes"/>
      <point x="572.4888888888889" y="-4.0"/>
      <point x="714.4888888888889" y="122.57777777777778"/>
      <point x="719.4888888888889" y="372.1777777777778" type="curve" smooth="yes"/>
      <point x="724.3111111111111" y="602.0"/>
      <point x="594.4888888888889" y="752.0666666666667"/>
      <point x="396.06666666666666" y="751.0" type="curve" smooth="yes"/>
      <point x="204.93333333333334" y="749.9333333333333"/>
      <point x="53.82222222222222" y="626.4222222222222"/>
      <point x="48.82222222222222" y="376.64444444444445" type="curve" smooth="yes"/>
      <point x="43.82222222222222" y="151.11111111111111"/>
      <point x="173.64444444444445" y="-12.0"/>
    </contour>
    <contour>
      <point x="384.24444444444447" y="81.68888888888887" type="curve" smooth="yes"/>
      <point x="240.86666666666665" y="81.68888888888887"/>
      <point x="167.71111111111108" y="217.42222222222222"/>
      <point x="167.71111111111108" y="370.0" type="curve" smooth="yes"/>
      <point x="167.71111111111108" y="571.6888888888889"/>
      <point x="270.97777777777776" y="661.7777777777778"/>
      <point x="392.06666666666666" y="661.7777777777778" type="curve" smooth="yes"/>
      <point x="530.4444444444445" y="661.7777777777778"/>
      <point x="600.4222222222222" y="531.2222222222222"/>
      <point x="600.4222222222222" y="377.0" type="curve" smooth="yes"/>
      <point x="600.4222222222222" y="182.77777777777777"/>
      <point x="515.6222222222223" y="81.68888888888887"/>
    </contour>
  </outline>
</glyph>
<glyph name="Thorn" format="2">
  <advance width="624.5333333333333"/>
  <unicode hex="00DE"/>
  <anchor x="312.26666666666665" y="0.0" name="bottom"/>
  <anchor x="312.26666666666665" y="743.0" name="top"/>
  <outline>
    <contour>
      <point x="301.88888888888886" y="136.51111111111112" type="curve" smooth="yes"/>
      <point x="487.35555555555555" y="136.51111111111112"/>
      <point x="585.7111111111111" y="229.11111111111111"/>
      <point x="585.7111111111111" y="388.06666666666666" type="curve" smooth="yes"/>
      <point x="585.7111111111111" y="544.3111111111111"/>
      <point x="492.93333333333334" y="617.3111111111111"/>
      <point x="325.7111111111111" y="617.3111111111111" type="curve" smooth="yes"/>
      <point x="267.77777777777777" y="617.3111111111111"/>
      <point x="213.66666666666663" y="609.8444444444444"/>
      <point x="170.19999999999996" y="609.4888888888889" type="curve"/>
      <point x="203.8222222222222" y="521.3777777777777" type="line"/>
      <point x="229.46666666666664" y="529.2"/>
      <point x="259.8222222222222" y="531.3777777777777"/>
      <point x="288.2888888888889" y="532.3777777777777" type="curve" smooth="yes"/>
      <point x="409.9555555555555" y="536.3777777777777"/>
      <point x="469.53333333333336" y="490.26666666666665"/>
      <point x="469.53333333333336" y="387.06666666666666" type="curve" smooth="yes"/>
      <point x="469.53333333333336" y="247.9111111111111"/>
      <point x="384.9111111111111" y="222.6222222222222"/>
      <point x="290.1111111111111" y="222.6222222222222" type="curve" smooth="yes"/>
      <point x="263.64444444444445" y="222.6222222222222"/>
      <point x="236.1111111111111" y="223.44444444444443"/>
      <point x="203.99999999999997" y="228.6222222222222" type="curve"/>
      <point x="203.99999999999997" y="140.6888888888889" type="line"/>
      <point x="222.99999999999997" y="140.51111111111112"/>
      <point x="254.17777777777775" y="136.51111111111112"/>
    </contour>
    <contour>
      <point x="94.46666666666667" y="0.0" type="line"/>
      <point x="211.64444444444442" y="0.0" type="line"/>
      <point x="211.64444444444442" y="743.0" type="line"/>
      <point x="94.46666666666667" y="743.0" type="line"/>
    </contour>
  </outline>
</glyph>
<glyph name="germandbls" format="2">
  <advance width="630.02222"/>
  <unicode hex="00DF"/>
  <anchor x="315.511" y="0.0" name="bottom"/>
  <anchor x="315.511" y="557.0" name="top"/>
  <outline>
    <contour>
      <point x="86.6" y="0.0" type="line"/>
      <point x="202.133" y="0.0" type="line"/>
      <point x="202.133" y="463.178" type="line" smooth="yes"/>
      <point x="202.133" y="638.089"/>
      <point x="259.178" y="690.556"/>
      <point x="339.756" y="690.556" type="curve" smooth="yes"/>
      <point x="399.622" y="690.556"/>
      <point x="432.733" y="666.2"/>
      <point x="432.733" y="618.378" type="curve" smooth="yes"/>
      <point x="432.733" y="533.444"/>
      <point x="332.156" y="505.756"/>
      <point x="332.156" y="414.756" type="curve" smooth="yes"/>
      <point x="332.156" y="263.844"/>
      <point x="495.067" y="250.6"/>
      <point x="495.889" y="144.022" type="curve" smooth="yes"/>
      <point x="495.889" y="89.444"/>
      <point x="453.0" y="72.156"/>
      <point x="415.067" y="72.156" type="curve" smooth="yes"/>
      <point x="358.267" y="72.156"/>
      <point x="320.333" y="87.622"/>
      <point x="303.222" y="97.267" type="curve"/>
      <point x="303.222" y="8.0" type="line"/>
      <point x="321.689" y="0.0"/>
      <point x="365.867" y="-8.0"/>
      <point x="416.578" y="-8.0" type="curve" smooth="yes"/>
      <point x="513.178" y="-8.0"/>
      <point x="613.067" y="33.467"/>
      <point x="613.067" y="155.311" type="curve" smooth="yes"/>
      <point x="613.067" y="318.022"/>
      <point x="436.844" y="333.333"/>
      <point x="436.844" y="429.067" type="curve" smooth="yes"/>
      <point x="436.844" y="494.822"/>
      <point x="548.8" y="524.089"/>
      <point x="548.8" y="632.978" type="curve" smooth="yes"/>
      <point x="548.8" y="721.689"/>
      <point x="465.622" y="771.0"/>
      <point x="358.467" y="771.0" type="curve" smooth="yes"/>
      <point x="207.444" y="771.0"/>
      <point x="86.6" y="682.889"/>
      <point x="86.6" y="472.889" type="curve" smooth="yes"/>
    </contour>
    <contour>
      <point x="19.422" y="471.556" type="line"/>
      <point x="91.244" y="471.556" type="line"/>
      <point x="117.889" y="508.644" type="line"/>
      <point x="102.244" y="560.356" type="line"/>
      <point x="19.422" y="540.244" type="line"/>
    </contour>
  </outline>
</glyph>
<glyph name="ae" format="2">
  <advance width="875.2222222222222"/>
  <unicode hex="00E6"/>
  <anchor x="438.02222222222224" y="0.0" name="bottom"/>
  <anchor x="444.2" y="830.0" name="top"/>
  <outline>
    <contour>
      <point x="618.0222222222222" y="-8.0" type="curve" smooth="yes"/>
      <point x="688.4" y="-8.0"/>
      <point x="774.0444444444445" y="13.066666666666665"/>
      <point x="810.0444444444445" y="43.06666666666666" type="curve"/>
      <point x="789.1555555555556" y="109.33333333333331" type="line"/>
      <point x="760.9777777777778" y="92.51111111111109"/>
      <point x="685.3333333333334" y="79.51111111111109"/>
      <point x="647.8" y="79.51111111111109" type="curve" smooth="yes"/>
      <point x="557.3333333333334" y="79.51111111111109"/>
      <point x="487.8222222222222" y="117.11111111111109"/>
      <point x="482.35555555555555" y="246.06666666666666" type="curve"/>
      <point x="477.06666666666666" y="424.8"/>
      <point x="536.5111111111111" y="482.31111111111113"/>
      <point x="614.3777777777777" y="482.31111111111113" type="curve" smooth="yes"/>
      <point x="706.4" y="482.31111111111113"/>
      <point x="724.9333333333334" y="406.35555555555555"/>
      <point x="719.9333333333334" y="326.0" type="curve"/>
      <point x="445.2" y="326.0" type="line"/>
      <point x="436.2" y="252.6888888888889" type="line"/>
      <point x="822.2222222222222" y="252.6888888888889" type="line"/>
      <point x="827.8666666666667" y="277.68888888888887"/>
      <point x="828.0444444444445" y="311.4"/>
      <point x="828.0444444444445" y="352.5777777777778" type="curve"/>
      <point x="823.5777777777778" y="496.4888888888889"/>
      <point x="731.9111111111112" y="565.8222222222222"/>
      <point x="620.2" y="564.0" type="curve" smooth="yes"/>
      <point x="455.77777777777777" y="562.1777777777778"/>
      <point x="368.1777777777778" y="441.1777777777778"/>
      <point x="368.1777777777778" y="279.1777777777778" type="curve" smooth="yes"/>
      <point x="368.1777777777778" y="91.77777777777777"/>
      <point x="457.8888888888889" y="-8.0"/>
    </contour>
    <contour>
      <point x="46.71111111111111" y="151.13333333333333" type="curve" smooth="yes"/>
      <point x="46.71111111111111" y="50.644444444444446"/>
      <point x="122.95555555555555" y="-8.0"/>
      <point x="221.3111111111111" y="-8.0" type="curve" smooth="yes"/>
      <point x="304.5333333333333" y="-8.0"/>
      <point x="380.64444444444445" y="21.577777777777783"/>
      <point x="434.7111111111111" y="93.75555555555556" type="curve"/>
      <point x="418.77777777777777" y="125.82222222222222" type="line"/>
      <point x="395.8222222222222" y="145.06666666666666" type="line"/>
      <point x="373.8888888888889" y="106.08888888888887"/>
      <point x="306.97777777777776" y="76.08888888888887"/>
      <point x="252.75555555555553" y="76.08888888888887" type="curve" smooth="yes"/>
      <point x="192.31111111111107" y="76.08888888888887"/>
      <point x="163.2444444444444" y="105.02222222222221"/>
      <point x="163.2444444444444" y="159.95555555555555" type="curve" smooth="yes"/>
      <point x="163.2444444444444" y="203.84444444444443"/>
      <point x="187.95555555555552" y="224.88888888888889"/>
      <point x="221.8222222222222" y="240.64444444444445" type="curve" smooth="yes"/>
      <point x="258.15555555555557" y="258.22222222222223"/>
      <point x="314.77777777777777" y="266.4"/>
      <point x="368.5333333333333" y="266.4" type="curve"/>
      <point x="390.35555555555555" y="307.06666666666666" type="line"/>
      <point x="367.0" y="337.6" type="line"/>
      <point x="296.24444444444447" y="337.6"/>
      <point x="216.75555555555556" y="328.6"/>
      <point x="154.0" y="301.9555555555556" type="curve" smooth="yes"/>
      <point x="91.0" y="273.9555555555556"/>
      <point x="46.71111111111111" y="222.77777777777777"/>
    </contour>
    <contour>
      <point x="101.95555555555555" y="436.6666666666667" type="line"/>
      <point x="129.77777777777777" y="454.1333333333333"/>
      <point x="209.06666666666666" y="478.1333333333333"/>
      <point x="259.4888888888889" y="478.1333333333333" type="curve" smooth="yes"/>
      <point x="332.77777777777777" y="478.1333333333333"/>
      <point x="367.0" y="464.8888888888889"/>
      <point x="367.0" y="388.97777777777776" type="curve" smooth="yes"/>
      <point x="367.0" y="290.17777777777775" type="line"/>
      <point x="470.1111111111111" y="290.17777777777775" type="line"/>
      <point x="470.1111111111111" y="383.73333333333335" type="line" smooth="yes"/>
      <point x="470.1111111111111" y="532.4"/>
      <point x="404.17777777777775" y="565.3555555555556"/>
      <point x="287.9111111111111" y="565.3555555555556" type="curve" smooth="yes"/>
      <point x="197.11111111111111" y="565.3555555555556"/>
      <point x="95.71111111111111" y="525.1111111111111"/>
      <point x="73.88888888888889" y="513.1111111111111" type="curve"/>
    </contour>
  </outline>
</glyph>
<glyph name="eth" format="2">
  <advance width="590.06667"/>
  <unicode hex="00F0"/>
  <outline>
    <contour>
      <point x="300.089" y="-13.0" type="curve" smooth="yes"/>
      <point x="449.8" y="-11.178"/>
      <point x="552.711" y="91.778"/>
      <point x="552.711" y="300.733" type="curve" smooth="yes"/>
      <point x="552.711" y="496.733"/>
      <point x="471.267" y="665.0"/>
      <point x="329.533" y="767.733" type="curve" smooth="yes"/>
      <point x="321.356" y="773.556"/>
      <point x="308.8" y="781.978"/>
      <point x="299.978" y="787.8" type="curve" smooth="yes"/>
      <point x="250.867" y="820.556"/>
      <point x="196.822" y="846.6"/>
      <point x="133.822" y="866.422" type="curve"/>
      <point x="107.822" y="800.978" type="line"/>
      <point x="153.578" y="785.689"/>
      <point x="196.867" y="761.578"/>
      <point x="236.8" y="732.822" type="curve" smooth="yes"/>
      <point x="244.622" y="727.822"/>
      <point x="251.8" y="721.467"/>
      <point x="259.8" y="715.822" type="curve" smooth="yes"/>
      <point x="339.978" y="654.844"/>
      <point x="402.222" y="565.267"/>
      <point x="416.867" y="459.533" type="curve"/>
      <point x="457.644" y="437.511" type="line"/>
      <point x="442.467" y="501.133"/>
      <point x="388.178" y="562.644"/>
      <point x="297.6" y="562.644" type="curve" smooth="yes"/>
      <point x="145.756" y="563.467"/>
      <point x="46.0" y="451.756"/>
      <point x="46.0" y="269.822" type="curve" smooth="yes"/>
      <point x="46.0" y="96.889"/>
      <point x="145.6" y="-14.822"/>
    </contour>
    <contour>
      <point x="304.733" y="67.756" type="curve" smooth="yes"/>
      <point x="210.533" y="67.756"/>
      <point x="162.244" y="151.889"/>
      <point x="162.244" y="272.756" type="curve" smooth="yes"/>
      <point x="162.244" y="394.4"/>
      <point x="208.711" y="478.022"/>
      <point x="303.911" y="478.022" type="curve" smooth="yes"/>
      <point x="386.222" y="478.022"/>
      <point x="426.044" y="441.267"/>
      <point x="434.644" y="411.978" type="curve"/>
      <point x="438.289" y="363.889"/>
      <point x="436.822" y="320.111"/>
      <point x="436.822" y="272.6" type="curve" smooth="yes"/>
      <point x="436.822" y="146.556"/>
      <point x="384.356" y="67.756"/>
    </contour>
    <contour>
      <point x="207.667" y="634.089" type="line"/>
      <point x="287.022" y="725.822" type="line"/>
      <point x="299.022" y="743.0" type="line"/>
      <point x="327.311" y="767.356"/>
      <point x="389.844" y="842.667"/>
      <point x="389.844" y="842.667" type="curve"/>
      <point x="329.822" y="887.556" type="line"/>
      <point x="329.822" y="887.556"/>
      <point x="266.933" y="807.356"/>
      <point x="243.467" y="786.0" type="curve"/>
      <point x="230.644" y="770.822" type="line"/>
      <point x="147.822" y="678.978" type="line"/>
    </contour>
  </outline>
</glyph>
<glyph name="divide" format="2">
  <advance width="680.8888888888889"/>
  <unicode hex="00F7"/>
  <outline>
    <contour>
      <point x="339.77777777777777" y="501.64444444444445" type="curve" smooth="yes"/>
      <point x="383.26666666666665" y="501.64444444444445"/>
      <point x="423.15555555555557" y="536.9555555555555"/>
      <point x="423.15555555555557" y="584.7333333333333" type="curve" smooth="yes"/>
      <point x="423.15555555555557" y="625.2222222222222"/>
      <point x="399.37777777777774" y="656.8222222222222"/>
      <point x="350.4222222222222" y="656.8222222222222" type="curve" smooth="yes"/>
      <point x="307.93333333333334" y="656.8222222222222"/>
      <point x="266.8666666666667" y="619.6888888888889"/>
      <point x="266.8666666666667" y="573.9111111111112" type="curve" smooth="yes"/>
      <point x="266.8666666666667" y="530.7777777777778"/>
      <point x="299.93333333333334" y="501.64444444444445"/>
    </contour>
    <contour>
      <point x="338.6" y="102.35555555555558" type="curve" smooth="yes"/>
      <point x="382.9111111111111" y="102.35555555555558"/>
      <point x="422.8" y="136.84444444444446"/>
      <point x="422.8" y="184.44444444444446" type="curve" smooth="yes"/>
      <point x="422.8" y="224.93333333333334"/>
      <point x="398.2" y="256.5333333333333"/>
      <point x="350.24444444444447" y="256.5333333333333" type="curve" smooth="yes"/>
      <point x="307.7555555555556" y="256.5333333333333"/>
      <point x="266.5111111111111" y="219.57777777777778"/>
      <point x="266.5111111111111" y="173.8" type="curve" smooth="yes"/>
      <point x="266.5111111111111" y="130.4888888888889"/>
      <point x="298.7555555555556" y="102.35555555555558"/>
    </contour>
    <contour>
      <point x="109.6888888888889" y="333.15555555555557" type="line"/>
      <point x="571.2" y="333.15555555555557" type="line"/>
      <point x="571.2" y="421.6666666666667" type="line"/>
      <point x="109.6888888888889" y="421.6666666666667" type="line"/>
    </contour>
  </outline>
</glyph>
<glyph name="oslash" format="2">
  <advance width="599.8222222222222"/>
  <unicode hex="00F8"/>
  <anchor x="322.0" y="830.0" name="top"/>
  <outline>
    <contour>
      <point x="142.95555555555555" y="-82.13333333333333" type="line"/>
      <point x="203.95555555555555" y="-99.6" type="line"/>
      <point x="457.3333333333333" y="640.4888888888889" type="line"/>
      <point x="396.3333333333333" y="657.1333333333333" type="line"/>
    </contour>
    <contour>
      <point x="294.9111111111111" y="-8.0" type="curve" smooth="yes"/>
      <point x="441.4" y="-8.0"/>
      <point x="549.8222222222222" y="88.0"/>
      <point x="552.8222222222222" y="267.0" type="curve" smooth="yes"/>
      <point x="554.8222222222222" y="425.0"/>
      <point x="486.2888888888889" y="564.0"/>
      <point x="304.9111111111111" y="564.0" type="curve" smooth="yes"/>
      <point x="159.24444444444444" y="564.0"/>
      <point x="49.17777777777778" y="469.0"/>
      <point x="47.0" y="290.0" type="curve"/>
      <point x="45.0" y="131.0"/>
      <point x="113.71111111111111" y="-8.0"/>
    </contour>
    <contour>
      <point x="297.9111111111111" y="73.68888888888887" type="curve" smooth="yes"/>
      <point x="205.75555555555553" y="75.51111111111109"/>
      <point x="164.71111111111108" y="172.55555555555554"/>
      <point x="164.71111111111108" y="288.46666666666664" type="curve" smooth="yes"/>
      <point x="164.71111111111108" y="412.9111111111111"/>
      <point x="211.04444444444442" y="483.31111111111113"/>
      <point x="301.9111111111111" y="481.4888888888889" type="curve"/>
      <point x="395.06666666666666" y="480.4888888888889"/>
      <point x="435.93333333333334" y="387.0888888888889"/>
      <point x="435.93333333333334" y="271.53333333333336" type="curve" smooth="yes"/>
      <point x="435.93333333333334" y="146.37777777777777"/>
      <point x="389.6" y="71.86666666666665"/>
    </contour>
  </outline>
</glyph>
<glyph name="thorn" format="2">
  <advance width="612.1777777777778"/>
  <unicode hex="00FE"/>
  <anchor x="306.0888888888889" y="0.0" name="bottom"/>
  <anchor x="306.0888888888889" y="557.0" name="top"/>
  <anchor x="321.7111111111111" y="-83.0" name="btm"/>
  <outline>
    <contour>
      <point x="81.17777777777778" y="31.0" type="line"/>
      <point x="81.17777777777778" y="-248.0" type="line"/>
      <point x="196.71111111111108" y="-248.0" type="line"/>
      <point x="196.71111111111108" y="-83.0" type="line"/>
      <point x="191.4222222222222" y="9.466666666666669" type="line"/>
    </contour>
    <component base="b"/>
  </outline>
</glyph>
<glyph name="Aogonek" format="2">
  <advance width="688.2444444444444"/>
  <unicode hex="0104"/>
  <anchor x="344.5333333333333" y="0.0" name="bottom"/>
  <anchor x="332.0" y="-83.0" name="btm"/>
  <anchor x="619.2444444444444" y="10.0" name="ogonek"/>
  <anchor x="343.7111111111111" y="830.0" name="top"/>
  <outline>
    <contour>
      <point x="447.6666666666667" y="-148.24444444444444" type="curve"/>
      <point x="449.02222222222224" y="-214.35555555555555"/>
      <point x="502.15555555555557" y="-250.35555555555555"/>
      <point x="568.9111111111112" y="-250.35555555555555" type="curve" smooth="yes"/>
      <point x="609.9111111111112" y="-250.35555555555555"/>
      <point x="656.2" y="-241.64444444444445"/>
      <point x="684.3777777777777" y="-220.64444444444445" type="curve"/>
      <point x="684.3777777777777" y="-160.0888888888889" type="line"/>
      <point x="662.5555555555555" y="-167.73333333333335"/>
      <point x="639.0888888888888" y="-173.3777777777778"/>
      <point x="617.6222222222223" y="-173.3777777777778" type="curve" smooth="yes"/>
      <point x="583.8" y="-173.3777777777778"/>
      <point x="556.3333333333333" y="-163.20000000000002"/>
      <point x="555.3333333333333" y="-122.97777777777779" type="curve"/>
      <point x="553.8" y="-75.62222222222223"/>
      <point x="609.0222222222222" y="-27.177777777777777"/>
      <point x="669.6" y="5.177777777777777" type="curve"/>
      <point x="648.0222222222222" y="16.133333333333326" type="line"/>
      <point x="577.5111111111111" y="1.6444444444444455" type="line"/>
      <point x="519.1111111111111" y="-27.177777777777777"/>
      <point x="446.1333333333333" y="-82.64444444444445"/>
    </contour>
    <component base="A"/>
  </outline>
</glyph>
<glyph name="dcroat" format="2">
  <advance width="612.8888888888889"/>
  <unicode hex="0111"/>
  <anchor x="306.0888888888889" y="0.0" name="bottom"/>
  <anchor x="299.3777777777778" y="-83.0" name="btm"/>
  <anchor x="306.0888888888889" y="279.0" name="center"/>
  <anchor x="180.6222222222222" y="830.1777777777778" name="top"/>
  <anchor x="592.1777777777778" y="557.0" name="topright"/>
  <outline>
    <contour>
      <point x="288.44444444444446" y="636.7555555555556" type="line"/>
      <point x="599.4666666666667" y="636.7555555555556" type="line"/>
      <point x="599.4666666666667" y="709.1333333333333" type="line"/>
      <point x="288.44444444444446" y="709.1333333333333" type="line"/>
    </contour>
    <component base="d"/>
  </outline>
</glyph>
<glyph name="Hbar" format="2">
  <advance width="768.15556"/>
  <unicode hex="0126"/>
  <outline>
    <contour>
      <point x="94.467" y="0.0" type="line"/>
      <point x="212.0" y="0.0" type="line"/>
      <point x="212.0" y="324.378" type="line"/>
      <point x="556.8" y="324.378" type="line"/>
      <point x="556.8" y="0.0" type="line"/>
      <point x="673.689" y="0.0" type="line"/>
      <point x="673.689" y="743.0" type="line"/>
      <point x="556.8" y="743.0" type="line"/>
      <point x="556.8" y="413.711" type="line"/>
      <point x="212.0" y="413.711" type="line"/>
      <point x="212.0" y="743.0" type="line"/>
      <point x="94.467" y="743.0" type="line"/>
    </contour>
    <contour>
      <point x="5.422" y="518.222" type="line"/>
      <point x="764.556" y="518.222" type="line"/>
      <point x="764.556" y="591.667" type="line"/>
      <point x="5.422" y="591.667" type="line"/>
    </contour>
  </outline>
</glyph>
<glyph name="hbar" format="2">
  <advance width="634.5111111111111"/>
  <unicode hex="0127"/>
  <anchor x="317.6666666666667" y="0.0" name="bottom"/>
  <anchor x="328.35555555555555" y="-83.0" name="btm"/>
  <anchor x="317.6666666666667" y="492.0" name="center"/>
  <anchor x="143.37777777777777" y="869.0" name="top"/>
  <outline>
    <contour>
      <point x="18.0" y="627.7111111111111" type="line"/>
      <point x="313.4" y="627.7111111111111" type="line"/>
      <point x="313.4" y="695.9777777777778" type="line"/>
      <point x="18.0" y="695.9777777777778" type="line"/>
    </contour>
    <component base="h"/>
  </outline>
</glyph>
<glyph name="idotless" format="2">
  <advance width="298.84444444444443"/>
  <unicode hex="0131"/>
  <anchor x="149.42222222222222" y="0.0" name="bottom"/>
  <anchor x="149.6" y="-83.0" name="btm"/>
  <anchor x="222.66666666666666" y="25.0" name="ogonek"/>
  <anchor x="149.42222222222222" y="830.0" name="top"/>
  <outline>
    <contour>
      <point x="91.51111111111112" y="0.0" type="line"/>
      <point x="207.33333333333331" y="0.0" type="line"/>
      <point x="207.33333333333331" y="556.1777777777778" type="line"/>
      <point x="91.51111111111112" y="556.1777777777778" type="line"/>
    </contour>
  </outline>
</glyph>
<glyph name="kgreenlandic" format="2">
  <advance width="577.22222"/>
  <unicode hex="0138"/>
  <anchor x="289.022" y="0.0" name="bottom"/>
  <anchor x="289.022" y="557.0" name="top"/>
  <outline>
    <contour>
      <point x="559.356" y="557.0" type="line"/>
      <point x="428.644" y="557.0" type="line"/>
      <point x="173.644" y="253.267" type="line"/>
      <point x="199.111" y="235.978" type="line"/>
      <point x="203.289" y="332.311" type="line"/>
      <point x="203.289" y="557.0" type="line"/>
      <point x="87.467" y="557.0" type="line"/>
      <point x="89.111" y="0.0" type="line"/>
      <point x="204.111" y="0.0" type="line"/>
      <point x="204.111" y="90.333" type="line"/>
      <point x="201.467" y="175.156" type="line"/>
      <point x="191.822" y="147.911" type="line"/>
    </contour>
    <contour>
      <point x="262.978" y="256.556" type="line"/>
      <point x="446.578" y="0.0" type="line"/>
      <point x="577.822" y="0.0" type="line"/>
      <point x="341.778" y="331.133" type="line"/>
    </contour>
  </outline>
</glyph>
